<svg width="289" height="60" viewBox="0 0 289 60" fill="none" xmlns="http://www.w3.org/2000/svg">
<path d="M44.9529 22.25V2.65H54.1369C56.4889 2.65 58.2809 3.11667 59.5129 4.05C60.7449 4.96467 61.3609 6.19667 61.3609 7.746C61.3609 8.79133 61.1182 9.68733 60.6329 10.434C60.1475 11.162 59.4942 11.7313 58.6729 12.142C57.8702 12.534 56.9929 12.73 56.0409 12.73L56.5449 11.722C57.6462 11.722 58.6355 11.9273 59.5129 12.338C60.3902 12.73 61.0809 13.3087 61.5849 14.074C62.1075 14.8393 62.3689 15.7913 62.3689 16.93C62.3689 18.61 61.7249 19.9167 60.4369 20.85C59.1489 21.7833 57.2355 22.25 54.6969 22.25H44.9529ZM48.5929 19.394H54.4729C55.8355 19.394 56.8809 19.17 57.6089 18.722C58.3369 18.274 58.7009 17.5553 58.7009 16.566C58.7009 15.5953 58.3369 14.886 57.6089 14.438C56.8809 13.9713 55.8355 13.738 54.4729 13.738H48.3129V10.91H53.7449C55.0142 10.91 55.9849 10.686 56.6569 10.238C57.3475 9.79 57.6929 9.118 57.6929 8.222C57.6929 7.30733 57.3475 6.626 56.6569 6.178C55.9849 5.73 55.0142 5.506 53.7449 5.506H48.5929V19.394ZM72.7056 22.446C71.0443 22.446 69.5883 22.1193 68.3376 21.466C67.1056 20.794 66.1443 19.8793 65.4536 18.722C64.7816 17.5647 64.4456 16.2487 64.4456 14.774C64.4456 13.2807 64.7723 11.9647 65.4256 10.826C66.0976 9.66867 67.0123 8.76333 68.1696 8.11C69.3456 7.45667 70.6803 7.13 72.1736 7.13C73.6296 7.13 74.927 7.44733 76.0656 8.082C77.2043 8.71667 78.1003 9.61267 78.7536 10.77C79.407 11.9273 79.7336 13.29 79.7336 14.858C79.7336 15.0073 79.7243 15.1753 79.7056 15.362C79.7056 15.5487 79.6963 15.726 79.6776 15.894H67.2176V13.57H77.8296L76.4576 14.298C76.4763 13.4393 76.299 12.6833 75.9256 12.03C75.5523 11.3767 75.039 10.8633 74.3856 10.49C73.751 10.1167 73.0136 9.93 72.1736 9.93C71.315 9.93 70.559 10.1167 69.9056 10.49C69.271 10.8633 68.767 11.386 68.3936 12.058C68.039 12.7113 67.8616 13.486 67.8616 14.382V14.942C67.8616 15.838 68.067 16.6313 68.4776 17.322C68.8883 18.0127 69.467 18.5447 70.2136 18.918C70.9603 19.2913 71.819 19.478 72.7896 19.478C73.6296 19.478 74.3856 19.3473 75.0576 19.086C75.7296 18.8247 76.327 18.414 76.8496 17.854L78.7256 20.01C78.0536 20.794 77.2043 21.4007 76.1776 21.83C75.1696 22.2407 74.0123 22.446 72.7056 22.446ZM101.728 7.13C102.922 7.13 103.977 7.36333 104.892 7.83C105.825 8.29667 106.553 9.01533 107.076 9.986C107.598 10.938 107.86 12.17 107.86 13.682V22.25H104.36V14.13C104.36 12.8047 104.07 11.8153 103.492 11.162C102.913 10.5087 102.082 10.182 101 10.182C100.234 10.182 99.5529 10.35 98.9556 10.686C98.377 11.022 97.9196 11.5167 97.5836 12.17C97.2663 12.8233 97.1076 13.654 97.1076 14.662V22.25H93.6076V14.13C93.6076 12.8047 93.3183 11.8153 92.7396 11.162C92.1609 10.5087 91.3303 10.182 90.2476 10.182C89.4823 10.182 88.8009 10.35 88.2036 10.686C87.6249 11.022 87.1676 11.5167 86.8316 12.17C86.5143 12.8233 86.3556 13.654 86.3556 14.662V22.25H82.8556V7.298H86.1876V11.274L85.5996 10.098C86.1036 9.12733 86.8316 8.39 87.7836 7.886C88.7543 7.382 89.8556 7.13 91.0876 7.13C92.4876 7.13 93.701 7.47533 94.7276 8.166C95.773 8.85667 96.4636 9.902 96.7996 11.302L95.4276 10.826C95.913 9.706 96.7156 8.81 97.8356 8.138C98.9556 7.466 100.253 7.13 101.728 7.13ZM123.566 22.25L117.154 7.298H120.794L126.31 20.486H124.518L130.23 7.298H133.59L127.178 22.25H123.566ZM135.538 22.25V7.298H139.038V22.25H135.538ZM137.302 4.834C136.649 4.834 136.107 4.62867 135.678 4.218C135.267 3.80733 135.062 3.31267 135.062 2.734C135.062 2.13667 135.267 1.642 135.678 1.25C136.107 0.839333 136.649 0.634 137.302 0.634C137.955 0.634 138.487 0.829999 138.898 1.222C139.327 1.59533 139.542 2.07133 139.542 2.65C139.542 3.266 139.337 3.78867 138.926 4.218C138.515 4.62867 137.974 4.834 137.302 4.834ZM151.876 7.13C153.07 7.13 154.134 7.36333 155.068 7.83C156.02 8.29667 156.766 9.01533 157.308 9.986C157.849 10.938 158.12 12.17 158.12 13.682V22.25H154.62V14.13C154.62 12.8047 154.302 11.8153 153.668 11.162C153.052 10.5087 152.184 10.182 151.064 10.182C150.242 10.182 149.514 10.35 148.88 10.686C148.245 11.022 147.75 11.526 147.396 12.198C147.06 12.8513 146.892 13.682 146.892 14.69V22.25H143.392V7.298H146.724V11.33L146.136 10.098C146.658 9.146 147.414 8.418 148.404 7.914C149.412 7.39133 150.569 7.13 151.876 7.13ZM168.675 22.446C167.238 22.446 165.94 22.1287 164.783 21.494C163.644 20.8407 162.748 19.9447 162.095 18.806C161.442 17.6673 161.115 16.3233 161.115 14.774C161.115 13.2247 161.442 11.8807 162.095 10.742C162.748 9.60333 163.644 8.71667 164.783 8.082C165.94 7.44733 167.238 7.13 168.675 7.13C169.926 7.13 171.046 7.41 172.035 7.97C173.024 8.51133 173.808 9.342 174.387 10.462C174.966 11.582 175.255 13.0193 175.255 14.774C175.255 16.51 174.975 17.9473 174.415 19.086C173.855 20.206 173.08 21.046 172.091 21.606C171.102 22.166 169.963 22.446 168.675 22.446ZM169.095 19.45C169.935 19.45 170.682 19.2633 171.335 18.89C172.007 18.5167 172.539 17.9753 172.931 17.266C173.342 16.5567 173.547 15.726 173.547 14.774C173.547 13.8033 173.342 12.9727 172.931 12.282C172.539 11.5727 172.007 11.0313 171.335 10.658C170.682 10.2847 169.935 10.098 169.095 10.098C168.255 10.098 167.499 10.2847 166.827 10.658C166.174 11.0313 165.642 11.5727 165.231 12.282C164.839 12.9727 164.643 13.8033 164.643 14.774C164.643 15.726 164.839 16.5567 165.231 17.266C165.642 17.9753 166.174 18.5167 166.827 18.89C167.499 19.2633 168.255 19.45 169.095 19.45ZM173.631 22.25V18.722L173.771 14.746L173.491 10.77V1.474H176.963V22.25H173.631ZM188.05 22.446C186.519 22.446 185.156 22.1193 183.962 21.466C182.767 20.794 181.824 19.8793 181.134 18.722C180.443 17.5647 180.098 16.2487 180.098 14.774C180.098 13.2807 180.443 11.9647 181.134 10.826C181.824 9.66867 182.767 8.76333 183.962 8.11C185.156 7.45667 186.519 7.13 188.05 7.13C189.599 7.13 190.971 7.45667 192.166 8.11C193.379 8.76333 194.322 9.65933 194.994 10.798C195.684 11.9367 196.03 13.262 196.03 14.774C196.03 16.2487 195.684 17.5647 194.994 18.722C194.322 19.8793 193.379 20.794 192.166 21.466C190.971 22.1193 189.599 22.446 188.05 22.446ZM188.05 19.45C188.908 19.45 189.674 19.2633 190.346 18.89C191.018 18.5167 191.54 17.9753 191.914 17.266C192.306 16.5567 192.502 15.726 192.502 14.774C192.502 13.8033 192.306 12.9727 191.914 12.282C191.54 11.5727 191.018 11.0313 190.346 10.658C189.674 10.2847 188.918 10.098 188.078 10.098C187.219 10.098 186.454 10.2847 185.782 10.658C185.128 11.0313 184.606 11.5727 184.214 12.282C183.822 12.9727 183.626 13.8033 183.626 14.774C183.626 15.726 183.822 16.5567 184.214 17.266C184.606 17.9753 185.128 18.5167 185.782 18.89C186.454 19.2633 187.21 19.45 188.05 19.45ZM215.847 22.25V19.226L215.651 18.582V13.29C215.651 12.2633 215.343 11.47 214.727 10.91C214.111 10.3313 213.178 10.042 211.927 10.042C211.087 10.042 210.256 10.1727 209.435 10.434C208.632 10.6953 207.951 11.0593 207.391 11.526L206.019 8.978C206.822 8.362 207.774 7.90467 208.875 7.606C209.995 7.28867 211.152 7.13 212.347 7.13C214.512 7.13 216.183 7.65267 217.359 8.698C218.554 9.72467 219.151 11.3207 219.151 13.486V22.25H215.847ZM211.143 22.446C210.023 22.446 209.043 22.2593 208.203 21.886C207.363 21.494 206.71 20.962 206.243 20.29C205.795 19.5993 205.571 18.8247 205.571 17.966C205.571 17.126 205.767 16.37 206.159 15.698C206.57 15.026 207.232 14.494 208.147 14.102C209.062 13.71 210.275 13.514 211.787 13.514H216.127V15.838H212.039C210.844 15.838 210.042 16.034 209.631 16.426C209.22 16.7993 209.015 17.266 209.015 17.826C209.015 18.4607 209.267 18.9647 209.771 19.338C210.275 19.7113 210.975 19.898 211.871 19.898C212.73 19.898 213.495 19.702 214.167 19.31C214.858 18.918 215.352 18.3393 215.651 17.574L216.239 19.674C215.903 20.5513 215.296 21.2327 214.419 21.718C213.56 22.2033 212.468 22.446 211.143 22.446ZM230.15 22.446C228.619 22.446 227.257 22.1193 226.062 21.466C224.867 20.794 223.925 19.8793 223.234 18.722C222.543 17.5647 222.198 16.2487 222.198 14.774C222.198 13.2807 222.543 11.9647 223.234 10.826C223.925 9.66867 224.867 8.76333 226.062 8.11C227.257 7.45667 228.619 7.13 230.15 7.13C231.699 7.13 233.071 7.45667 234.266 8.11C235.479 8.76333 236.422 9.65933 237.094 10.798C237.785 11.9367 238.13 13.262 238.13 14.774C238.13 16.2487 237.785 17.5647 237.094 18.722C236.422 19.8793 235.479 20.794 234.266 21.466C233.071 22.1193 231.699 22.446 230.15 22.446ZM230.15 19.45C231.009 19.45 231.774 19.2633 232.446 18.89C233.118 18.5167 233.641 17.9753 234.014 17.266C234.406 16.5567 234.602 15.726 234.602 14.774C234.602 13.8033 234.406 12.9727 234.014 12.282C233.641 11.5727 233.118 11.0313 232.446 10.658C231.774 10.2847 231.018 10.098 230.178 10.098C229.319 10.098 228.554 10.2847 227.882 10.658C227.229 11.0313 226.706 11.5727 226.314 12.282C225.922 12.9727 225.726 13.8033 225.726 14.774C225.726 15.726 225.922 16.5567 226.314 17.266C226.706 17.9753 227.229 18.5167 227.882 18.89C228.554 19.2633 229.31 19.45 230.15 19.45Z" fill="white"/>
<path d="M4.81304 34.7V52.72L7.53304 53.74V54.25H1.07304V53.74L3.79304 52.72V31.47L1.75304 30.96V30.45H6.00304C7.18171 30.45 8.11104 30.6993 8.79104 31.198C9.49371 31.674 10.0944 32.388 10.593 33.34L18.005 47.518L23.683 33.34C24.0684 32.3427 24.5897 31.6173 25.247 31.164C25.9044 30.688 26.913 30.45 28.273 30.45H31.843V30.96L29.803 31.47V53.23L31.843 53.74V54.25H22.153V53.74L24.193 53.23V34.7L16.203 54.59H15.183L4.81304 34.7ZM34.675 53.74L36.715 53.23V38.27L34.675 37.76V37.25H39.095C41.135 37.25 42.155 38.27 42.155 40.31V53.23L44.195 53.74V54.25H34.675V53.74ZM39.095 35.21C38.415 35.21 37.8483 34.9833 37.395 34.53C36.9417 34.0767 36.715 33.51 36.715 32.83C36.715 32.15 36.9417 31.5833 37.395 31.13C37.8483 30.6767 38.415 30.45 39.095 30.45C39.775 30.45 40.3417 30.6767 40.795 31.13C41.2483 31.5833 41.475 32.15 41.475 32.83C41.475 33.51 41.2483 34.0767 40.795 34.53C40.3417 34.9833 39.775 35.21 39.095 35.21ZM45.9897 53.74L48.0297 53.23V38.27L45.9897 37.76V37.25H49.0497C50.387 37.25 51.441 37.6807 52.2117 38.542C52.5063 38.882 52.7557 39.3013 52.9597 39.8C53.2997 39.1653 53.6623 38.6553 54.0477 38.27C55.0677 37.25 56.235 36.74 57.5497 36.74C58.8643 36.74 60.0203 37.0347 61.0177 37.624C62.015 38.1907 62.7857 38.9727 63.3297 39.97C63.6697 39.3127 64.0323 38.78 64.4177 38.372C65.4603 37.284 66.6277 36.74 67.9197 36.74C69.121 36.74 70.1977 36.9893 71.1497 37.488C72.1243 37.9867 72.8723 38.6667 73.3937 39.528C73.9377 40.3893 74.2097 41.33 74.2097 42.35V53.23L76.2497 53.74V54.25H71.8297C69.7897 54.25 68.7697 53.23 68.7697 51.19V42.35C68.7697 40.8767 68.543 39.7773 68.0897 39.052C67.6363 38.304 67.1263 37.93 66.5597 37.93C65.9023 37.93 65.2337 38.3833 64.5537 39.29C64.2817 39.7207 64.0437 40.174 63.8397 40.65V53.23L65.8797 53.74V54.25H56.3597V53.74L58.3997 53.23V42.35C58.3997 40.8767 58.173 39.7773 57.7197 39.052C57.2663 38.304 56.7563 37.93 56.1897 37.93C55.5323 37.93 54.8637 38.3833 54.1837 39.29C53.9117 39.7207 53.6737 40.174 53.4697 40.65V53.23L55.5097 53.74V54.25H45.9897V53.74ZM87.0663 54.76C84.2557 54.76 82.0457 53.9667 80.4363 52.38C78.8497 50.7707 78.0563 48.5607 78.0563 45.75C78.0563 42.9393 78.8497 40.7407 80.4363 39.154C82.0457 37.5447 84.2557 36.74 87.0663 36.74C89.877 36.74 92.0757 37.5447 93.6623 39.154C95.2717 40.7407 96.0763 42.9393 96.0763 45.75C96.0763 48.5607 95.2717 50.7707 93.6623 52.38C92.0757 53.9667 89.877 54.76 87.0663 54.76ZM87.0663 54.08C87.973 54.08 88.7323 53.4453 89.3443 52.176C89.979 50.9067 90.2963 48.7647 90.2963 45.75C90.2963 42.7353 89.979 40.5933 89.3443 39.324C88.7323 38.0547 87.973 37.42 87.0663 37.42C86.1597 37.42 85.389 38.0547 84.7543 39.324C84.1423 40.5933 83.8363 42.7353 83.8363 45.75C83.8363 48.7647 84.1423 50.9067 84.7543 52.176C85.389 53.4453 86.1597 54.08 87.0663 54.08ZM111.258 34.7V52.72L113.978 53.74V54.25H107.518V53.74L110.238 52.72V31.47L108.198 30.96V30.45H112.448C113.626 30.45 114.556 30.6993 115.236 31.198C115.938 31.674 116.539 32.388 117.038 33.34L124.45 47.518L130.128 33.34C130.513 32.3427 131.034 31.6173 131.692 31.164C132.349 30.688 133.358 30.45 134.718 30.45H138.288V30.96L136.248 31.47V53.23L138.288 53.74V54.25H128.598V53.74L130.638 53.23V34.7L122.648 54.59H121.628L111.258 34.7ZM150.3 54.76C147.398 54.76 145.143 53.9667 143.534 52.38C141.924 50.7707 141.12 48.5607 141.12 45.75C141.12 43.914 141.471 42.316 142.174 40.956C142.876 39.596 143.851 38.5533 145.098 37.828C146.367 37.1027 147.818 36.74 149.45 36.74C151.082 36.74 152.51 37.046 153.734 37.658C154.98 38.27 155.932 39.0973 156.59 40.14C157.27 41.16 157.61 42.2933 157.61 43.54C157.61 44.1067 157.553 44.594 157.44 45.002L157.27 45.58C156.295 45.784 155.241 45.954 154.108 46.09C151.728 46.43 149.325 46.6 146.9 46.6C146.9 49.2293 147.262 51.1107 147.988 52.244C148.713 53.3547 149.71 53.91 150.98 53.91C151.864 53.91 152.68 53.706 153.428 53.298C154.198 52.8673 154.799 52.312 155.23 51.632C155.683 50.9293 155.91 50.2153 155.91 49.49H156.76C156.76 50.3967 156.488 51.258 155.944 52.074C155.4 52.89 154.64 53.5473 153.666 54.046C152.691 54.522 151.569 54.76 150.3 54.76ZM146.9 45.75C148.35 45.75 149.529 45.6933 150.436 45.58C150.821 45.5573 151.229 45.5007 151.66 45.41C151.682 45.2967 151.739 45.0473 151.83 44.662C151.943 44.0953 152 43.4947 152 42.86C152 40.9787 151.75 39.6073 151.252 38.746C150.753 37.862 150.152 37.42 149.45 37.42C147.75 37.42 146.9 40.1967 146.9 45.75ZM168.065 54.76C166.796 54.76 165.651 54.4993 164.631 53.978C163.634 53.434 162.852 52.7313 162.285 51.87C161.718 51.0087 161.435 50.102 161.435 49.15V38.27L159.395 37.76V37.25H163.815C165.855 37.25 166.875 38.27 166.875 40.31V49.15C166.875 50.578 167.124 51.6773 167.623 52.448C168.144 53.196 168.745 53.57 169.425 53.57C170.264 53.57 171.023 53.1167 171.703 52.21C171.952 51.87 172.213 51.4167 172.485 50.85V38.27L170.445 37.76V37.25H179.965V37.76L177.925 38.27V54.42H177.585C175.93 54.42 174.672 53.9667 173.811 53.06C173.426 52.652 173.154 52.1987 172.995 51.7C172.678 52.2667 172.304 52.7767 171.873 53.23C170.853 54.25 169.584 54.76 168.065 54.76ZM200.247 54.76C197.346 54.76 195.091 53.9667 193.481 52.38C191.872 50.7707 191.067 48.5607 191.067 45.75C191.067 43.914 191.419 42.316 192.121 40.956C192.824 39.596 193.799 38.5533 195.045 37.828C196.315 37.1027 197.765 36.74 199.397 36.74C201.029 36.74 202.457 37.046 203.681 37.658C204.928 38.27 205.88 39.0973 206.537 40.14C207.217 41.16 207.557 42.2933 207.557 43.54C207.557 44.1067 207.501 44.594 207.387 45.002L207.217 45.58C206.243 45.784 205.189 45.954 204.055 46.09C201.675 46.43 199.273 46.6 196.847 46.6C196.847 49.2293 197.21 51.1107 197.935 52.244C198.661 53.3547 199.658 53.91 200.927 53.91C201.811 53.91 202.627 53.706 203.375 53.298C204.146 52.8673 204.747 52.312 205.177 51.632C205.631 50.9293 205.857 50.2153 205.857 49.49H206.707C206.707 50.3967 206.435 51.258 205.891 52.074C205.347 52.89 204.588 53.5473 203.613 54.046C202.639 54.522 201.517 54.76 200.247 54.76ZM196.847 45.75C198.298 45.75 199.477 45.6933 200.383 45.58C200.769 45.5573 201.177 45.5007 201.607 45.41C201.63 45.2967 201.687 45.0473 201.777 44.662C201.891 44.0953 201.947 43.4947 201.947 42.86C201.947 40.9787 201.698 39.6073 201.199 38.746C200.701 37.862 200.1 37.42 199.397 37.42C197.697 37.42 196.847 40.1967 196.847 45.75ZM227.812 54.76C226.203 54.76 224.696 54.3973 223.29 53.672C222.656 53.3547 222.123 52.9807 221.692 52.55C221.375 53.0713 220.978 53.536 220.502 53.944C220.094 54.2387 219.868 54.3973 219.822 54.42H218.972V47.96H220.332C220.672 49.0707 221.148 50.068 221.76 50.952C223.143 52.924 224.934 53.91 227.132 53.91C228.424 53.91 229.456 53.5247 230.226 52.754C230.997 51.9833 231.382 50.952 231.382 49.66C231.382 48.912 231.156 48.2433 230.702 47.654C230.272 47.0647 229.728 46.5433 229.07 46.09C228.413 45.6367 227.495 45.07 226.316 44.39C224.82 43.5513 223.608 42.792 222.678 42.112C221.749 41.432 220.956 40.582 220.298 39.562C219.641 38.5193 219.312 37.2953 219.312 35.89C219.312 34.7793 219.618 33.782 220.23 32.898C220.865 31.9913 221.806 31.2773 223.052 30.756C224.299 30.212 225.829 29.94 227.642 29.94C228.957 29.94 230.272 30.314 231.586 31.062C232.085 31.334 232.584 31.6967 233.082 32.15C233.468 31.5607 233.864 31.096 234.272 30.756C234.68 30.4613 234.907 30.3027 234.952 30.28H235.802V36.74H234.442C234.148 35.652 233.706 34.666 233.116 33.782C232.572 32.9207 231.892 32.2067 231.076 31.64C230.283 31.0733 229.365 30.79 228.322 30.79C227.438 30.79 226.679 31.1413 226.044 31.844C225.41 32.5467 225.092 33.442 225.092 34.53C225.092 35.3687 225.33 36.128 225.806 36.808C226.305 37.4653 226.906 38.0433 227.608 38.542C228.334 39.0407 229.308 39.6413 230.532 40.344C231.96 41.16 233.116 41.8853 234 42.52C234.884 43.1547 235.632 43.948 236.244 44.9C236.856 45.8293 237.162 46.906 237.162 48.13C237.162 49.354 236.811 50.476 236.108 51.496C235.406 52.4933 234.352 53.2867 232.946 53.876C231.541 54.4653 229.83 54.76 227.812 54.76ZM248.303 54.76C245.402 54.76 243.146 53.9667 241.537 52.38C239.928 50.7707 239.123 48.5607 239.123 45.75C239.123 43.914 239.474 42.316 240.177 40.956C240.88 39.596 241.854 38.5533 243.101 37.828C244.37 37.1027 245.821 36.74 247.453 36.74C249.085 36.74 250.513 37.046 251.737 37.658C252.984 38.27 253.936 39.0973 254.593 40.14C255.273 41.16 255.613 42.2933 255.613 43.54C255.613 44.1067 255.556 44.594 255.443 45.002L255.273 45.58C254.298 45.784 253.244 45.954 252.111 46.09C249.731 46.43 247.328 46.6 244.903 46.6C244.903 49.2293 245.266 51.1107 245.991 52.244C246.716 53.3547 247.714 53.91 248.983 53.91C249.867 53.91 250.683 53.706 251.431 53.298C252.202 52.8673 252.802 52.312 253.233 51.632C253.686 50.9293 253.913 50.2153 253.913 49.49H254.763C254.763 50.3967 254.491 51.258 253.947 52.074C253.403 52.89 252.644 53.5473 251.669 54.046C250.694 54.522 249.572 54.76 248.303 54.76ZM244.903 45.75C246.354 45.75 247.532 45.6933 248.439 45.58C248.824 45.5573 249.232 45.5007 249.663 45.41C249.686 45.2967 249.742 45.0473 249.833 44.662C249.946 44.0953 250.003 43.4947 250.003 42.86C250.003 40.9787 249.754 39.6073 249.255 38.746C248.756 37.862 248.156 37.42 247.453 37.42C245.753 37.42 244.903 40.1967 244.903 45.75ZM266.068 54.76C264.799 54.76 263.654 54.4993 262.634 53.978C261.637 53.434 260.855 52.7313 260.288 51.87C259.722 51.0087 259.438 50.102 259.438 49.15V38.27L257.398 37.76V37.25H261.818C263.858 37.25 264.878 38.27 264.878 40.31V49.15C264.878 50.578 265.128 51.6773 265.626 52.448C266.148 53.196 266.748 53.57 267.428 53.57C268.267 53.57 269.026 53.1167 269.706 52.21C269.956 51.87 270.216 51.4167 270.488 50.85V38.27L268.448 37.76V37.25H277.968V37.76L275.928 38.27V54.42H275.588C273.934 54.42 272.676 53.9667 271.814 53.06C271.429 52.652 271.157 52.1987 270.998 51.7C270.681 52.2667 270.307 52.7767 269.876 53.23C268.856 54.25 267.587 54.76 266.068 54.76ZM280.462 33.85C280.462 32.6713 280.768 31.7307 281.38 31.028C282.014 30.3027 282.785 29.94 283.692 29.94C284.598 29.94 285.358 30.3027 285.97 31.028C286.604 31.7307 286.922 32.6713 286.922 33.85L284.202 46.94H283.182L280.462 33.85ZM283.692 54.59C283.012 54.59 282.411 54.3293 281.89 53.808C281.391 53.264 281.142 52.618 281.142 51.87C281.142 51.122 281.391 50.4873 281.89 49.966C282.411 49.422 283.012 49.15 283.692 49.15C284.372 49.15 284.961 49.422 285.46 49.966C285.981 50.4873 286.242 51.122 286.242 51.87C286.242 52.618 285.981 53.264 285.46 53.808C284.961 54.3293 284.372 54.59 283.692 54.59Z" fill="#FCE1D0"/>
<path d="M0.0530396 57.65H288.962V59.35H0.0530396V57.65Z" fill="#FCE1D0"/>
</svg>
