<?xml version="1.0" encoding="utf-8"?>
<!-- Generator: Adobe Illustrator 24.0.1, SVG Export Plug-In . SVG Version: 6.00 Build 0)  -->
<svg version="1.0" id="Camada_1" xmlns="http://www.w3.org/2000/svg" xmlns:xlink="http://www.w3.org/1999/xlink" x="0px" y="0px"
	 viewBox="0 0 595.28 439.37" style="enable-background:new 0 0 595.28 439.37;" xml:space="preserve">
<style type="text/css">
	.st0{fill-rule:evenodd;clip-rule:evenodd;fill:#6B1415;}
	.st1{fill:#FDE1D1;}
	.st2{fill-rule:evenodd;clip-rule:evenodd;fill:#FFFFFF;}
	.st3{fill:#E5E6E7;}
	.st4{fill:#6B1415;}
	.st5{fill:#501010;}
	.st6{fill:#FFFFFF;}
	.st7{fill:none;stroke:#221F20;stroke-width:0.5726;stroke-miterlimit:10;}
</style>
<rect x="0.23" y="0" class="st0" width="297.52" height="439.37"/>
<rect x="297.75" y="0" class="st0" width="297.3" height="439.37"/>
<g>
	<path class="st1" d="M131.32,56.65v-1.39c-0.79,0-1.42,0.62-1.42,1.39H131.32z M171.15,56.65c0-0.77-0.62-1.39-1.39-1.39
		c-0.79,0-1.42,0.62-1.42,1.39H171.15z M131.83,45.65c-0.79,0-1.42,0.62-1.42,1.39c0,0.79,0.62,1.42,1.42,1.42V45.65z M170.36,47.44
		l0.6-1.28h-0.03L170.36,47.44z M171.66,48.48l1.13-0.82l0,0L171.66,48.48z M171.66,55.21l1.13,0.85v-0.03L171.66,55.21z
		 M170.36,56.28l-0.57-1.28h-0.03L170.36,56.28z M136.11,39.33h-1.39H136.11z M143.85,47.04v1.42V47.04z M159.81,35.04v-1.42V35.04z
		 M157.23,47.04v1.42V47.04z M129.91,56.65v9.61h2.81v-9.61H129.91z M129.91,66.26c0,3.94,0,7.03,0.34,9.41
		c0.31,2.47,1.02,4.4,2.55,5.96l1.96-1.98c-0.91-0.94-1.47-2.18-1.76-4.34s-0.28-5.02-0.28-9.05H129.91z M132.8,81.63
		c1.53,1.53,3.49,2.21,5.92,2.55c2.41,0.31,5.47,0.31,9.41,0.31v-2.81c-4,0-6.86,0-9.04-0.28c-2.13-0.28-3.4-0.82-4.34-1.76
		L132.8,81.63z M148.13,84.5h4.79v-2.81h-4.79V84.5z M152.92,84.5c3.94,0,7.03,0,9.41-0.31c2.47-0.34,4.39-1.02,5.95-2.55
		l-1.98-1.98c-0.94,0.94-2.18,1.47-4.34,1.76c-2.15,0.28-5.02,0.28-9.04,0.28V84.5z M168.29,81.63c1.53-1.56,2.21-3.49,2.55-5.96
		c0.31-2.38,0.31-5.47,0.31-9.41h-2.81c0,4.03,0,6.89-0.28,9.05s-0.82,3.4-1.76,4.34L168.29,81.63z M171.15,66.26v-9.61h-2.81v9.61
		H171.15z M131.83,48.46h34.33v-2.81h-34.33V48.46z M166.16,48.46c1.13,0,1.9,0,2.52,0.03c0.6,0.06,0.88,0.11,1.08,0.23l1.16-2.55
		c-0.62-0.28-1.3-0.4-2.04-0.45c-0.74-0.06-1.64-0.06-2.72-0.06V48.46z M169.76,48.71c0.37,0.14,0.62,0.37,0.79,0.6l2.24-1.64
		c-0.45-0.65-1.11-1.16-1.84-1.5L169.76,48.71z M170.53,49.31c0.06,0.06,0.14,0.2,0.17,0.6c0.06,0.43,0.06,1.02,0.06,1.96h2.81
		c0-0.88,0-1.64-0.09-2.27c-0.06-0.65-0.23-1.3-0.68-1.93L170.53,49.31z M170.75,51.86c0,0.94,0,1.5-0.06,1.96
		c-0.03,0.4-0.11,0.51-0.17,0.6l2.27,1.62c0.45-0.6,0.62-1.25,0.68-1.9c0.09-0.65,0.09-1.42,0.09-2.27H170.75z M170.55,54.38
		c-0.2,0.28-0.48,0.48-0.77,0.62l1.13,2.55c0.74-0.34,1.39-0.85,1.87-1.5L170.55,54.38z M169.76,55.01
		c-0.2,0.09-0.48,0.17-1.08,0.23c-0.62,0.03-1.39,0.03-2.52,0.03v2.81c1.08,0,1.98,0,2.72-0.06c0.74-0.06,1.42-0.17,2.04-0.48
		L169.76,55.01z M166.16,55.26h-34.84v2.81h34.84V55.26z M137.5,39.33c0-1.62,1.3-2.89,2.89-2.89v-2.81c-3.12,0-5.67,2.55-5.67,5.7
		H137.5z M140.39,36.43h0.88v-2.81h-0.88V36.43z M141.27,36.43c2.07,0,4.08,0.82,5.56,2.3l1.98-1.96c-2.01-2.01-4.73-3.15-7.54-3.15
		V36.43z M146.83,38.73c1.47,1.47,2.3,3.49,2.3,5.56h2.81c0-2.81-1.13-5.53-3.12-7.51L146.83,38.73z M149.12,44.29v2.75h2.81v-2.75
		H149.12z M150.54,45.65h-6.69v2.81h6.69V45.65z M143.85,45.65c-1.7,0-3.29-0.65-4.48-1.84l-1.98,1.96c1.7,1.73,4.03,2.69,6.46,2.69
		V45.65z M139.37,43.81c-1.19-1.19-1.87-2.81-1.87-4.48h-2.78c0,2.41,0.96,4.74,2.66,6.44L139.37,43.81z M166.33,39.33
		c0-3.15-2.55-5.7-5.67-5.7v2.81c1.59,0,2.89,1.28,2.89,2.89H166.33z M160.66,33.63h-0.85v2.81h0.85V33.63z M159.81,33.63
		c-2.83,0-5.56,1.13-7.54,3.15l1.96,1.96c1.47-1.47,3.49-2.3,5.58-2.3V33.63z M152.27,36.77c-2.01,1.99-3.15,4.71-3.15,7.51h2.81
		c0-2.07,0.82-4.08,2.3-5.56L152.27,36.77z M150.54,48.46h6.69v-2.81h-6.69V48.46z M157.23,48.46c1.19,0,2.38-0.26,3.49-0.71
		l-1.08-2.58c-0.77,0.31-1.59,0.48-2.41,0.48V48.46z M160.72,47.75c1.11-0.45,2.1-1.13,2.95-1.99l-1.96-1.96
		c-0.6,0.57-1.3,1.05-2.07,1.36L160.72,47.75z M163.67,45.76c0.85-0.85,1.53-1.84,1.98-2.95l-2.58-1.08
		c-0.31,0.77-0.79,1.47-1.36,2.07L163.67,45.76z M165.65,42.81c0.45-1.11,0.68-2.3,0.68-3.49h-2.78c0,0.82-0.17,1.64-0.48,2.41
		L165.65,42.81z"/>
	<path class="st1" d="M170.21,71.45c0.54-0.57,0.54-1.45-0.03-1.99l-8.82-8.51c-0.54-0.54-1.42-0.51-1.96,0.03l0,0
		c-0.54,0.57-0.54,1.45,0.03,1.99l8.82,8.51C168.8,72.02,169.7,71.99,170.21,71.45L170.21,71.45z"/>
	<path class="st1" d="M138.01,83.22c0.54,0.54,1.42,0.57,1.96,0.03l21.06-20.36c0.57-0.51,0.57-1.42,0.06-1.96l0,0
		c-0.54-0.57-1.45-0.57-1.98-0.03l-21.06,20.33C137.5,81.78,137.47,82.66,138.01,83.22L138.01,83.22z"/>
	<path class="st1" d="M131.04,73.44c0.54,0.57,1.42,0.57,1.98,0.03l11.34-10.97c0.57-0.51,0.57-1.42,0.06-1.96l0,0
		c-0.54-0.57-1.42-0.57-1.98-0.03l-11.37,10.97C130.53,72.02,130.5,72.9,131.04,73.44L131.04,73.44z"/>
	<path class="st1" d="M142.69,60.51c-0.54,0.54-0.57,1.42-0.03,1.96l19.84,20.56c0.54,0.57,1.42,0.57,1.98,0.06l0,0
		c0.54-0.54,0.57-1.45,0.03-1.99l-19.84-20.56C144.14,59.97,143.26,59.97,142.69,60.51L142.69,60.51z"/>
	<path class="st1" d="M131.35,94.23v8.31l1.25,0.48v0.23h-2.98v-0.23l1.25-0.48v-9.78l-0.94-0.26v-0.23h1.96
		c0.54,0,0.96,0.11,1.28,0.34c0.34,0.23,0.62,0.54,0.85,0.99l3.4,6.55l2.64-6.55c0.17-0.45,0.43-0.79,0.71-0.99
		c0.31-0.23,0.77-0.34,1.42-0.34h1.64v0.23l-0.94,0.26v10.04l0.94,0.23v0.23h-4.48v-0.23l0.94-0.23v-8.56l-3.69,9.19h-0.45
		L131.35,94.23z M143.99,103.24 M144.62,103.02l0.94-0.23v-6.92l-0.94-0.23v-0.23h2.04c0.94,0,1.39,0.45,1.39,1.39v5.98l0.96,0.23
		v0.23h-4.39V103.02z M146.66,94.45c-0.31,0-0.6-0.08-0.79-0.31c-0.2-0.2-0.31-0.45-0.31-0.77c0-0.31,0.11-0.6,0.31-0.79
		c0.2-0.2,0.48-0.31,0.79-0.31s0.57,0.11,0.77,0.31c0.23,0.2,0.31,0.48,0.31,0.79c0,0.31-0.09,0.57-0.31,0.77
		C147.23,94.37,146.97,94.45,146.66,94.45L146.66,94.45z M148.67,103.24 M149.32,103.02l0.94-0.23v-6.92l-0.94-0.23v-0.23h1.39
		c0.62,0,1.11,0.2,1.47,0.6c0.14,0.14,0.26,0.34,0.34,0.57c0.17-0.28,0.34-0.54,0.51-0.71c0.45-0.45,0.99-0.71,1.62-0.71
		c0.6,0,1.13,0.14,1.59,0.43c0.48,0.26,0.82,0.62,1.08,1.08c0.14-0.31,0.31-0.54,0.51-0.74c0.48-0.51,1.02-0.77,1.62-0.77
		c0.54,0,1.05,0.11,1.47,0.34c0.45,0.26,0.79,0.57,1.05,0.96c0.26,0.4,0.37,0.82,0.37,1.3v5.02l0.94,0.23v0.23h-2.04
		c-0.94,0-1.39-0.45-1.39-1.39v-4.08c0-0.68-0.11-1.19-0.34-1.53c-0.2-0.34-0.43-0.51-0.68-0.51c-0.31,0-0.62,0.2-0.94,0.62
		c-0.14,0.2-0.23,0.4-0.34,0.62v5.81l0.94,0.23v0.23h-4.39v-0.23l0.96-0.23v-5.02c0-0.68-0.11-1.19-0.31-1.53
		c-0.23-0.34-0.45-0.51-0.71-0.51c-0.31,0-0.62,0.2-0.94,0.62c-0.11,0.2-0.23,0.4-0.34,0.62v5.81l0.96,0.23v0.23h-4.39V103.02z
		 M162.96,103.24 M167.75,103.5c-1.3,0-2.32-0.37-3.06-1.11c-0.74-0.74-1.08-1.76-1.08-3.06c0-1.3,0.34-2.33,1.08-3.03
		c0.74-0.77,1.76-1.13,3.06-1.13s2.32,0.37,3.06,1.13c0.74,0.71,1.11,1.73,1.11,3.03c0,1.3-0.37,2.33-1.11,3.06
		C170.07,103.13,169.05,103.5,167.75,103.5L167.75,103.5z M167.75,103.19c0.43,0,0.77-0.31,1.05-0.88c0.31-0.6,0.45-1.59,0.45-2.98
		s-0.14-2.38-0.45-2.98c-0.28-0.57-0.62-0.88-1.05-0.88s-0.77,0.31-1.05,0.88c-0.28,0.6-0.43,1.59-0.43,2.98s0.14,2.38,0.43,2.98
		C166.98,102.87,167.32,103.19,167.75,103.19L167.75,103.19z M113.15,116.74 M113.78,116.51l0.94-0.26v-6.89l-0.94-0.23v-0.26h1.42
		c0.6,0,1.11,0.2,1.45,0.6c0.14,0.17,0.26,0.37,0.34,0.6c0.17-0.31,0.34-0.54,0.51-0.71c0.48-0.48,1.02-0.71,1.62-0.71
		c0.6,0,1.13,0.14,1.62,0.4c0.45,0.28,0.79,0.62,1.05,1.11c0.17-0.31,0.34-0.57,0.51-0.74c0.48-0.51,1.02-0.77,1.62-0.77
		c0.54,0,1.05,0.11,1.5,0.34c0.43,0.23,0.79,0.54,1.02,0.94c0.26,0.4,0.37,0.85,0.37,1.3v5.02l0.96,0.26v0.23h-2.04
		c-0.96,0-1.42-0.48-1.42-1.42v-4.08c0-0.68-0.11-1.19-0.31-1.5c-0.23-0.37-0.45-0.54-0.71-0.54c-0.31,0-0.62,0.23-0.94,0.65
		c-0.11,0.2-0.23,0.4-0.34,0.62v5.78l0.96,0.26v0.23h-4.39v-0.23l0.94-0.26v-5.02c0-0.68-0.11-1.19-0.31-1.5
		c-0.23-0.37-0.45-0.54-0.71-0.54c-0.31,0-0.62,0.23-0.94,0.65c-0.11,0.2-0.23,0.4-0.31,0.62v5.78l0.94,0.26v0.23h-4.39V116.51z
		 M127.44,116.74 M132.29,116.97c-1.33,0-2.38-0.37-3.12-1.08c-0.74-0.77-1.11-1.79-1.11-3.06c0-0.85,0.14-1.59,0.48-2.21
		c0.31-0.62,0.77-1.11,1.36-1.45c0.57-0.34,1.25-0.51,1.98-0.51c0.77,0,1.42,0.14,1.98,0.43c0.57,0.28,1.02,0.65,1.33,1.13
		s0.45,0.99,0.45,1.59c0,0.26-0.03,0.48-0.09,0.68l-0.06,0.26c-0.45,0.09-0.94,0.17-1.47,0.23c-1.11,0.17-2.21,0.26-3.32,0.26
		c0,1.19,0.17,2.07,0.51,2.58c0.31,0.54,0.79,0.79,1.36,0.79c0.43,0,0.79-0.11,1.13-0.28c0.37-0.2,0.62-0.45,0.82-0.79
		c0.23-0.31,0.34-0.65,0.34-0.96h0.37c0,0.4-0.11,0.79-0.37,1.19c-0.26,0.37-0.6,0.68-1.05,0.91
		C133.39,116.88,132.88,116.97,132.29,116.97L132.29,116.97z M130.73,112.83c0.65,0,1.22-0.03,1.62-0.09c0.2,0,0.37-0.03,0.57-0.08
		c0.03-0.06,0.06-0.17,0.09-0.34c0.06-0.26,0.09-0.54,0.09-0.82c0-0.88-0.11-1.5-0.34-1.9c-0.23-0.43-0.51-0.62-0.85-0.62
		C131.12,108.97,130.73,110.25,130.73,112.83L130.73,112.83z M135.57,116.74 M139.97,116.97c-0.57,0-1.11-0.11-1.59-0.34
		c-0.45-0.26-0.82-0.6-1.08-0.99c-0.26-0.4-0.4-0.79-0.4-1.25v-5.02l-0.94-0.23v-0.26h2.04c0.94,0,1.42,0.48,1.42,1.42v4.08
		c0,0.65,0.11,1.16,0.34,1.53c0.26,0.34,0.51,0.51,0.82,0.51c0.4,0,0.74-0.2,1.05-0.62c0.14-0.17,0.26-0.37,0.37-0.62v-5.81
		l-0.94-0.23v-0.26h4.39v0.26l-0.94,0.23v7.46h-0.17c-0.77,0-1.33-0.23-1.73-0.62c-0.17-0.2-0.31-0.4-0.4-0.62
		c-0.14,0.26-0.31,0.48-0.51,0.68C141.27,116.74,140.68,116.97,139.97,116.97L139.97,116.97z M148.93,116.74 M153.8,116.97
		c-1.33,0-2.38-0.37-3.12-1.08c-0.77-0.77-1.13-1.79-1.13-3.06c0-0.85,0.17-1.59,0.48-2.21c0.34-0.62,0.79-1.11,1.36-1.45
		c0.6-0.34,1.25-0.51,2.01-0.51c0.74,0,1.42,0.14,1.98,0.43c0.57,0.28,0.99,0.65,1.3,1.13s0.48,0.99,0.48,1.59
		c0,0.26-0.03,0.48-0.09,0.68l-0.09,0.26c-0.45,0.09-0.94,0.17-1.45,0.23c-1.11,0.17-2.21,0.26-3.34,0.26
		c0,1.19,0.17,2.07,0.51,2.58c0.34,0.54,0.79,0.79,1.39,0.79c0.4,0,0.79-0.11,1.13-0.28c0.34-0.2,0.62-0.45,0.82-0.79
		c0.2-0.31,0.31-0.65,0.31-0.96h0.4c0,0.4-0.11,0.79-0.37,1.19c-0.26,0.37-0.62,0.68-1.05,0.91
		C154.91,116.88,154.37,116.97,153.8,116.97L153.8,116.97z M152.21,112.83c0.68,0,1.22-0.03,1.64-0.09c0.17,0,0.37-0.03,0.57-0.08
		c0-0.06,0.03-0.17,0.09-0.34c0.06-0.26,0.06-0.54,0.06-0.82c0-0.88-0.11-1.5-0.34-1.9c-0.23-0.43-0.51-0.62-0.82-0.62
		C152.61,108.97,152.21,110.25,152.21,112.83L152.21,112.83z M160.86,116.74 M165.48,116.97c-0.74,0-1.45-0.17-2.1-0.48
		c-0.28-0.14-0.54-0.34-0.74-0.54c-0.14,0.26-0.31,0.45-0.54,0.65c-0.2,0.14-0.28,0.2-0.31,0.23h-0.4v-2.98h0.62
		c0.17,0.51,0.4,0.96,0.68,1.36c0.62,0.94,1.45,1.39,2.47,1.39c0.6,0,1.08-0.2,1.42-0.54c0.37-0.37,0.54-0.85,0.54-1.45
		c0-0.34-0.09-0.65-0.31-0.91c-0.2-0.28-0.45-0.51-0.74-0.74c-0.31-0.2-0.74-0.45-1.28-0.77c-0.71-0.4-1.25-0.74-1.7-1.08
		c-0.43-0.31-0.79-0.68-1.08-1.16c-0.31-0.48-0.45-1.05-0.45-1.7c0-0.51,0.14-0.96,0.43-1.39c0.28-0.4,0.71-0.74,1.3-0.96
		c0.57-0.26,1.28-0.4,2.1-0.4c0.62,0,1.22,0.17,1.84,0.54c0.23,0.11,0.45,0.28,0.68,0.48c0.17-0.26,0.37-0.48,0.54-0.62
		c0.2-0.14,0.31-0.23,0.31-0.23h0.4v2.98h-0.62c-0.14-0.51-0.34-0.96-0.62-1.36c-0.23-0.4-0.54-0.74-0.94-0.99
		c-0.37-0.26-0.79-0.4-1.28-0.4c-0.4,0-0.74,0.17-1.05,0.48c-0.28,0.34-0.43,0.74-0.43,1.25c0,0.4,0.11,0.74,0.31,1.05
		c0.26,0.31,0.51,0.57,0.85,0.79c0.34,0.23,0.77,0.51,1.33,0.85c0.68,0.37,1.19,0.71,1.62,0.99c0.4,0.28,0.74,0.65,1.02,1.11
		c0.28,0.43,0.43,0.94,0.43,1.47c0,0.57-0.14,1.11-0.48,1.56c-0.31,0.45-0.79,0.82-1.45,1.11
		C167.21,116.85,166.42,116.97,165.48,116.97L165.48,116.97z M169.56,116.74 M174.41,116.97c-1.33,0-2.35-0.37-3.12-1.08
		c-0.74-0.77-1.11-1.79-1.11-3.06c0-0.85,0.17-1.59,0.48-2.21c0.34-0.62,0.77-1.11,1.36-1.45c0.57-0.34,1.25-0.51,2.01-0.51
		c0.74,0,1.39,0.14,1.96,0.43c0.6,0.28,1.02,0.65,1.33,1.13s0.45,0.99,0.45,1.59c0,0.26,0,0.48-0.06,0.68l-0.09,0.26
		c-0.45,0.09-0.94,0.17-1.47,0.23c-1.08,0.17-2.18,0.26-3.32,0.26c0,1.19,0.17,2.07,0.51,2.58c0.34,0.54,0.79,0.79,1.39,0.79
		c0.4,0,0.77-0.11,1.11-0.28c0.37-0.2,0.65-0.45,0.85-0.79c0.2-0.31,0.31-0.65,0.31-0.96h0.4c0,0.4-0.14,0.79-0.4,1.19
		c-0.23,0.37-0.6,0.68-1.05,0.91S175,116.97,174.41,116.97L174.41,116.97z M172.85,112.83c0.68,0,1.22-0.03,1.64-0.09
		c0.17,0,0.37-0.03,0.57-0.08c0-0.06,0.03-0.17,0.06-0.34c0.06-0.26,0.09-0.54,0.09-0.82c0-0.88-0.11-1.5-0.34-1.9
		c-0.23-0.43-0.51-0.62-0.82-0.62C173.25,108.97,172.85,110.25,172.85,112.83L172.85,112.83z M177.7,116.74 M182.09,116.97
		c-0.57,0-1.11-0.11-1.56-0.34c-0.48-0.26-0.82-0.6-1.11-0.99c-0.26-0.4-0.37-0.79-0.37-1.25v-5.02l-0.96-0.23v-0.26h2.04
		c0.96,0,1.42,0.48,1.42,1.42v4.08c0,0.65,0.11,1.16,0.34,1.53c0.26,0.34,0.54,0.51,0.85,0.51c0.37,0,0.74-0.2,1.05-0.62
		c0.11-0.17,0.23-0.37,0.34-0.62v-5.81l-0.94-0.23v-0.26h4.39v0.26l-0.94,0.23v7.46h-0.17c-0.74,0-1.33-0.23-1.73-0.62
		c-0.17-0.2-0.31-0.4-0.37-0.62c-0.14,0.26-0.31,0.48-0.54,0.68C183.4,116.74,182.8,116.97,182.09,116.97L182.09,116.97z"/>
</g>
<path class="st2" d="M31.39,202.53h242.25v214.02c-0.07,2.34-1.51,3.45-4.06,3.51H27V205.98C27.07,203.61,28.59,202.5,31.39,202.53
	L31.39,202.53z"/>
<path class="st3" d="M86.59,153.42h1.47V142.3h-1.47v-0.57h6.32c1.73,0,3.03,0.26,3.86,0.79c0.85,0.51,1.28,1.28,1.28,2.35
	c0,1.11-0.45,1.96-1.3,2.5c-0.88,0.57-2.18,0.85-3.91,0.85h-1.64v5.19h1.73v0.6h-6.32V153.42z M91.18,142.3v5.42h1.7
	c0.71,0,1.16-0.14,1.39-0.43c0.23-0.31,0.34-1.08,0.34-2.38c0-1.16-0.11-1.87-0.34-2.16c-0.23-0.31-0.71-0.45-1.47-0.45H91.18z
	 M102.38,152.91c-0.37,0.45-0.79,0.79-1.22,0.99c-0.45,0.2-0.99,0.31-1.62,0.31c-0.62,0-1.11-0.17-1.45-0.48
	c-0.37-0.34-0.54-0.79-0.54-1.36c0-0.82,0.43-1.45,1.3-1.93c0.85-0.48,1.98-0.71,3.46-0.71v-1.79c0-0.43-0.09-0.68-0.26-0.82
	c-0.17-0.14-0.51-0.2-0.99-0.2c-0.34,0-0.57,0.03-0.74,0.11c-0.17,0.06-0.23,0.17-0.23,0.31c0,0.03,0.06,0.17,0.17,0.37
	c0.11,0.2,0.17,0.4,0.17,0.62c0,0.34-0.11,0.62-0.34,0.82c-0.23,0.2-0.54,0.28-0.94,0.28c-0.37,0-0.62-0.08-0.82-0.28
	s-0.28-0.51-0.28-0.88c0-0.6,0.28-1.05,0.91-1.36c0.6-0.34,1.47-0.51,2.58-0.51c0.48,0,0.94,0.06,1.33,0.11
	c0.4,0.09,0.74,0.17,0.99,0.31c0.28,0.14,0.48,0.34,0.6,0.54c0.11,0.23,0.17,0.62,0.17,1.19v3.8c0,0.23,0.06,0.4,0.14,0.48
	c0.09,0.11,0.26,0.17,0.45,0.17c0.09,0,0.17-0.03,0.26-0.09c0.11-0.06,0.17-0.09,0.2-0.09c0.06,0,0.11,0,0.14,0.06
	c0.03,0.03,0.06,0.09,0.06,0.14c0,0.23-0.17,0.48-0.54,0.74c-0.37,0.28-0.77,0.43-1.25,0.43c-0.4,0-0.77-0.11-1.08-0.34
	C102.75,153.64,102.52,153.3,102.38,152.91L102.38,152.91z M102.32,150.24h-0.23c-0.77,0-1.28,0.11-1.59,0.31
	c-0.31,0.23-0.45,0.6-0.45,1.11c0,0.54,0.06,0.94,0.23,1.16c0.17,0.23,0.43,0.34,0.79,0.34c0.37,0,0.68-0.11,0.91-0.37
	s0.34-0.57,0.34-0.96V150.24z M106.18,153.44h1.11V142.3h-1.22v-0.57c0.68,0,1.33-0.03,1.96-0.09c0.65-0.03,1.28-0.09,1.84-0.14
	v11.94h1.19v0.57h-4.88V153.44z M116.86,152.91c-0.4,0.45-0.79,0.79-1.25,0.99c-0.45,0.2-0.96,0.31-1.59,0.31
	c-0.65,0-1.13-0.17-1.47-0.48c-0.34-0.34-0.51-0.79-0.51-1.36c0-0.82,0.43-1.45,1.28-1.93s2.01-0.71,3.49-0.71v-1.79
	c0-0.43-0.11-0.68-0.28-0.82c-0.17-0.14-0.51-0.2-0.99-0.2c-0.31,0-0.57,0.03-0.71,0.11c-0.17,0.06-0.26,0.17-0.26,0.31
	c0,0.03,0.06,0.17,0.17,0.37c0.11,0.2,0.17,0.4,0.17,0.62c0,0.34-0.11,0.62-0.34,0.82c-0.2,0.2-0.51,0.28-0.91,0.28
	c-0.37,0-0.65-0.08-0.85-0.28c-0.17-0.2-0.28-0.51-0.28-0.88c0-0.6,0.31-1.05,0.91-1.36c0.62-0.34,1.47-0.51,2.58-0.51
	c0.51,0,0.94,0.06,1.33,0.11c0.43,0.09,0.74,0.17,0.99,0.31c0.28,0.14,0.48,0.34,0.6,0.54c0.11,0.23,0.17,0.62,0.17,1.19v3.8
	c0,0.23,0.06,0.4,0.14,0.48c0.11,0.11,0.26,0.17,0.45,0.17c0.09,0,0.17-0.03,0.28-0.09c0.09-0.06,0.17-0.09,0.2-0.09
	c0.06,0,0.09,0,0.11,0.06c0.06,0.03,0.06,0.09,0.06,0.14c0,0.23-0.17,0.48-0.54,0.74c-0.34,0.28-0.77,0.43-1.22,0.43
	c-0.43,0-0.77-0.11-1.08-0.34C117.2,153.64,116.98,153.3,116.86,152.91L116.86,152.91z M116.81,150.24h-0.23
	c-0.77,0-1.3,0.11-1.62,0.31c-0.31,0.23-0.45,0.6-0.45,1.11c0,0.54,0.09,0.94,0.26,1.16c0.14,0.23,0.43,0.34,0.79,0.34
	s0.65-0.11,0.88-0.37s0.37-0.57,0.37-0.96V150.24z M124.8,154.27l-3.43-7.06h-0.79v-0.57h4.54v0.57h-0.94l1.84,4.14l1.47-3.43
	c0.06-0.08,0.09-0.14,0.09-0.2c0.03-0.09,0.03-0.14,0.03-0.2c0-0.09-0.03-0.17-0.11-0.23c-0.09-0.06-0.23-0.08-0.4-0.08h-0.79v-0.57
	h3.03v0.57h-0.51c-0.17,0-0.28,0.06-0.4,0.14c-0.09,0.06-0.17,0.2-0.28,0.4l-2.83,6.52H124.8z M130.3,154.01v-0.57h1.02v-6.24h-1.02
	v-0.57c0.6,0,1.19-0.03,1.79-0.09c0.6-0.03,1.16-0.08,1.76-0.14v2.04c0.26-0.65,0.6-1.13,0.99-1.5c0.43-0.34,0.85-0.54,1.33-0.54
	c0.45,0,0.85,0.17,1.16,0.45c0.31,0.31,0.48,0.68,0.48,1.13c0,0.4-0.14,0.71-0.4,0.96s-0.57,0.4-0.96,0.4
	c-0.34,0-0.62-0.14-0.85-0.37c-0.23-0.26-0.34-0.57-0.34-0.91c0-0.14,0.03-0.28,0.11-0.43c0.06-0.14,0.11-0.23,0.11-0.28
	c0-0.03-0.03-0.06-0.06-0.06c-0.03-0.03-0.06-0.06-0.11-0.06c-0.26,0-0.57,0.31-0.91,0.94c-0.34,0.6-0.51,1.25-0.51,1.9v3.35h1.36
	v0.57H130.3z M143.71,152.91c-0.37,0.45-0.79,0.79-1.25,0.99c-0.43,0.2-0.96,0.31-1.59,0.31s-1.11-0.17-1.47-0.48
	c-0.34-0.34-0.51-0.79-0.51-1.36c0-0.82,0.43-1.45,1.28-1.93c0.85-0.48,2.01-0.71,3.49-0.71v-1.79c0-0.43-0.09-0.68-0.26-0.82
	c-0.2-0.14-0.51-0.2-1.02-0.2c-0.31,0-0.54,0.03-0.71,0.11c-0.17,0.06-0.26,0.17-0.26,0.31c0,0.03,0.06,0.17,0.17,0.37
	c0.11,0.2,0.17,0.4,0.17,0.62c0,0.34-0.11,0.62-0.31,0.82c-0.23,0.2-0.54,0.28-0.94,0.28c-0.37,0-0.62-0.08-0.82-0.28
	s-0.31-0.51-0.31-0.88c0-0.6,0.31-1.05,0.94-1.36c0.6-0.34,1.45-0.51,2.58-0.51c0.48,0,0.94,0.06,1.33,0.11
	c0.4,0.09,0.71,0.17,0.96,0.31c0.31,0.14,0.51,0.34,0.62,0.54c0.11,0.23,0.17,0.62,0.17,1.19v3.8c0,0.23,0.03,0.4,0.14,0.48
	c0.09,0.11,0.23,0.17,0.45,0.17c0.09,0,0.17-0.03,0.26-0.09c0.11-0.06,0.17-0.09,0.2-0.09c0.06,0,0.09,0,0.14,0.06
	c0.03,0.03,0.06,0.09,0.06,0.14c0,0.23-0.2,0.48-0.54,0.74c-0.37,0.28-0.77,0.43-1.25,0.43c-0.4,0-0.77-0.11-1.08-0.34
	C144.05,153.64,143.85,153.3,143.71,152.91L143.71,152.91z M143.65,150.24h-0.23c-0.77,0-1.3,0.11-1.59,0.31
	c-0.31,0.23-0.48,0.6-0.48,1.11c0,0.54,0.09,0.94,0.26,1.16c0.17,0.23,0.43,0.34,0.79,0.34c0.37,0,0.68-0.11,0.91-0.37
	c0.23-0.26,0.34-0.57,0.34-0.96V150.24z M148.16,154.01v-2.75h0.48c0.2,0.82,0.54,1.45,0.99,1.84c0.45,0.43,1.02,0.62,1.7,0.62
	c0.51,0,0.96-0.14,1.28-0.4c0.34-0.23,0.51-0.57,0.51-0.94c0-0.48-0.54-0.79-1.64-0.94c-0.31-0.03-0.57-0.06-0.74-0.09
	c-0.96-0.14-1.64-0.4-2.04-0.74c-0.37-0.37-0.57-0.88-0.57-1.56c0-0.82,0.23-1.47,0.71-1.93c0.48-0.48,1.13-0.74,1.96-0.74
	c0.31,0,0.6,0.06,0.91,0.11c0.31,0.09,0.6,0.2,0.88,0.34l0.4-0.34h0.37l0.06,2.1h-0.48c-0.17-0.6-0.45-1.02-0.82-1.3
	c-0.34-0.28-0.79-0.45-1.3-0.45c-0.48,0-0.91,0.11-1.22,0.31c-0.34,0.2-0.48,0.43-0.48,0.71c0,0.4,0.62,0.68,1.9,0.85
	c0.2,0.03,0.37,0.06,0.48,0.06c0.99,0.14,1.67,0.4,2.07,0.77c0.4,0.4,0.6,0.99,0.6,1.81c0,0.88-0.26,1.59-0.77,2.1
	c-0.51,0.48-1.22,0.74-2.1,0.74c-0.43,0-0.82-0.06-1.19-0.14c-0.34-0.11-0.68-0.26-0.94-0.48l-0.54,0.43H148.16z M166.95,151.03
	v-1.39c0-0.82-0.2-1.47-0.6-1.96c-0.37-0.48-0.88-0.71-1.5-0.71c-0.34,0-0.6,0.09-0.74,0.28c-0.11,0.17-0.2,0.54-0.2,1.08v3.94
	c0,0.57,0.09,0.94,0.23,1.13c0.11,0.2,0.37,0.28,0.71,0.28c0.62,0,1.13-0.23,1.5-0.71C166.75,152.51,166.95,151.86,166.95,151.03
	L166.95,151.03z M166.95,154.01v-1.16c-0.28,0.45-0.62,0.79-1.05,1.05c-0.4,0.23-0.85,0.34-1.39,0.34c-0.99,0-1.81-0.37-2.47-1.11
	c-0.68-0.77-1.02-1.67-1.02-2.78c0-1.13,0.34-2.07,0.99-2.81c0.65-0.74,1.5-1.13,2.49-1.13c0.54,0,0.99,0.14,1.39,0.37
	c0.43,0.23,0.77,0.6,1.05,1.05v-5.53h-1.47l0.03-0.57c0.77,0,1.5-0.03,2.18-0.09c0.65-0.03,1.28-0.09,1.81-0.14v11.94h1.02v0.57
	H166.95z M172,143.46c0-0.37,0.14-0.68,0.4-0.94c0.26-0.26,0.57-0.4,0.94-0.4c0.34,0,0.65,0.14,0.91,0.4s0.37,0.57,0.37,0.94
	c0,0.37-0.11,0.68-0.37,0.94c-0.26,0.26-0.57,0.4-0.94,0.4c-0.34,0-0.65-0.14-0.91-0.4C172.14,144.14,172,143.83,172,143.46
	L172,143.46z M170.95,154.01v-0.57h1.11v-6.24h-1.22v-0.57c0.68,0,1.36-0.03,1.98-0.09c0.62-0.03,1.25-0.08,1.84-0.14v7.03h1.16
	v0.57H170.95z M176.45,154.01v-0.4l4.14-6.41h-1.28c-0.45,0-0.79,0.17-1.08,0.48c-0.31,0.31-0.62,0.94-0.96,1.84h-0.48l0.09-2.89
	h6.6v0.45l-4.14,6.35h1.28c0.54,0,0.96-0.17,1.3-0.54c0.37-0.37,0.71-1.05,1.11-2.04h0.51l-0.14,3.15H176.45z M187.87,149.45h2.49
	V148c0-0.4-0.11-0.68-0.31-0.85s-0.51-0.28-0.94-0.28c-0.43,0-0.74,0.11-0.94,0.28c-0.2,0.2-0.31,0.48-0.31,0.85V149.45z
	 M192.46,151.52l0.45,0.14c-0.34,0.88-0.79,1.5-1.39,1.93s-1.39,0.62-2.32,0.62c-1.33,0-2.38-0.34-3.15-1.02
	c-0.79-0.71-1.16-1.64-1.16-2.78c0-1.13,0.4-2.1,1.19-2.86c0.82-0.74,1.84-1.13,3.06-1.13c1.13,0,2.04,0.31,2.69,0.96
	c0.65,0.6,0.96,1.47,0.96,2.55v0.08h-4.93v1.84c0,0.74,0.11,1.22,0.34,1.47c0.23,0.28,0.6,0.43,1.16,0.43c0.77,0,1.39-0.2,1.9-0.57
	C191.81,152.82,192.18,152.25,192.46,151.52L192.46,151.52z M193.97,153.44h1.02v-6.24h-1.16v-0.57c0.57,0,1.16-0.03,1.79-0.06
	c0.6-0.03,1.25-0.06,1.9-0.11v1.87c0.34-0.65,0.77-1.13,1.25-1.42c0.45-0.31,1.05-0.45,1.7-0.45c0.68,0,1.22,0.14,1.59,0.45
	c0.34,0.31,0.54,0.77,0.57,1.36c0.34-0.62,0.77-1.08,1.22-1.39c0.48-0.28,1.08-0.43,1.73-0.43c0.43,0,0.79,0.06,1.11,0.17
	c0.31,0.11,0.57,0.28,0.74,0.54c0.14,0.11,0.2,0.28,0.26,0.48c0.06,0.2,0.09,0.48,0.09,0.85v0.54v4.4h1.13v0.57h-4.68v-0.57h0.99
	v-5.19c0-0.34-0.06-0.6-0.17-0.77c-0.14-0.14-0.34-0.23-0.6-0.23c-0.48,0-0.91,0.28-1.28,0.82c-0.37,0.54-0.57,1.13-0.57,1.84v3.52
	h0.94v0.57h-4.39v-0.57h0.96v-5.19c0-0.34-0.06-0.6-0.17-0.77c-0.11-0.14-0.31-0.23-0.6-0.23c-0.45,0-0.88,0.28-1.25,0.82
	c-0.37,0.54-0.54,1.16-0.54,1.84v3.52h0.91v0.57h-4.48V153.44z M210.35,152.71c0-0.43,0.17-0.77,0.45-1.08
	c0.31-0.28,0.65-0.43,1.08-0.43c0.4,0,0.77,0.14,1.05,0.43c0.28,0.31,0.43,0.65,0.43,1.08c0,0.43-0.14,0.77-0.43,1.05
	c-0.28,0.31-0.65,0.45-1.05,0.45c-0.43,0-0.77-0.14-1.08-0.45C210.52,153.47,210.35,153.13,210.35,152.71L210.35,152.71z
	 M83.22,172.25h3.32l-1.62-4.28L83.22,172.25z M79.96,176.33v-0.6h0.74c0.23,0,0.4-0.09,0.51-0.2c0.14-0.14,0.28-0.4,0.43-0.74
	l4.22-10.97h0.71l4.62,11.91h1.08v0.6h-5.92v-0.6h1.47l-1.08-2.86h-3.71l-0.82,2.1c-0.03,0.03-0.03,0.09-0.03,0.17
	c-0.03,0.06-0.03,0.14-0.03,0.26s0.06,0.2,0.14,0.26s0.23,0.09,0.4,0.09h1.11v0.6H79.96z M93.11,174.66v-5.13h-1.08v-0.57h1.08
	v-2.33c0.11,0.03,0.26,0.06,0.4,0.06c0.17,0,0.4,0.03,0.68,0.03c0.28,0,0.54-0.03,0.77-0.03c0.23-0.03,0.45-0.03,0.68-0.06v2.33h1.5
	v0.57h-1.5v5.13c0,0.31,0.06,0.54,0.14,0.65c0.09,0.11,0.23,0.17,0.48,0.17c0.23,0,0.43-0.09,0.57-0.28
	c0.14-0.2,0.23-0.45,0.26-0.79h0.51c-0.03,0.65-0.28,1.16-0.77,1.53c-0.48,0.4-1.11,0.6-1.84,0.6c-0.71,0-1.22-0.11-1.47-0.37
	C93.25,175.93,93.11,175.42,93.11,174.66L93.11,174.66z M99.17,165.78c0-0.37,0.14-0.68,0.4-0.94c0.26-0.26,0.57-0.4,0.94-0.4
	c0.34,0,0.65,0.14,0.91,0.4c0.26,0.26,0.37,0.57,0.37,0.94c0,0.37-0.11,0.68-0.37,0.94c-0.26,0.26-0.57,0.4-0.94,0.4
	c-0.34,0-0.65-0.14-0.91-0.4S99.17,166.15,99.17,165.78L99.17,165.78z M98.13,176.33v-0.57h1.11v-6.21h-1.22v-0.57
	c0.68-0.03,1.36-0.06,1.98-0.08c0.62-0.06,1.25-0.09,1.84-0.14v7H103v0.57H98.13z M104.53,174.66v-5.13h-1.08v-0.57h1.08v-2.33
	c0.11,0.03,0.26,0.06,0.4,0.06c0.14,0,0.37,0.03,0.68,0.03c0.26,0,0.51-0.03,0.77-0.03c0.23-0.03,0.45-0.03,0.68-0.06v2.33h1.5v0.57
	h-1.5v5.13c0,0.31,0.03,0.54,0.11,0.65c0.09,0.11,0.26,0.17,0.48,0.17c0.23,0,0.43-0.09,0.57-0.28c0.17-0.2,0.26-0.45,0.28-0.79
	h0.51c-0.03,0.65-0.31,1.16-0.77,1.53c-0.48,0.4-1.11,0.6-1.87,0.6c-0.71,0-1.19-0.11-1.47-0.37
	C104.65,175.93,104.53,175.42,104.53,174.66L104.53,174.66z M118.34,168.76v7h1.22v0.54c-0.6,0-1.19,0.03-1.81,0.06
	c-0.62,0.03-1.28,0.06-1.98,0.11v-1.87c-0.37,0.68-0.79,1.16-1.28,1.47c-0.48,0.28-1.05,0.45-1.7,0.45c-0.43,0-0.79-0.06-1.13-0.2
	c-0.31-0.11-0.57-0.28-0.74-0.51c-0.11-0.14-0.2-0.34-0.26-0.54c-0.03-0.23-0.06-0.51-0.06-0.91v-0.79v-4.08h-1.22v-0.57
	c0.71,0,1.39-0.03,2.01-0.06c0.62-0.03,1.22-0.09,1.76-0.11v5.93c0,0.37,0.06,0.6,0.17,0.77c0.14,0.17,0.34,0.26,0.6,0.26
	c0.45,0,0.88-0.28,1.25-0.85c0.4-0.54,0.6-1.16,0.6-1.84v-3.52h-1.36v-0.57c0.6,0,1.19-0.03,1.84-0.06
	C116.86,168.84,117.57,168.81,118.34,168.76L118.34,168.76z M126.33,173.35v-1.39c0-0.82-0.2-1.47-0.6-1.96
	c-0.37-0.48-0.88-0.71-1.5-0.71c-0.34,0-0.6,0.09-0.74,0.28c-0.11,0.17-0.2,0.54-0.2,1.11v3.91c0,0.57,0.09,0.94,0.23,1.13
	c0.11,0.2,0.37,0.28,0.71,0.28c0.62,0,1.13-0.23,1.5-0.71C126.13,174.83,126.33,174.17,126.33,173.35L126.33,173.35z M126.33,176.33
	v-1.16c-0.28,0.45-0.62,0.79-1.02,1.05c-0.43,0.23-0.88,0.34-1.42,0.34c-0.99,0-1.81-0.37-2.47-1.11c-0.68-0.77-1.02-1.67-1.02-2.78
	c0-1.13,0.34-2.07,0.99-2.81c0.65-0.74,1.5-1.11,2.49-1.11c0.54,0,0.99,0.11,1.39,0.34c0.43,0.23,0.77,0.6,1.05,1.05v-5.53h-1.45
	v-0.54c0.77-0.03,1.5-0.06,2.18-0.09c0.65-0.06,1.28-0.11,1.81-0.14v11.91h1.02v0.57H126.33z M133.76,171.76h2.49v-1.42
	c0-0.4-0.11-0.71-0.31-0.88c-0.2-0.17-0.51-0.26-0.94-0.26c-0.43,0-0.74,0.08-0.94,0.28c-0.2,0.17-0.31,0.45-0.31,0.85V171.76z
	 M138.38,173.83l0.43,0.14c-0.31,0.88-0.77,1.53-1.39,1.93c-0.6,0.43-1.39,0.62-2.32,0.62c-1.3,0-2.35-0.34-3.15-1.02
	c-0.77-0.71-1.16-1.62-1.16-2.78c0-1.13,0.4-2.1,1.22-2.84c0.79-0.77,1.81-1.13,3.03-1.13c1.13,0,2.04,0.31,2.69,0.94
	c0.65,0.62,0.99,1.47,0.99,2.55v0.09h-4.96v1.84c0,0.74,0.11,1.22,0.34,1.5c0.23,0.26,0.62,0.4,1.16,0.4c0.77,0,1.39-0.2,1.93-0.57
	C137.7,175.14,138.09,174.57,138.38,173.83L138.38,173.83z M140.19,176.33v-2.72h0.45c0.23,0.79,0.57,1.42,1.02,1.81
	c0.45,0.43,1.02,0.62,1.67,0.62c0.54,0,0.96-0.11,1.3-0.37s0.51-0.6,0.51-0.96c0-0.48-0.57-0.79-1.67-0.91
	c-0.31-0.06-0.54-0.09-0.71-0.11c-0.96-0.14-1.64-0.4-2.04-0.74c-0.4-0.34-0.6-0.88-0.6-1.56c0-0.82,0.26-1.45,0.74-1.93
	c0.45-0.48,1.11-0.71,1.93-0.71c0.31,0,0.62,0.03,0.94,0.09c0.31,0.09,0.6,0.2,0.85,0.34l0.4-0.34h0.4l0.06,2.1h-0.48
	c-0.2-0.57-0.48-1.02-0.82-1.3c-0.37-0.28-0.79-0.43-1.3-0.43c-0.51,0-0.91,0.08-1.25,0.28c-0.31,0.2-0.48,0.43-0.48,0.71
	c0,0.43,0.65,0.71,1.9,0.85c0.23,0.03,0.37,0.06,0.48,0.06c0.99,0.14,1.7,0.4,2.1,0.79c0.4,0.37,0.6,0.99,0.6,1.79
	c0,0.91-0.26,1.59-0.77,2.1s-1.22,0.74-2.13,0.74c-0.43,0-0.82-0.03-1.16-0.14c-0.37-0.11-0.68-0.26-0.96-0.45l-0.51,0.4H140.19z
	 M159.21,174.63v-3.91c0-0.6-0.09-0.96-0.2-1.16c-0.14-0.17-0.4-0.26-0.77-0.26c-0.6,0-1.11,0.23-1.5,0.74
	c-0.37,0.48-0.57,1.11-0.57,1.93v1.42c0,0.79,0.2,1.45,0.57,1.93c0.4,0.48,0.88,0.71,1.5,0.71c0.37,0,0.6-0.09,0.74-0.28
	C159.13,175.56,159.21,175.17,159.21,174.63L159.21,174.63z M152.52,180.47v-0.57h1.08v-10.35h-1.25v-0.57
	c0.71-0.03,1.36-0.06,1.98-0.11c0.65-0.03,1.25-0.09,1.84-0.11v1.39c0.28-0.45,0.62-0.82,1.05-1.05c0.4-0.23,0.85-0.34,1.39-0.34
	c0.99,0,1.81,0.37,2.47,1.11s0.99,1.67,0.99,2.81c0,1.11-0.34,2.01-0.99,2.78c-0.68,0.74-1.5,1.11-2.47,1.11
	c-0.54,0-0.99-0.11-1.42-0.34c-0.4-0.23-0.74-0.57-1.02-1.05v4.74h1.36v0.57H152.52z M163.24,176.33v-0.57h0.99v-6.21h-1.02v-0.57
	c0.6-0.03,1.19-0.06,1.79-0.11c0.6-0.03,1.19-0.09,1.79-0.11v2.01c0.26-0.65,0.57-1.13,0.99-1.5c0.4-0.34,0.85-0.51,1.3-0.51
	c0.48,0,0.85,0.14,1.16,0.45c0.31,0.28,0.48,0.65,0.48,1.11c0,0.4-0.11,0.71-0.37,0.96c-0.26,0.26-0.6,0.4-0.96,0.4
	c-0.34,0-0.62-0.14-0.85-0.37c-0.26-0.26-0.37-0.54-0.37-0.91c0-0.14,0.03-0.28,0.11-0.4c0.09-0.14,0.11-0.26,0.11-0.31
	c0-0.03-0.03-0.06-0.06-0.06c0-0.03-0.06-0.03-0.09-0.03c-0.28,0-0.57,0.28-0.91,0.91c-0.34,0.6-0.51,1.25-0.51,1.9v3.35h1.36v0.57
	H163.24z M171.4,172.64c0-1.13,0.4-2.07,1.22-2.81c0.82-0.74,1.87-1.08,3.17-1.08s2.35,0.34,3.17,1.08
	c0.82,0.71,1.22,1.64,1.22,2.81c0,1.13-0.4,2.07-1.22,2.81c-0.82,0.74-1.9,1.08-3.17,1.08c-1.3,0-2.35-0.34-3.17-1.08
	C171.8,174.74,171.4,173.8,171.4,172.64L171.4,172.64z M175.8,169.21c-0.57,0-0.96,0.17-1.16,0.54c-0.23,0.37-0.31,1.33-0.31,2.89
	v0.77c0,1.16,0.09,1.9,0.31,2.21c0.2,0.31,0.6,0.45,1.16,0.45c0.6,0,0.96-0.17,1.16-0.51c0.23-0.34,0.31-1.25,0.31-2.64v-1.11
	c0-1.11-0.09-1.84-0.31-2.16C176.76,169.35,176.36,169.21,175.8,169.21L175.8,169.21z M185.26,176.58l-3.4-7.03h-0.79v-0.57h4.54
	v0.57h-0.96l1.84,4.11l1.5-3.4c0.03-0.11,0.06-0.17,0.09-0.23c0-0.06,0.03-0.14,0.03-0.2c0-0.09-0.06-0.17-0.14-0.23
	c-0.09-0.06-0.2-0.06-0.37-0.06h-0.82v-0.57h3.03v0.57h-0.51c-0.14,0-0.28,0.03-0.37,0.11c-0.11,0.06-0.2,0.2-0.28,0.4l-2.86,6.52
	H185.26z M195.92,175.25c-0.37,0.43-0.79,0.77-1.25,0.96c-0.43,0.2-0.96,0.31-1.59,0.31c-0.62,0-1.13-0.17-1.47-0.48
	c-0.34-0.31-0.51-0.77-0.51-1.36c0-0.79,0.43-1.45,1.28-1.93c0.85-0.48,2.01-0.71,3.49-0.71v-1.79c0-0.4-0.09-0.68-0.26-0.82
	c-0.2-0.14-0.51-0.2-1.02-0.2c-0.31,0-0.54,0.03-0.71,0.11c-0.17,0.06-0.26,0.17-0.26,0.31c0,0.06,0.06,0.17,0.17,0.37
	c0.11,0.2,0.17,0.43,0.17,0.62c0,0.37-0.11,0.62-0.31,0.82c-0.23,0.2-0.54,0.28-0.94,0.28c-0.37,0-0.65-0.08-0.82-0.28
	c-0.2-0.2-0.31-0.48-0.31-0.88c0-0.57,0.31-1.05,0.94-1.36c0.6-0.34,1.45-0.48,2.58-0.48c0.48,0,0.94,0.03,1.33,0.09
	c0.4,0.09,0.71,0.17,0.96,0.31c0.31,0.14,0.51,0.34,0.62,0.54c0.11,0.23,0.17,0.62,0.17,1.19v3.8c0,0.23,0.03,0.4,0.14,0.48
	c0.09,0.11,0.23,0.17,0.45,0.17c0.09,0,0.17-0.03,0.26-0.09c0.11-0.06,0.17-0.09,0.2-0.09c0.06,0,0.09,0.03,0.14,0.06
	c0.03,0.03,0.06,0.09,0.06,0.14c0,0.23-0.2,0.48-0.54,0.74c-0.37,0.28-0.79,0.43-1.25,0.43c-0.4,0-0.77-0.11-1.08-0.34
	C196.26,175.96,196.06,175.65,195.92,175.25L195.92,175.25z M195.86,172.56h-0.23c-0.77,0-1.3,0.11-1.62,0.34
	c-0.28,0.2-0.45,0.57-0.45,1.11c0,0.51,0.09,0.91,0.26,1.13c0.17,0.23,0.43,0.34,0.79,0.34s0.68-0.11,0.91-0.37
	c0.23-0.23,0.34-0.57,0.34-0.96V172.56z M200.06,175.76h1.02v-6.24h-1.19v-0.57c0.6,0,1.19-0.03,1.79-0.06
	c0.62-0.03,1.25-0.06,1.93-0.11v1.9c0.34-0.68,0.77-1.16,1.22-1.45c0.48-0.31,1.05-0.45,1.73-0.45c0.68,0,1.22,0.14,1.56,0.45
	c0.37,0.31,0.57,0.77,0.6,1.36c0.34-0.62,0.74-1.08,1.22-1.39c0.48-0.28,1.05-0.43,1.73-0.43c0.43,0,0.79,0.06,1.11,0.17
	c0.28,0.11,0.54,0.28,0.74,0.54c0.11,0.11,0.2,0.28,0.26,0.48c0.06,0.2,0.09,0.48,0.09,0.85v0.54v4.4h1.13v0.57h-4.68v-0.57h0.99
	v-5.19c0-0.34-0.06-0.6-0.2-0.74c-0.11-0.17-0.31-0.23-0.6-0.23c-0.45,0-0.88,0.26-1.25,0.79c-0.37,0.54-0.57,1.16-0.57,1.84v3.52
	h0.91v0.57h-4.37v-0.57h0.96v-5.19c0-0.34-0.06-0.6-0.17-0.74c-0.14-0.17-0.34-0.23-0.6-0.23c-0.45,0-0.88,0.26-1.25,0.79
	c-0.37,0.54-0.57,1.16-0.57,1.84v3.52h0.94v0.57h-4.48V175.76z M216.44,175.02c0-0.4,0.14-0.77,0.45-1.05
	c0.28-0.31,0.65-0.45,1.05-0.45c0.43,0,0.77,0.14,1.08,0.45c0.28,0.28,0.43,0.65,0.43,1.05c0,0.43-0.14,0.77-0.43,1.05
	c-0.31,0.31-0.65,0.45-1.08,0.45c-0.4,0-0.77-0.14-1.05-0.45C216.59,175.79,216.44,175.45,216.44,175.02L216.44,175.02z"/>
<path class="st4" d="M46.1,229.2h1.29v-8.62H46.1v-0.46h5.53c0.81,0,1.47,0.07,2.03,0.2c0.59,0.13,1.11,0.36,1.55,0.65
	c0.66,0.42,1.22,0.98,1.59,1.69c0.37,0.68,0.55,1.43,0.55,2.24c0,0.81-0.18,1.56-0.59,2.24c-0.37,0.72-0.92,1.27-1.59,1.69
	c-0.44,0.29-0.96,0.49-1.55,0.65c-0.59,0.13-1.25,0.2-2.06,0.2H46.1V229.2z M50.12,229.2h1.4c0.63,0,1.07-0.03,1.36-0.1
	c0.26-0.1,0.52-0.23,0.7-0.46c0.26-0.26,0.41-0.62,0.52-1.07c0.11-0.49,0.15-1.17,0.15-2.11v-0.68c0-1.04-0.04-1.79-0.11-2.24
	c-0.07-0.46-0.18-0.81-0.33-1.11c-0.18-0.29-0.44-0.52-0.77-0.65c-0.29-0.13-0.81-0.2-1.51-0.2h-1.4V229.2z M61.44,226.11h2.21V225
	c0-0.29-0.11-0.52-0.26-0.68c-0.18-0.13-0.48-0.2-0.85-0.2c-0.37,0-0.63,0.07-0.81,0.23c-0.18,0.13-0.29,0.36-0.29,0.65V226.11z
	 M65.49,227.74l0.41,0.13c-0.29,0.65-0.7,1.17-1.22,1.5c-0.55,0.33-1.22,0.49-2.06,0.49c-1.14,0-2.06-0.29-2.77-0.81
	c-0.7-0.55-1.03-1.27-1.03-2.18c0-0.88,0.37-1.63,1.07-2.21c0.7-0.59,1.62-0.88,2.69-0.88c1,0,1.77,0.26,2.36,0.75
	c0.59,0.46,0.88,1.14,0.88,1.98v0.07h-4.39V228c0,0.59,0.11,0.94,0.29,1.17c0.22,0.2,0.55,0.29,1.03,0.29c0.66,0,1.25-0.13,1.7-0.42
	C64.9,228.74,65.27,228.32,65.49,227.74L65.49,227.74z M67.82,224.94c0-0.33,0.15-0.59,0.41-0.81s0.55-0.36,0.92-0.36
	c0.37,0,0.7,0.13,0.96,0.36c0.26,0.23,0.37,0.49,0.37,0.81c0,0.33-0.11,0.62-0.37,0.85c-0.26,0.23-0.59,0.33-0.96,0.33
	c-0.33,0-0.66-0.1-0.92-0.33C67.97,225.56,67.82,225.26,67.82,224.94L67.82,224.94z M67.82,228.68c0-0.33,0.15-0.62,0.41-0.85
	c0.26-0.23,0.55-0.36,0.92-0.36c0.37,0,0.7,0.13,0.96,0.36c0.26,0.23,0.37,0.52,0.37,0.85c0,0.29-0.11,0.59-0.37,0.81
	c-0.26,0.23-0.59,0.33-0.96,0.33c-0.33,0-0.66-0.1-0.92-0.33C67.97,229.26,67.82,228.97,67.82,228.68L67.82,228.68z M45.99,250.4
	h1.29v-8.62h-1.29v-0.46h5.57c1.55,0,2.65,0.2,3.43,0.62c0.74,0.39,1.11,1.01,1.11,1.82c0,0.88-0.41,1.53-1.18,1.95
	c-0.74,0.46-1.88,0.65-3.43,0.65h-1.47v4.03h1.55v0.49h-5.57V250.4z M50.01,241.79v4.2h1.51c0.63,0,1.03-0.1,1.22-0.33
	c0.22-0.23,0.33-0.85,0.33-1.85c0-0.91-0.11-1.46-0.33-1.69c-0.18-0.23-0.63-0.33-1.29-0.33H50.01z M59.93,250.05
	c-0.33,0.33-0.7,0.59-1.11,0.75c-0.37,0.16-0.85,0.23-1.4,0.23c-0.55,0-1-0.1-1.29-0.36c-0.29-0.26-0.44-0.62-0.44-1.07
	c0-0.62,0.37-1.11,1.11-1.5c0.77-0.36,1.77-0.55,3.06-0.55v-1.37c0-0.33-0.07-0.55-0.22-0.65c-0.15-0.1-0.44-0.16-0.88-0.16
	c-0.26,0-0.48,0.03-0.63,0.1c-0.15,0.03-0.22,0.13-0.22,0.23c0,0.03,0.04,0.13,0.15,0.29c0.11,0.16,0.15,0.33,0.15,0.49
	c0,0.29-0.07,0.49-0.29,0.65c-0.18,0.13-0.44,0.23-0.81,0.23c-0.33,0-0.55-0.1-0.74-0.26c-0.15-0.13-0.26-0.36-0.26-0.65
	c0-0.46,0.29-0.81,0.81-1.07c0.55-0.26,1.29-0.39,2.29-0.39c0.44,0,0.81,0.03,1.18,0.1c0.33,0.03,0.63,0.13,0.85,0.23
	c0.26,0.13,0.44,0.26,0.55,0.42c0.11,0.16,0.15,0.49,0.15,0.91v2.99c0,0.16,0.04,0.29,0.11,0.36c0.11,0.1,0.22,0.13,0.41,0.13
	c0.07,0,0.15-0.03,0.26-0.07c0.07-0.03,0.15-0.07,0.15-0.07c0.07,0,0.11,0,0.11,0.03c0.04,0.03,0.07,0.07,0.07,0.13
	c0,0.16-0.18,0.36-0.48,0.59c-0.33,0.2-0.7,0.29-1.11,0.29c-0.33,0-0.66-0.07-0.92-0.26C60.22,250.6,60.04,250.34,59.93,250.05
	L59.93,250.05z M59.85,247.96h-0.18c-0.66,0-1.14,0.07-1.4,0.23c-0.29,0.2-0.41,0.46-0.41,0.88c0,0.42,0.07,0.72,0.22,0.88
	c0.11,0.2,0.37,0.29,0.7,0.29c0.29,0,0.59-0.1,0.77-0.29c0.22-0.2,0.29-0.46,0.29-0.78V247.96z M63.58,250.89v-0.46h0.88v-4.85
	h-0.88v-0.42c0.52-0.03,1.03-0.07,1.55-0.07c0.55-0.03,1.07-0.07,1.59-0.13v1.59c0.22-0.52,0.52-0.88,0.88-1.17
	c0.37-0.26,0.74-0.42,1.14-0.42c0.41,0,0.77,0.13,1.03,0.36c0.29,0.23,0.44,0.52,0.44,0.88c0,0.29-0.11,0.55-0.37,0.75
	c-0.22,0.2-0.48,0.29-0.85,0.29c-0.29,0-0.52-0.1-0.74-0.29c-0.22-0.16-0.29-0.42-0.29-0.68c0-0.1,0-0.23,0.07-0.33
	c0.07-0.1,0.11-0.2,0.11-0.23c0-0.03,0-0.03-0.04-0.07c-0.04,0-0.07,0-0.11,0c-0.22,0-0.48,0.23-0.77,0.68
	c-0.29,0.49-0.48,0.98-0.48,1.5v2.6h1.22v0.46H63.58z M75.41,250.05c-0.33,0.33-0.7,0.59-1.11,0.75c-0.37,0.16-0.85,0.23-1.4,0.23
	c-0.55,0-1-0.1-1.29-0.36c-0.29-0.26-0.44-0.62-0.44-1.07c0-0.62,0.37-1.11,1.11-1.5c0.77-0.36,1.81-0.55,3.1-0.55v-1.37
	c0-0.33-0.11-0.55-0.26-0.65c-0.15-0.1-0.44-0.16-0.88-0.16c-0.26,0-0.48,0.03-0.63,0.1c-0.15,0.03-0.22,0.13-0.22,0.23
	c0,0.03,0.07,0.13,0.15,0.29c0.11,0.16,0.15,0.33,0.15,0.49c0,0.29-0.07,0.49-0.26,0.65c-0.22,0.13-0.48,0.23-0.85,0.23
	c-0.29,0-0.55-0.1-0.74-0.26c-0.15-0.13-0.26-0.36-0.26-0.65c0-0.46,0.29-0.81,0.81-1.07c0.55-0.26,1.29-0.39,2.29-0.39
	c0.44,0,0.81,0.03,1.18,0.1c0.37,0.03,0.63,0.13,0.88,0.23c0.22,0.13,0.41,0.26,0.52,0.42c0.11,0.16,0.15,0.49,0.15,0.91v2.99
	c0,0.16,0.04,0.29,0.11,0.36c0.11,0.1,0.22,0.13,0.41,0.13c0.07,0,0.15-0.03,0.26-0.07c0.07-0.03,0.15-0.07,0.15-0.07
	c0.07,0,0.11,0,0.15,0.03c0,0.03,0.04,0.07,0.04,0.13c0,0.16-0.15,0.36-0.48,0.59c-0.33,0.2-0.66,0.29-1.07,0.29
	c-0.37,0-0.7-0.07-0.96-0.26C75.71,250.6,75.52,250.34,75.41,250.05L75.41,250.05z M75.38,247.96h-0.22c-0.66,0-1.14,0.07-1.4,0.23
	c-0.26,0.2-0.41,0.46-0.41,0.88c0,0.42,0.07,0.72,0.22,0.88c0.15,0.2,0.37,0.29,0.7,0.29c0.33,0,0.59-0.1,0.77-0.29
	c0.22-0.2,0.33-0.46,0.33-0.78V247.96z M80.06,246.14c0-0.33,0.15-0.59,0.41-0.81c0.26-0.23,0.55-0.36,0.92-0.36
	c0.37,0,0.66,0.13,0.92,0.36c0.26,0.23,0.41,0.49,0.41,0.81s-0.15,0.62-0.41,0.85c-0.26,0.23-0.55,0.36-0.92,0.36
	c-0.37,0-0.66-0.13-0.92-0.36C80.21,246.76,80.06,246.47,80.06,246.14L80.06,246.14z M80.06,249.88c0-0.33,0.15-0.62,0.41-0.85
	c0.26-0.23,0.55-0.33,0.92-0.33c0.37,0,0.66,0.1,0.92,0.33c0.26,0.23,0.41,0.52,0.41,0.85c0,0.33-0.15,0.59-0.41,0.81
	c-0.26,0.23-0.55,0.33-0.92,0.33c-0.37,0-0.66-0.1-0.92-0.33C80.21,250.47,80.06,250.21,80.06,249.88L80.06,249.88z"/>
<rect x="75.65" y="270.98" class="st5" width="1.42" height="1.42"/>
<rect x="84.16" y="270.98" class="st5" width="1.42" height="1.42"/>
<rect x="92.66" y="270.98" class="st5" width="1.42" height="1.42"/>
<rect x="101.17" y="270.98" class="st5" width="1.42" height="1.42"/>
<rect x="109.67" y="270.98" class="st5" width="1.42" height="1.42"/>
<rect x="118.17" y="270.98" class="st5" width="1.42" height="1.42"/>
<rect x="126.68" y="270.98" class="st5" width="1.42" height="1.42"/>
<rect x="135.18" y="270.98" class="st5" width="1.42" height="1.42"/>
<rect x="143.69" y="270.98" class="st5" width="1.42" height="1.42"/>
<rect x="152.19" y="270.98" class="st5" width="1.42" height="1.42"/>
<rect x="160.69" y="270.98" class="st5" width="1.42" height="1.42"/>
<rect x="169.2" y="270.98" class="st5" width="1.42" height="1.42"/>
<rect x="177.7" y="270.98" class="st5" width="1.42" height="1.42"/>
<rect x="186.2" y="270.98" class="st5" width="1.42" height="1.42"/>
<rect x="194.71" y="270.98" class="st5" width="1.42" height="1.42"/>
<rect x="203.21" y="270.98" class="st5" width="1.42" height="1.42"/>
<rect x="211.72" y="270.98" class="st5" width="1.42" height="1.42"/>
<rect x="220.22" y="270.98" class="st5" width="1.42" height="1.42"/>
<rect x="228.72" y="270.98" class="st5" width="1.42" height="1.42"/>
<rect x="237.23" y="270.98" class="st5" width="1.42" height="1.42"/>
<rect x="245.73" y="270.98" class="st5" width="1.42" height="1.42"/>
<rect x="254.24" y="270.98" class="st5" width="1.42" height="1.42"/>
<rect x="262.74" y="270.98" class="st5" width="1.42" height="1.42"/>
<path class="st3" d="M371.65,301.64v-0.6h1.5v-11.12h-1.28v-0.57h10.2l0.03,3.23h-0.6c-0.43-1.05-0.85-1.73-1.28-2.1
	c-0.43-0.37-1.08-0.57-1.9-0.57h-2.1v5.05c0.06,0,0.11,0.03,0.17,0.03s0.14,0,0.26,0c0.68,0,1.19-0.17,1.53-0.54
	c0.34-0.34,0.57-0.91,0.65-1.7h0.62v5.22h-0.62c-0.06-0.85-0.26-1.45-0.62-1.81c-0.34-0.37-0.88-0.57-1.64-0.57h-0.34v5.44h2.04
	c1.02,0,1.81-0.28,2.38-0.82c0.57-0.51,1.02-1.42,1.33-2.67h0.6l-0.11,4.08H371.65z M384.29,301.64v-2.72h0.48
	c0.2,0.79,0.54,1.42,0.99,1.81c0.45,0.43,1.02,0.62,1.7,0.62c0.51,0,0.96-0.11,1.3-0.37c0.31-0.26,0.48-0.6,0.48-0.96
	c0-0.48-0.54-0.79-1.64-0.94c-0.31-0.03-0.57-0.06-0.74-0.09c-0.96-0.14-1.64-0.4-2.04-0.74c-0.37-0.34-0.57-0.88-0.57-1.56
	c0-0.82,0.23-1.45,0.71-1.93c0.48-0.48,1.13-0.71,1.96-0.71c0.31,0,0.62,0.03,0.91,0.09c0.31,0.09,0.6,0.2,0.88,0.34l0.4-0.34h0.37
	l0.06,2.1h-0.45c-0.2-0.57-0.48-1.02-0.85-1.3c-0.34-0.28-0.77-0.45-1.28-0.45c-0.51,0-0.94,0.11-1.25,0.31
	c-0.31,0.2-0.48,0.43-0.48,0.71c0,0.43,0.62,0.71,1.9,0.85c0.2,0.03,0.37,0.06,0.48,0.06c0.99,0.14,1.67,0.4,2.07,0.79
	c0.4,0.37,0.6,0.96,0.6,1.79c0,0.91-0.26,1.59-0.77,2.1c-0.51,0.51-1.22,0.74-2.1,0.74c-0.43,0-0.82-0.03-1.19-0.14
	c-0.34-0.11-0.65-0.26-0.94-0.45l-0.54,0.4H384.29z M392.17,299.96v-5.13h-1.08v-0.57h1.08v-2.33c0.11,0.03,0.26,0.06,0.4,0.06
	c0.14,0,0.37,0.03,0.68,0.03c0.26,0,0.51-0.03,0.77-0.03c0.23-0.03,0.45-0.03,0.68-0.06v2.33h1.5v0.57h-1.5v5.13
	c0,0.31,0.03,0.54,0.11,0.65c0.09,0.11,0.26,0.17,0.48,0.17c0.23,0,0.43-0.09,0.57-0.28c0.17-0.2,0.26-0.45,0.28-0.79h0.51
	c-0.03,0.65-0.28,1.16-0.77,1.53c-0.48,0.4-1.11,0.6-1.87,0.6c-0.71,0-1.19-0.11-1.45-0.37
	C392.29,301.24,392.17,300.73,392.17,299.96L392.17,299.96z M400.62,297.07h2.49v-1.42c0-0.43-0.11-0.71-0.31-0.88
	c-0.2-0.17-0.51-0.28-0.94-0.28s-0.74,0.11-0.94,0.28c-0.23,0.2-0.31,0.48-0.31,0.88V297.07z M405.21,299.14l0.43,0.14
	c-0.31,0.88-0.77,1.53-1.36,1.93c-0.62,0.43-1.39,0.62-2.35,0.62c-1.3,0-2.35-0.34-3.12-1.02c-0.79-0.71-1.16-1.62-1.16-2.78
	c0-1.13,0.4-2.1,1.19-2.86c0.82-0.74,1.84-1.11,3.06-1.11c1.13,0,2.01,0.31,2.69,0.94c0.65,0.62,0.96,1.47,0.96,2.55v0.09h-4.93
	v1.84c0,0.74,0.11,1.22,0.34,1.5c0.2,0.26,0.6,0.4,1.16,0.4c0.77,0,1.39-0.2,1.9-0.57C404.53,300.45,404.93,299.88,405.21,299.14
	L405.21,299.14z M419.87,299.14l0.43,0.14c-0.28,0.85-0.71,1.5-1.28,1.9c-0.57,0.43-1.28,0.65-2.07,0.65
	c-1.19,0-2.18-0.37-2.98-1.13c-0.82-0.74-1.22-1.67-1.22-2.78c0-1.08,0.43-1.99,1.28-2.75c0.82-0.74,1.87-1.11,3.06-1.11
	c0.85,0,1.56,0.17,2.07,0.57c0.54,0.4,0.82,0.88,0.82,1.5c0,0.34-0.11,0.62-0.34,0.85c-0.23,0.23-0.54,0.34-0.88,0.34
	c-0.4,0-0.71-0.11-0.94-0.34c-0.23-0.23-0.34-0.54-0.34-0.91c0-0.28,0.09-0.54,0.28-0.77c0.2-0.26,0.31-0.37,0.31-0.4
	c0-0.14-0.09-0.26-0.26-0.31c-0.14-0.08-0.4-0.11-0.74-0.11c-0.54,0-0.91,0.11-1.13,0.37c-0.2,0.28-0.31,0.91-0.31,1.93v2.27
	c0,0.94,0.11,1.53,0.34,1.81c0.2,0.28,0.6,0.43,1.16,0.43c0.65,0,1.19-0.17,1.64-0.54C419.27,300.39,419.61,299.85,419.87,299.14
	L419.87,299.14z M426.87,300.53c-0.4,0.45-0.79,0.79-1.25,0.99c-0.43,0.2-0.96,0.31-1.59,0.31s-1.13-0.17-1.47-0.48
	c-0.34-0.31-0.51-0.79-0.51-1.36c0-0.79,0.43-1.45,1.28-1.93c0.85-0.48,2.01-0.71,3.49-0.71v-1.79c0-0.43-0.09-0.68-0.28-0.82
	c-0.17-0.14-0.51-0.2-0.99-0.2c-0.31,0-0.57,0.03-0.71,0.11c-0.17,0.06-0.26,0.17-0.26,0.31c0,0.03,0.06,0.17,0.17,0.37
	c0.11,0.2,0.17,0.43,0.17,0.62c0,0.34-0.11,0.62-0.31,0.82c-0.23,0.2-0.54,0.28-0.94,0.28c-0.37,0-0.65-0.08-0.85-0.28
	c-0.17-0.2-0.28-0.51-0.28-0.88c0-0.6,0.31-1.05,0.91-1.36c0.62-0.34,1.47-0.48,2.58-0.48c0.51,0,0.94,0.03,1.36,0.09
	c0.4,0.09,0.71,0.17,0.96,0.31c0.28,0.14,0.51,0.34,0.62,0.54c0.11,0.23,0.17,0.62,0.17,1.19v3.8c0,0.23,0.03,0.4,0.14,0.48
	c0.09,0.11,0.23,0.17,0.43,0.17c0.09,0,0.2-0.03,0.28-0.08c0.09-0.06,0.17-0.09,0.2-0.09c0.06,0,0.09,0,0.11,0.06
	c0.06,0.03,0.06,0.09,0.06,0.14c0,0.23-0.17,0.48-0.54,0.74c-0.34,0.28-0.77,0.43-1.22,0.43c-0.43,0-0.77-0.11-1.08-0.34
	C427.21,301.27,426.98,300.96,426.87,300.53L426.87,300.53z M426.81,297.87h-0.23c-0.77,0-1.3,0.11-1.62,0.31
	c-0.28,0.23-0.45,0.6-0.45,1.13c0,0.51,0.09,0.91,0.26,1.13c0.14,0.23,0.43,0.34,0.79,0.34c0.37,0,0.65-0.11,0.88-0.37
	c0.26-0.26,0.37-0.57,0.37-0.96V297.87z M431.01,301.64v-0.57H432v-6.24h-0.99v-0.54c0.6-0.03,1.19-0.06,1.76-0.11
	c0.6-0.03,1.19-0.08,1.79-0.11v2.01c0.26-0.65,0.6-1.13,0.99-1.5c0.43-0.34,0.85-0.51,1.33-0.51c0.45,0,0.85,0.14,1.16,0.43
	c0.31,0.31,0.45,0.68,0.45,1.13c0,0.4-0.11,0.71-0.37,0.96c-0.26,0.26-0.57,0.4-0.96,0.4c-0.34,0-0.62-0.14-0.85-0.37
	c-0.23-0.26-0.34-0.54-0.34-0.91c0-0.14,0.03-0.28,0.09-0.43c0.09-0.14,0.11-0.23,0.11-0.28c0-0.03,0-0.06-0.03-0.06
	c-0.03-0.03-0.06-0.06-0.11-0.06c-0.26,0-0.57,0.31-0.91,0.94c-0.34,0.6-0.51,1.25-0.51,1.9v3.35h1.36v0.57H431.01z M440.22,299.96
	v-5.13h-1.08v-0.57h1.08v-2.33c0.11,0.03,0.26,0.06,0.43,0.06c0.14,0,0.37,0.03,0.65,0.03c0.28,0,0.54-0.03,0.77-0.03
	c0.23-0.03,0.45-0.03,0.68-0.06v2.33h1.5v0.57h-1.5v5.13c0,0.31,0.06,0.54,0.14,0.65c0.09,0.11,0.23,0.17,0.48,0.17
	c0.23,0,0.43-0.09,0.57-0.28c0.14-0.2,0.23-0.45,0.26-0.79h0.51c-0.03,0.65-0.28,1.16-0.77,1.53c-0.48,0.4-1.11,0.6-1.84,0.6
	c-0.71,0-1.22-0.11-1.47-0.37C440.36,301.24,440.22,300.73,440.22,299.96L440.22,299.96z M450.62,300.53
	c-0.37,0.45-0.77,0.79-1.22,0.99c-0.45,0.2-0.99,0.31-1.59,0.31c-0.65,0-1.13-0.17-1.47-0.48c-0.34-0.31-0.51-0.79-0.51-1.36
	c0-0.79,0.43-1.45,1.28-1.93c0.85-0.48,2.01-0.71,3.46-0.71v-1.79c0-0.43-0.09-0.68-0.26-0.82c-0.17-0.14-0.51-0.2-0.99-0.2
	c-0.31,0-0.57,0.03-0.74,0.11c-0.14,0.06-0.23,0.17-0.23,0.31c0,0.03,0.06,0.17,0.17,0.37c0.11,0.2,0.17,0.43,0.17,0.62
	c0,0.34-0.11,0.62-0.34,0.82c-0.2,0.2-0.51,0.28-0.94,0.28c-0.34,0-0.62-0.08-0.82-0.28c-0.2-0.2-0.28-0.51-0.28-0.88
	c0-0.6,0.31-1.05,0.91-1.36c0.62-0.34,1.47-0.48,2.58-0.48c0.48,0,0.94,0.03,1.33,0.09c0.4,0.09,0.74,0.17,0.99,0.31
	c0.28,0.14,0.48,0.34,0.6,0.54c0.11,0.23,0.17,0.62,0.17,1.19v3.8c0,0.23,0.06,0.4,0.14,0.48c0.11,0.11,0.26,0.17,0.45,0.17
	c0.09,0,0.17-0.03,0.28-0.08c0.09-0.06,0.14-0.09,0.2-0.09c0.03,0,0.09,0,0.11,0.06c0.03,0.03,0.06,0.09,0.06,0.14
	c0,0.23-0.17,0.48-0.54,0.74c-0.37,0.28-0.77,0.43-1.22,0.43c-0.43,0-0.77-0.11-1.08-0.34
	C450.99,301.27,450.77,300.96,450.62,300.53L450.62,300.53z M450.57,297.87h-0.2c-0.77,0-1.3,0.11-1.62,0.31
	c-0.31,0.23-0.45,0.6-0.45,1.13c0,0.51,0.09,0.91,0.23,1.13c0.17,0.23,0.45,0.34,0.82,0.34c0.37,0,0.65-0.11,0.88-0.37
	s0.34-0.57,0.34-0.96V297.87z M447.59,292.73h-0.68c0.14-0.82,0.37-1.42,0.71-1.79c0.31-0.4,0.77-0.6,1.3-0.6
	c0.11,0,0.23,0,0.34,0.03c0.09,0,0.23,0.03,0.37,0.09l1.08,0.26c0.09,0.03,0.17,0.06,0.23,0.06c0.06,0,0.11,0,0.14,0
	c0.23,0,0.43-0.06,0.57-0.2c0.14-0.14,0.26-0.37,0.34-0.65h0.68c-0.11,0.77-0.37,1.36-0.71,1.76c-0.34,0.43-0.77,0.62-1.3,0.62
	c-0.11,0-0.23-0.03-0.31-0.03c-0.11,0-0.2-0.03-0.28-0.06l-1.05-0.26l-0.06-0.03c-0.23-0.06-0.37-0.09-0.45-0.09
	c-0.23,0-0.43,0.09-0.57,0.23C447.76,292.22,447.65,292.45,447.59,292.73L447.59,292.73z M455.02,297.95c0-1.13,0.4-2.07,1.22-2.81
	c0.82-0.74,1.87-1.08,3.17-1.08c1.3,0,2.35,0.34,3.17,1.08c0.82,0.71,1.25,1.64,1.25,2.81c0,1.13-0.43,2.07-1.25,2.81
	c-0.82,0.74-1.87,1.08-3.17,1.08c-1.3,0-2.35-0.34-3.17-1.08C455.41,300.05,455.02,299.11,455.02,297.95L455.02,297.95z
	 M459.44,294.49c-0.6,0-0.99,0.2-1.19,0.57s-0.31,1.33-0.31,2.89v0.74c0,1.19,0.11,1.93,0.31,2.24s0.6,0.45,1.19,0.45
	c0.57,0,0.96-0.17,1.16-0.51c0.2-0.37,0.31-1.25,0.31-2.64v-1.11c0-1.11-0.11-1.84-0.31-2.16
	C460.37,294.66,459.98,294.49,459.44,294.49L459.44,294.49z M473.98,297.07h2.47v-1.42c0-0.43-0.09-0.71-0.28-0.88
	c-0.2-0.17-0.51-0.28-0.96-0.28c-0.4,0-0.71,0.11-0.94,0.28c-0.2,0.2-0.28,0.48-0.28,0.88V297.07z M478.57,299.14l0.43,0.14
	c-0.31,0.88-0.77,1.53-1.36,1.93c-0.62,0.43-1.39,0.62-2.35,0.62c-1.3,0-2.35-0.34-3.12-1.02c-0.79-0.71-1.19-1.62-1.19-2.78
	c0-1.13,0.43-2.1,1.22-2.86c0.82-0.74,1.84-1.11,3.06-1.11c1.13,0,2.01,0.31,2.66,0.94s0.99,1.47,0.99,2.55v0.09h-4.93v1.84
	c0,0.74,0.11,1.22,0.31,1.5c0.23,0.26,0.62,0.4,1.19,0.4c0.74,0,1.39-0.2,1.9-0.57C477.89,300.45,478.29,299.88,478.57,299.14
	L478.57,299.14z M473.16,293.05l2.69-2.81c0.31-0.31,0.54-0.54,0.74-0.65s0.4-0.17,0.6-0.17c0.26,0,0.48,0.08,0.65,0.28
	c0.17,0.17,0.26,0.37,0.26,0.62c0,0.23-0.06,0.4-0.17,0.54c-0.14,0.17-0.37,0.34-0.71,0.48l-3.2,1.7H473.16z M485.77,301.07h0.99
	v-6.24h-1.16v-0.57c0.6,0,1.19-0.03,1.79-0.06c0.62-0.03,1.25-0.06,1.93-0.11v1.9c0.34-0.68,0.77-1.16,1.22-1.45
	c0.48-0.31,1.05-0.45,1.73-0.45c0.68,0,1.19,0.14,1.56,0.45c0.37,0.31,0.57,0.77,0.57,1.36c0.37-0.62,0.77-1.08,1.25-1.39
	c0.48-0.28,1.05-0.43,1.73-0.43c0.43,0,0.79,0.06,1.11,0.17c0.28,0.11,0.54,0.28,0.74,0.54c0.11,0.11,0.2,0.28,0.26,0.48
	c0.06,0.2,0.06,0.48,0.06,0.85v0.54v4.4h1.16v0.57h-4.68v-0.57H497v-5.19c0-0.34-0.09-0.6-0.2-0.74c-0.11-0.17-0.31-0.26-0.6-0.26
	c-0.45,0-0.88,0.28-1.25,0.82c-0.4,0.54-0.57,1.13-0.57,1.84v3.52h0.91v0.57h-4.37v-0.57h0.96v-5.19c0-0.34-0.06-0.6-0.2-0.74
	c-0.11-0.17-0.31-0.26-0.57-0.26c-0.45,0-0.88,0.28-1.25,0.82c-0.37,0.54-0.57,1.16-0.57,1.84v3.52h0.94v0.57h-4.48V301.07z
	 M506.44,300.53c-0.37,0.45-0.79,0.79-1.22,0.99c-0.45,0.2-0.99,0.31-1.62,0.31c-0.62,0-1.11-0.17-1.45-0.48
	c-0.37-0.31-0.54-0.79-0.54-1.36c0-0.79,0.43-1.45,1.3-1.93c0.85-0.48,2.01-0.71,3.46-0.71v-1.79c0-0.43-0.09-0.68-0.26-0.82
	c-0.17-0.14-0.51-0.2-0.99-0.2c-0.34,0-0.57,0.03-0.74,0.11c-0.17,0.06-0.23,0.17-0.23,0.31c0,0.03,0.06,0.17,0.17,0.37
	c0.11,0.2,0.17,0.43,0.17,0.62c0,0.34-0.11,0.62-0.34,0.82c-0.23,0.2-0.54,0.28-0.94,0.28c-0.37,0-0.62-0.08-0.82-0.28
	c-0.2-0.2-0.28-0.51-0.28-0.88c0-0.6,0.28-1.05,0.91-1.36c0.6-0.34,1.47-0.48,2.58-0.48c0.48,0,0.94,0.03,1.33,0.09
	c0.4,0.09,0.74,0.17,0.99,0.31c0.28,0.14,0.48,0.34,0.6,0.54c0.11,0.23,0.17,0.62,0.17,1.19v3.8c0,0.23,0.06,0.4,0.14,0.48
	c0.09,0.11,0.26,0.17,0.45,0.17c0.09,0,0.17-0.03,0.26-0.08c0.11-0.06,0.17-0.09,0.2-0.09c0.06,0,0.11,0,0.14,0.06
	c0.03,0.03,0.06,0.09,0.06,0.14c0,0.23-0.17,0.48-0.54,0.74c-0.37,0.28-0.77,0.43-1.25,0.43c-0.4,0-0.77-0.11-1.05-0.34
	C506.81,301.27,506.58,300.96,506.44,300.53L506.44,300.53z M506.38,297.87h-0.23c-0.77,0-1.28,0.11-1.59,0.31
	c-0.31,0.23-0.45,0.6-0.45,1.13c0,0.51,0.06,0.91,0.23,1.13c0.17,0.23,0.43,0.34,0.79,0.34s0.68-0.11,0.91-0.37s0.34-0.57,0.34-0.96
	V297.87z M511.4,291.09c0-0.37,0.11-0.68,0.37-0.94c0.28-0.26,0.6-0.4,0.94-0.4c0.37,0,0.68,0.14,0.91,0.4
	c0.26,0.26,0.37,0.57,0.37,0.94c0,0.37-0.11,0.68-0.37,0.94c-0.26,0.26-0.57,0.4-0.91,0.4c-0.37,0-0.68-0.14-0.94-0.4
	C511.51,291.77,511.4,291.46,511.4,291.09L511.4,291.09z M510.32,301.64v-0.57h1.13v-6.24h-1.25l0.03-0.54
	c0.68-0.03,1.33-0.06,1.96-0.09c0.65-0.06,1.25-0.09,1.84-0.14v7h1.19v0.57H510.32z M516.08,301.64v-2.72h0.48
	c0.2,0.79,0.54,1.42,0.99,1.81c0.48,0.43,1.02,0.62,1.7,0.62c0.54,0,0.96-0.11,1.3-0.37c0.31-0.26,0.48-0.6,0.48-0.96
	c0-0.48-0.54-0.79-1.64-0.94c-0.31-0.03-0.57-0.06-0.71-0.09c-0.99-0.14-1.67-0.4-2.04-0.74c-0.4-0.34-0.6-0.88-0.6-1.56
	c0-0.82,0.23-1.45,0.71-1.93c0.48-0.48,1.13-0.71,1.96-0.71c0.31,0,0.62,0.03,0.91,0.09c0.31,0.09,0.6,0.2,0.88,0.34l0.4-0.34h0.37
	l0.06,2.1h-0.45c-0.2-0.57-0.48-1.02-0.85-1.3c-0.34-0.28-0.77-0.45-1.28-0.45s-0.91,0.11-1.25,0.31c-0.31,0.2-0.48,0.43-0.48,0.71
	c0,0.43,0.62,0.71,1.9,0.85c0.2,0.03,0.37,0.06,0.48,0.06c0.99,0.14,1.67,0.4,2.07,0.79c0.4,0.37,0.6,0.96,0.6,1.79
	c0,0.91-0.26,1.59-0.77,2.1c-0.51,0.51-1.19,0.74-2.1,0.74c-0.43,0-0.82-0.03-1.19-0.14c-0.34-0.11-0.65-0.26-0.94-0.45l-0.54,0.4
	H516.08z M378.79,322.17c0,0.62,0.06,1.02,0.2,1.19c0.14,0.2,0.43,0.28,0.82,0.28c0.6,0,1.05-0.26,1.42-0.74
	c0.4-0.48,0.57-1.11,0.57-1.9v-1.42c0-0.82-0.2-1.47-0.57-1.96c-0.4-0.48-0.91-0.71-1.56-0.71c-0.34,0-0.57,0.09-0.71,0.28
	c-0.11,0.17-0.17,0.6-0.17,1.22V322.17z M385.46,328.1h-5.02v-0.57h1.36v-4.74c-0.28,0.48-0.62,0.82-1.02,1.05
	c-0.4,0.23-0.85,0.34-1.39,0.34c-0.99,0-1.81-0.37-2.49-1.11c-0.65-0.77-0.99-1.67-0.99-2.78c0-1.13,0.31-2.07,0.99-2.81
	c0.65-0.74,1.5-1.11,2.49-1.11c0.51,0,0.99,0.11,1.39,0.34c0.4,0.23,0.74,0.6,1.02,1.05v-1.39c0.6,0.06,1.22,0.08,1.84,0.14
	c0.65,0.03,1.3,0.06,1.98,0.08v0.57h-1.22v10.35h1.05V328.1z M394.72,316.38v7h1.22v0.57c-0.6,0-1.19,0-1.81,0.03
	c-0.62,0.03-1.28,0.06-1.98,0.11v-1.87c-0.37,0.68-0.79,1.16-1.28,1.47c-0.48,0.31-1.05,0.45-1.73,0.45c-0.43,0-0.79-0.06-1.11-0.17
	c-0.31-0.14-0.57-0.31-0.77-0.54c-0.11-0.14-0.17-0.34-0.23-0.54c-0.06-0.2-0.06-0.51-0.06-0.91v-0.79v-4.08h-1.25v-0.57
	c0.74,0,1.42-0.03,2.04-0.06c0.62-0.03,1.22-0.08,1.73-0.11v5.93c0,0.37,0.09,0.6,0.2,0.77c0.11,0.17,0.31,0.26,0.6,0.26
	c0.45,0,0.88-0.28,1.25-0.85c0.4-0.54,0.57-1.16,0.57-1.84v-3.52h-1.33v-0.57c0.6,0,1.19-0.03,1.84-0.06
	C393.25,316.47,393.96,316.44,394.72,316.38L394.72,316.38z M399.71,319.39h2.49v-1.42c0-0.4-0.11-0.71-0.31-0.88
	c-0.2-0.17-0.51-0.26-0.96-0.26c-0.4,0-0.71,0.08-0.91,0.28c-0.23,0.17-0.31,0.45-0.31,0.85V319.39z M404.31,321.46l0.43,0.17
	c-0.31,0.85-0.77,1.5-1.36,1.9c-0.62,0.43-1.39,0.65-2.35,0.65c-1.3,0-2.35-0.37-3.12-1.05c-0.79-0.71-1.16-1.62-1.16-2.78
	c0-1.13,0.4-2.1,1.19-2.84c0.82-0.77,1.84-1.13,3.06-1.13c1.13,0,2.01,0.31,2.66,0.94c0.68,0.62,0.99,1.47,0.99,2.55v0.09h-4.93
	v1.84c0,0.74,0.11,1.22,0.34,1.5c0.2,0.26,0.6,0.4,1.16,0.4c0.77,0,1.39-0.2,1.9-0.57S404.02,322.2,404.31,321.46L404.31,321.46z
	 M420.07,316.38v7h1.19v0.57c-0.57,0-1.19,0-1.81,0.03c-0.6,0.03-1.28,0.06-1.96,0.11v-1.87c-0.37,0.68-0.79,1.16-1.28,1.47
	c-0.48,0.31-1.05,0.45-1.73,0.45c-0.43,0-0.79-0.06-1.11-0.17c-0.31-0.14-0.57-0.31-0.77-0.54c-0.11-0.14-0.2-0.34-0.23-0.54
	c-0.06-0.2-0.09-0.51-0.09-0.91v-0.79v-4.08h-1.22v-0.57c0.74,0,1.42-0.03,2.04-0.06c0.62-0.03,1.19-0.08,1.73-0.11v5.93
	c0,0.37,0.06,0.6,0.2,0.77c0.11,0.17,0.31,0.26,0.6,0.26c0.45,0,0.88-0.28,1.25-0.85c0.37-0.54,0.57-1.16,0.57-1.84v-3.52h-1.33
	v-0.57c0.57,0,1.19-0.03,1.81-0.06C418.59,316.47,419.3,316.44,420.07,316.38L420.07,316.38z M421.85,323.39h1.02v-6.24h-1.16v-0.57
	c0.57,0,1.16-0.03,1.79-0.06c0.6-0.03,1.25-0.06,1.9-0.11v1.9c0.34-0.68,0.77-1.16,1.25-1.45c0.45-0.31,1.02-0.45,1.7-0.45
	c0.68,0,1.22,0.14,1.59,0.45c0.34,0.31,0.54,0.77,0.57,1.36c0.34-0.62,0.77-1.08,1.22-1.39c0.48-0.28,1.08-0.43,1.73-0.43
	c0.43,0,0.79,0.06,1.11,0.17c0.31,0.11,0.54,0.28,0.74,0.54c0.14,0.11,0.2,0.28,0.26,0.48c0.06,0.2,0.09,0.48,0.09,0.85v0.54v4.4
	h1.13v0.57h-4.68v-0.57h0.99v-5.19c0-0.34-0.06-0.6-0.17-0.74c-0.14-0.17-0.34-0.23-0.6-0.23c-0.48,0-0.91,0.26-1.28,0.79
	c-0.37,0.54-0.57,1.16-0.57,1.84v3.52h0.94v0.57h-4.39v-0.57h0.96v-5.19c0-0.34-0.06-0.6-0.17-0.74c-0.14-0.17-0.31-0.23-0.6-0.23
	c-0.45,0-0.88,0.26-1.25,0.79c-0.37,0.54-0.54,1.16-0.54,1.84v3.52h0.91v0.57h-4.48V323.39z M449.52,322.25v-3.88
	c0-0.6-0.09-0.99-0.23-1.19c-0.14-0.17-0.37-0.26-0.74-0.26c-0.62,0-1.11,0.23-1.5,0.74c-0.37,0.48-0.57,1.11-0.57,1.93v1.42
	c0,0.79,0.2,1.45,0.57,1.93c0.37,0.48,0.88,0.74,1.5,0.74c0.37,0,0.6-0.11,0.74-0.31C449.43,323.19,449.52,322.79,449.52,322.25
	L449.52,322.25z M442.83,328.1v-0.57h1.05v-10.35h-1.22v-0.57c0.68-0.03,1.36-0.06,1.98-0.11c0.62-0.03,1.25-0.06,1.84-0.11v1.39
	c0.28-0.45,0.62-0.82,1.02-1.05c0.43-0.23,0.88-0.34,1.39-0.34c1.02,0,1.84,0.37,2.49,1.11c0.65,0.74,0.99,1.67,0.99,2.81
	c0,1.11-0.34,2.01-0.99,2.78c-0.68,0.74-1.5,1.11-2.49,1.11c-0.51,0-0.99-0.11-1.39-0.34c-0.4-0.23-0.74-0.57-1.02-1.05v4.74h1.36
	v0.57H442.83z M453.54,323.96v-0.57h0.99v-6.21h-1.02v-0.57c0.6-0.03,1.19-0.06,1.79-0.11c0.6-0.03,1.19-0.06,1.79-0.11v2.01
	c0.26-0.62,0.57-1.13,0.99-1.47c0.4-0.37,0.82-0.54,1.3-0.54c0.45,0,0.85,0.14,1.16,0.45c0.31,0.28,0.48,0.65,0.48,1.11
	c0,0.4-0.14,0.71-0.4,0.96c-0.26,0.26-0.57,0.4-0.94,0.4c-0.34,0-0.62-0.14-0.88-0.37c-0.23-0.26-0.34-0.54-0.34-0.91
	c0-0.14,0.03-0.26,0.11-0.4c0.06-0.14,0.11-0.26,0.11-0.31c0-0.03-0.03-0.06-0.06-0.06c-0.03-0.03-0.06-0.03-0.09-0.03
	c-0.28,0-0.6,0.28-0.91,0.91c-0.34,0.6-0.51,1.25-0.51,1.9v3.35h1.36v0.57H453.54z M464.63,319.39h2.49v-1.42
	c0-0.4-0.09-0.71-0.28-0.88c-0.2-0.17-0.54-0.26-0.96-0.26s-0.74,0.08-0.94,0.28c-0.2,0.17-0.31,0.45-0.31,0.85V319.39z
	 M469.25,321.46l0.43,0.17c-0.31,0.85-0.77,1.5-1.39,1.9c-0.6,0.43-1.36,0.65-2.32,0.65c-1.3,0-2.35-0.37-3.15-1.05
	c-0.77-0.71-1.16-1.62-1.16-2.78c0-1.13,0.4-2.1,1.22-2.84c0.79-0.77,1.81-1.13,3.06-1.13c1.11,0,2.01,0.31,2.66,0.94
	c0.65,0.62,0.99,1.47,0.99,2.55v0.09h-4.96v1.84c0,0.74,0.11,1.22,0.34,1.5c0.23,0.26,0.62,0.4,1.16,0.4c0.77,0,1.39-0.2,1.93-0.57
	C468.57,322.76,468.96,322.2,469.25,321.46L469.25,321.46z"/>
<path class="st3" d="M471.06,323.96v-2.72h0.45c0.23,0.79,0.57,1.42,1.02,1.81c0.45,0.43,1.02,0.62,1.67,0.62
	c0.54,0,0.96-0.11,1.3-0.37c0.34-0.26,0.51-0.6,0.51-0.96c0-0.48-0.57-0.79-1.64-0.91c-0.34-0.06-0.57-0.09-0.74-0.11
	c-0.96-0.14-1.64-0.4-2.04-0.74c-0.4-0.34-0.6-0.88-0.6-1.56c0-0.82,0.26-1.45,0.74-1.93c0.48-0.48,1.11-0.71,1.93-0.71
	c0.31,0,0.62,0.03,0.94,0.11c0.31,0.06,0.6,0.17,0.85,0.31l0.4-0.34h0.4l0.06,2.1h-0.48c-0.2-0.57-0.48-1.02-0.82-1.3
	c-0.37-0.28-0.79-0.43-1.3-0.43c-0.51,0-0.91,0.08-1.25,0.28c-0.31,0.2-0.48,0.43-0.48,0.71c0,0.43,0.65,0.71,1.9,0.85
	c0.23,0.03,0.37,0.06,0.48,0.09c0.99,0.11,1.7,0.37,2.1,0.77c0.4,0.37,0.6,0.99,0.6,1.79c0,0.91-0.26,1.59-0.77,2.1
	c-0.51,0.51-1.22,0.77-2.1,0.77c-0.45,0-0.85-0.06-1.19-0.17c-0.37-0.11-0.68-0.26-0.94-0.45l-0.54,0.4H471.06z M481.15,319.39h2.47
	v-1.42c0-0.4-0.09-0.71-0.28-0.88c-0.2-0.17-0.51-0.26-0.96-0.26c-0.4,0-0.71,0.08-0.94,0.28c-0.2,0.17-0.28,0.45-0.28,0.85V319.39z
	 M485.74,321.46l0.43,0.17c-0.31,0.85-0.77,1.5-1.36,1.9c-0.62,0.43-1.39,0.65-2.35,0.65c-1.3,0-2.35-0.37-3.12-1.05
	c-0.79-0.71-1.19-1.62-1.19-2.78c0-1.13,0.43-2.1,1.22-2.84c0.82-0.77,1.84-1.13,3.06-1.13c1.13,0,2.01,0.31,2.66,0.94
	c0.65,0.62,0.99,1.47,0.99,2.55v0.09h-4.93v1.84c0,0.74,0.11,1.22,0.31,1.5c0.23,0.26,0.62,0.4,1.19,0.4c0.74,0,1.39-0.2,1.9-0.57
	C485.06,322.76,485.46,322.2,485.74,321.46L485.74,321.46z M487.08,323.39h1.13v-6.27h-1.25v-0.57c0.65,0,1.3-0.03,1.93-0.06
	c0.65,0,1.28-0.03,1.9-0.08v1.87c0.37-0.65,0.77-1.13,1.25-1.42c0.48-0.31,1.08-0.45,1.76-0.45c0.79,0,1.36,0.17,1.67,0.51
	c0.34,0.34,0.48,1.05,0.48,2.16v4.31h1.11v0.57h-4.62v-0.57h0.96v-5.22c0-0.34-0.06-0.6-0.17-0.74c-0.11-0.14-0.31-0.23-0.6-0.23
	c-0.45,0-0.88,0.26-1.25,0.82c-0.4,0.54-0.6,1.13-0.6,1.84v3.52h0.96v0.57h-4.68V323.39z M498.56,322.28v-5.13h-1.08v-0.57h1.08
	v-2.33c0.11,0.03,0.26,0.06,0.4,0.06c0.17,0.03,0.4,0.03,0.68,0.03c0.28,0,0.54,0,0.77-0.03c0.23,0,0.45-0.03,0.68-0.06v2.33h1.5
	v0.57h-1.5v5.13c0,0.31,0.06,0.54,0.14,0.65c0.09,0.11,0.23,0.17,0.48,0.17c0.23,0,0.4-0.09,0.57-0.28c0.14-0.2,0.23-0.45,0.26-0.79
	h0.51c-0.03,0.65-0.28,1.16-0.77,1.56c-0.48,0.37-1.11,0.57-1.84,0.57c-0.71,0-1.22-0.11-1.47-0.37
	C498.7,323.56,498.56,323.05,498.56,322.28L498.56,322.28z M507,319.39h2.49v-1.42c0-0.4-0.11-0.71-0.31-0.88
	c-0.2-0.17-0.51-0.26-0.94-0.26s-0.74,0.08-0.94,0.28c-0.2,0.17-0.31,0.45-0.31,0.85V319.39z M511.6,321.46l0.45,0.17
	c-0.31,0.85-0.79,1.5-1.39,1.9c-0.6,0.43-1.39,0.65-2.32,0.65c-1.3,0-2.35-0.37-3.15-1.05c-0.77-0.71-1.16-1.62-1.16-2.78
	c0-1.13,0.4-2.1,1.22-2.84c0.79-0.77,1.81-1.13,3.03-1.13c1.13,0,2.04,0.31,2.69,0.94c0.65,0.62,0.96,1.47,0.96,2.55v0.09H507v1.84
	c0,0.74,0.11,1.22,0.34,1.5c0.23,0.26,0.62,0.4,1.16,0.4c0.77,0,1.39-0.2,1.93-0.57C510.94,322.76,511.34,322.2,511.6,321.46
	L511.6,321.46z M513.98,322.65c0-0.4,0.14-0.77,0.45-1.05c0.28-0.31,0.62-0.45,1.05-0.45c0.43,0,0.77,0.14,1.05,0.45
	c0.31,0.28,0.45,0.65,0.45,1.05c0,0.43-0.14,0.77-0.45,1.05c-0.28,0.31-0.62,0.45-1.05,0.45c-0.43,0-0.77-0.14-1.05-0.45
	C514.12,323.42,513.98,323.08,513.98,322.65L513.98,322.65z M351.44,346.27v-0.6h1.47v-11.09h-1.28v-0.57h10.23l0.03,3.23h-0.62
	c-0.43-1.05-0.85-1.76-1.28-2.13s-1.05-0.54-1.87-0.54H356v5.02c0.06,0.03,0.11,0.03,0.17,0.03c0.09,0,0.17,0,0.28,0
	c0.65,0,1.16-0.17,1.5-0.54c0.34-0.34,0.57-0.91,0.68-1.7h0.62v5.22h-0.62c-0.09-0.85-0.28-1.45-0.62-1.81
	c-0.37-0.37-0.91-0.57-1.64-0.57H356v5.44h2.07c0.99,0,1.79-0.26,2.35-0.79c0.6-0.54,1.05-1.45,1.36-2.69h0.6l-0.14,4.08H351.44z
	 M355.1,332.72l2.72-2.78c0.28-0.31,0.54-0.54,0.74-0.65c0.2-0.11,0.4-0.17,0.6-0.17c0.26,0,0.48,0.09,0.65,0.26
	c0.17,0.2,0.26,0.4,0.26,0.65c0,0.23-0.06,0.4-0.2,0.54c-0.14,0.17-0.37,0.31-0.68,0.48l-3.2,1.67H355.1z M378,338.7v7h1.22v0.57
	c-0.6,0-1.19,0-1.81,0.03c-0.62,0.03-1.28,0.06-1.98,0.11v-1.87c-0.37,0.68-0.79,1.16-1.28,1.47c-0.48,0.31-1.05,0.45-1.7,0.45
	c-0.43,0-0.82-0.06-1.13-0.17c-0.31-0.14-0.57-0.31-0.74-0.54c-0.11-0.14-0.2-0.34-0.26-0.54c-0.03-0.2-0.06-0.51-0.06-0.91v-0.79
	v-4.08h-1.22v-0.57c0.71,0,1.39-0.03,2.01-0.06c0.62-0.03,1.22-0.09,1.76-0.11v5.96c0,0.34,0.06,0.6,0.17,0.74
	c0.14,0.17,0.34,0.26,0.6,0.26c0.45,0,0.88-0.28,1.25-0.82c0.4-0.57,0.57-1.19,0.57-1.87v-3.52h-1.33v-0.57c0.6,0,1.19,0,1.84-0.03
	C376.53,338.79,377.23,338.76,378,338.7L378,338.7z M379.79,345.71h1.02v-6.24h-1.16v-0.57c0.6,0,1.19,0,1.79-0.03
	c0.62-0.03,1.25-0.09,1.93-0.14v1.9c0.34-0.65,0.74-1.13,1.22-1.45c0.48-0.31,1.05-0.45,1.73-0.45c0.68,0,1.19,0.17,1.56,0.45
	c0.37,0.31,0.57,0.77,0.57,1.36c0.37-0.62,0.77-1.08,1.25-1.36c0.48-0.31,1.05-0.45,1.73-0.45c0.43,0,0.79,0.06,1.08,0.17
	c0.31,0.11,0.57,0.28,0.77,0.54c0.11,0.14,0.2,0.28,0.26,0.48c0.03,0.2,0.06,0.48,0.06,0.85v0.54v4.4h1.16v0.57h-4.68v-0.57h0.96
	v-5.19c0-0.34-0.06-0.6-0.17-0.74c-0.11-0.17-0.31-0.23-0.6-0.23c-0.45,0-0.88,0.26-1.25,0.79c-0.4,0.54-0.57,1.16-0.57,1.87v3.49
	h0.91v0.57h-4.37v-0.57h0.96v-5.19c0-0.34-0.06-0.6-0.2-0.74c-0.11-0.17-0.31-0.23-0.6-0.23c-0.45,0-0.85,0.26-1.22,0.79
	s-0.57,1.16-0.57,1.87v3.49h0.94v0.57h-4.51V345.71z M402.55,346.98c-0.14,0.17-0.23,0.34-0.28,0.54c-0.09,0.17-0.11,0.37-0.11,0.57
	c0,0.6,0.23,1.08,0.71,1.39c0.45,0.31,1.13,0.48,1.98,0.48c1.08,0,1.93-0.2,2.61-0.62c0.65-0.4,0.96-0.94,0.96-1.59
	c0-0.31-0.09-0.48-0.28-0.6c-0.2-0.11-0.6-0.17-1.22-0.17H402.55z M403.91,341.88c0,0.48,0.09,0.82,0.23,1.02
	c0.14,0.17,0.43,0.28,0.79,0.28s0.65-0.11,0.79-0.28c0.14-0.2,0.23-0.54,0.23-1.02v-1.47c0-0.48-0.09-0.82-0.23-0.99
	c-0.14-0.17-0.43-0.26-0.79-0.26c-0.4,0-0.65,0.09-0.79,0.26c-0.14,0.17-0.23,0.51-0.23,0.99V341.88z M401.95,346.81
	c-0.37-0.2-0.65-0.43-0.85-0.74c-0.2-0.28-0.28-0.65-0.28-1.05c0-0.51,0.14-0.94,0.45-1.28c0.31-0.34,0.74-0.54,1.3-0.65v-0.08
	c-0.4-0.17-0.68-0.4-0.91-0.71c-0.2-0.28-0.31-0.65-0.31-1.05c0-0.71,0.34-1.33,0.99-1.81c0.65-0.51,1.5-0.74,2.52-0.74
	c0.57,0,1.05,0.06,1.5,0.2c0.45,0.17,0.85,0.37,1.22,0.68c0.23-0.4,0.43-0.68,0.62-0.82c0.2-0.17,0.4-0.26,0.65-0.26
	s0.48,0.09,0.65,0.26c0.14,0.17,0.23,0.4,0.23,0.68c0,0.23-0.06,0.43-0.2,0.57c-0.14,0.17-0.31,0.23-0.51,0.23
	c-0.26,0-0.45-0.06-0.62-0.23c-0.17-0.14-0.26-0.23-0.31-0.23c-0.03,0-0.06,0.03-0.06,0.03c-0.03,0.03-0.06,0.06-0.09,0.08
	c0.17,0.23,0.28,0.43,0.37,0.62c0.09,0.2,0.11,0.43,0.11,0.68c0,0.74-0.31,1.33-0.94,1.76c-0.62,0.43-1.5,0.65-2.64,0.65
	c-0.28,0-0.65-0.03-1.08-0.06c-0.4-0.03-0.68-0.03-0.79-0.03c-0.43,0-0.74,0.06-0.96,0.17c-0.23,0.11-0.34,0.26-0.34,0.48
	c0,0.2,0.11,0.34,0.28,0.4c0.2,0.08,0.71,0.11,1.56,0.11h3.23c0.88,0,1.53,0.14,1.9,0.48c0.37,0.31,0.57,0.85,0.57,1.62
	c0,1.13-0.4,2.01-1.22,2.67c-0.79,0.65-1.93,0.96-3.37,0.96c-1.25,0-2.18-0.17-2.83-0.51c-0.68-0.37-0.99-0.85-0.99-1.5
	c0-0.31,0.09-0.6,0.28-0.82c0.17-0.26,0.45-0.45,0.85-0.65V346.81z M413.49,341.71h2.47v-1.42c0-0.4-0.09-0.68-0.28-0.88
	c-0.2-0.17-0.51-0.26-0.96-0.26c-0.4,0-0.71,0.09-0.94,0.28c-0.2,0.17-0.28,0.45-0.28,0.85V341.71z M418.08,343.78l0.43,0.17
	c-0.31,0.85-0.77,1.5-1.36,1.93c-0.62,0.4-1.39,0.62-2.35,0.62c-1.3,0-2.35-0.37-3.12-1.05c-0.79-0.71-1.19-1.62-1.19-2.78
	c0-1.13,0.43-2.1,1.22-2.84c0.82-0.77,1.84-1.13,3.06-1.13c1.13,0,2.01,0.31,2.66,0.94c0.65,0.62,0.99,1.47,0.99,2.55v0.09h-4.93
	v1.87c0,0.71,0.11,1.19,0.31,1.47c0.23,0.26,0.62,0.4,1.19,0.4c0.74,0,1.39-0.2,1.9-0.57C417.4,345.08,417.8,344.54,418.08,343.78
	L418.08,343.78z M419.9,346.27v-2.72h0.48c0.2,0.79,0.54,1.42,0.99,1.84c0.45,0.4,1.02,0.6,1.7,0.6c0.51,0,0.96-0.11,1.28-0.37
	c0.34-0.26,0.51-0.57,0.51-0.96c0-0.48-0.54-0.79-1.64-0.91c-0.31-0.06-0.57-0.09-0.74-0.11c-0.96-0.14-1.64-0.37-2.04-0.74
	c-0.37-0.34-0.57-0.88-0.57-1.56c0-0.82,0.23-1.45,0.71-1.93c0.48-0.48,1.13-0.71,1.96-0.71c0.28,0,0.6,0.03,0.91,0.11
	c0.31,0.06,0.6,0.17,0.88,0.31l0.4-0.34h0.37l0.06,2.1h-0.48c-0.17-0.57-0.45-1.02-0.82-1.3c-0.34-0.28-0.79-0.43-1.3-0.43
	c-0.48,0-0.91,0.09-1.22,0.28c-0.34,0.2-0.48,0.43-0.48,0.71c0,0.43,0.62,0.71,1.9,0.85c0.2,0.03,0.37,0.06,0.48,0.08
	c0.99,0.11,1.67,0.37,2.07,0.77c0.4,0.4,0.6,0.99,0.6,1.81c0,0.88-0.26,1.56-0.77,2.07c-0.51,0.51-1.22,0.77-2.1,0.77
	c-0.43,0-0.82-0.06-1.19-0.17c-0.34-0.11-0.68-0.26-0.94-0.45l-0.54,0.4H419.9z M427.75,344.6v-5.13h-1.08v-0.57h1.08v-2.33
	c0.14,0.03,0.28,0.06,0.43,0.06c0.14,0.03,0.37,0.03,0.68,0.03c0.26,0,0.51,0,0.77-0.03c0.23,0,0.45-0.03,0.68-0.06v2.33h1.5v0.57
	h-1.5v5.13c0,0.31,0.03,0.54,0.11,0.65c0.09,0.11,0.26,0.17,0.48,0.17s0.43-0.09,0.57-0.28c0.17-0.2,0.26-0.45,0.28-0.79h0.51
	c-0.06,0.65-0.31,1.16-0.77,1.56c-0.48,0.37-1.11,0.57-1.87,0.57c-0.71,0-1.19-0.11-1.47-0.37
	C427.89,345.88,427.75,345.37,427.75,344.6L427.75,344.6z M433.28,342.61c0-1.16,0.4-2.1,1.22-2.84c0.82-0.71,1.87-1.08,3.17-1.08
	c1.3,0,2.35,0.37,3.17,1.08c0.82,0.74,1.25,1.67,1.25,2.81c0,1.13-0.43,2.07-1.25,2.81c-0.82,0.74-1.87,1.11-3.17,1.11
	c-1.3,0-2.35-0.37-3.17-1.11C433.67,344.68,433.28,343.75,433.28,342.61L433.28,342.61z M437.7,339.15c-0.6,0-0.99,0.17-1.19,0.54
	c-0.2,0.4-0.31,1.33-0.31,2.89v0.77c0,1.16,0.11,1.9,0.31,2.21c0.2,0.31,0.6,0.48,1.19,0.48c0.57,0,0.96-0.2,1.16-0.54
	c0.2-0.34,0.28-1.22,0.28-2.64v-1.11c0-1.11-0.09-1.84-0.31-2.16C438.63,339.3,438.24,339.15,437.7,339.15L437.7,339.15z
	 M455.22,343.32v-1.42c0-0.82-0.2-1.45-0.57-1.93c-0.4-0.48-0.88-0.74-1.5-0.74c-0.37,0-0.6,0.09-0.74,0.28
	c-0.14,0.17-0.2,0.54-0.2,1.11v3.91c0,0.57,0.06,0.94,0.2,1.13c0.14,0.2,0.37,0.31,0.74,0.31c0.62,0,1.11-0.26,1.5-0.74
	C455.02,344.77,455.22,344.12,455.22,343.32L455.22,343.32z M455.22,346.27v-1.16c-0.28,0.45-0.62,0.82-1.02,1.05
	c-0.4,0.23-0.88,0.34-1.39,0.34c-0.99,0-1.81-0.37-2.49-1.11c-0.65-0.74-0.99-1.67-0.99-2.78c0-1.13,0.34-2.07,0.99-2.81
	c0.65-0.74,1.47-1.11,2.49-1.11c0.51,0,0.99,0.11,1.39,0.34c0.4,0.26,0.74,0.6,1.02,1.08v-5.53h-1.45v-0.57
	c0.79-0.03,1.5-0.06,2.18-0.08c0.68-0.06,1.28-0.09,1.81-0.14v11.91h1.02v0.57H455.22z M462.67,341.71h2.47v-1.42
	c0-0.4-0.09-0.68-0.28-0.88c-0.2-0.17-0.51-0.26-0.96-0.26c-0.4,0-0.71,0.09-0.94,0.28c-0.2,0.17-0.28,0.45-0.28,0.85V341.71z
	 M467.26,343.78l0.43,0.17c-0.31,0.85-0.77,1.5-1.36,1.93c-0.62,0.4-1.39,0.62-2.35,0.62c-1.3,0-2.35-0.37-3.12-1.05
	c-0.79-0.71-1.19-1.62-1.19-2.78c0-1.13,0.43-2.1,1.22-2.84c0.82-0.77,1.84-1.13,3.06-1.13c1.13,0,2.01,0.31,2.66,0.94
	c0.65,0.62,0.99,1.47,0.99,2.55v0.09h-4.93v1.87c0,0.71,0.11,1.19,0.31,1.47c0.23,0.26,0.62,0.4,1.19,0.4c0.74,0,1.39-0.2,1.9-0.57
	S466.98,344.54,467.26,343.78L467.26,343.78z M481.92,343.78l0.43,0.17c-0.28,0.82-0.74,1.47-1.28,1.9
	c-0.57,0.43-1.28,0.62-2.1,0.62c-1.16,0-2.15-0.37-2.98-1.13c-0.79-0.74-1.19-1.67-1.19-2.78c0-1.08,0.43-1.99,1.28-2.72
	c0.82-0.77,1.84-1.13,3.06-1.13c0.85,0,1.56,0.2,2.07,0.57c0.54,0.4,0.79,0.88,0.79,1.5c0,0.34-0.11,0.65-0.34,0.85
	c-0.23,0.26-0.51,0.37-0.85,0.37c-0.4,0-0.71-0.11-0.94-0.34c-0.23-0.23-0.34-0.54-0.34-0.94c0-0.28,0.09-0.54,0.28-0.77
	c0.2-0.23,0.28-0.37,0.28-0.4c0-0.14-0.06-0.26-0.23-0.31c-0.14-0.09-0.4-0.11-0.74-0.11c-0.54,0-0.94,0.14-1.13,0.4
	c-0.2,0.26-0.31,0.88-0.31,1.9v2.27c0,0.94,0.11,1.56,0.31,1.81c0.23,0.28,0.62,0.43,1.19,0.43c0.65,0,1.19-0.17,1.64-0.54
	C481.32,345.02,481.66,344.49,481.92,343.78L481.92,343.78z M488.92,345.19c-0.4,0.45-0.79,0.77-1.25,0.96
	c-0.45,0.2-0.96,0.31-1.59,0.31c-0.65,0-1.13-0.17-1.47-0.48c-0.34-0.31-0.51-0.77-0.51-1.36c0-0.79,0.43-1.45,1.28-1.93
	c0.85-0.45,2.01-0.71,3.49-0.71v-1.79c0-0.4-0.11-0.68-0.28-0.82c-0.17-0.11-0.51-0.2-0.99-0.2c-0.31,0-0.57,0.03-0.71,0.11
	c-0.17,0.09-0.26,0.17-0.26,0.31c0,0.06,0.06,0.17,0.17,0.37c0.11,0.2,0.17,0.43,0.17,0.62c0,0.37-0.11,0.62-0.34,0.82
	c-0.2,0.2-0.51,0.28-0.94,0.28c-0.34,0-0.62-0.09-0.82-0.28c-0.17-0.2-0.28-0.48-0.28-0.85c0-0.6,0.31-1.05,0.91-1.39
	c0.62-0.31,1.47-0.48,2.58-0.48c0.51,0,0.94,0.03,1.33,0.11c0.4,0.06,0.74,0.17,0.99,0.28c0.28,0.17,0.48,0.34,0.6,0.57
	c0.11,0.2,0.17,0.6,0.17,1.16v3.8c0,0.23,0.06,0.4,0.14,0.51c0.11,0.09,0.26,0.14,0.45,0.14c0.09,0,0.17-0.03,0.28-0.09
	c0.09-0.06,0.17-0.08,0.2-0.08c0.06,0,0.09,0.03,0.11,0.06c0.06,0.03,0.06,0.09,0.06,0.14c0,0.23-0.17,0.48-0.54,0.77
	c-0.34,0.26-0.77,0.4-1.22,0.4c-0.43,0-0.77-0.11-1.08-0.34C489.26,345.9,489.03,345.59,488.92,345.19L488.92,345.19z M488.86,342.5
	h-0.23c-0.77,0-1.3,0.11-1.62,0.34c-0.31,0.2-0.45,0.57-0.45,1.11c0,0.54,0.09,0.91,0.26,1.13c0.14,0.23,0.43,0.34,0.79,0.34
	s0.65-0.11,0.88-0.37c0.23-0.23,0.37-0.57,0.37-0.96V342.5z M493.06,346.27v-0.57h0.99v-6.21h-1.02v-0.57
	c0.6-0.03,1.19-0.06,1.79-0.09c0.6-0.06,1.19-0.09,1.79-0.14v2.01c0.26-0.62,0.6-1.13,0.99-1.47c0.43-0.37,0.85-0.54,1.3-0.54
	c0.48,0,0.88,0.14,1.19,0.45c0.31,0.28,0.45,0.65,0.45,1.11c0,0.4-0.11,0.71-0.37,0.96c-0.26,0.26-0.57,0.4-0.96,0.4
	c-0.34,0-0.62-0.11-0.85-0.37c-0.23-0.26-0.37-0.54-0.37-0.91c0-0.11,0.06-0.26,0.11-0.4c0.09-0.14,0.11-0.26,0.11-0.28
	s0-0.06-0.03-0.09c-0.03-0.03-0.06-0.03-0.11-0.03c-0.26,0-0.57,0.28-0.91,0.91c-0.34,0.6-0.51,1.25-0.51,1.93v3.32h1.36v0.57
	H493.06z M502.13,335.72c0-0.37,0.11-0.68,0.37-0.94c0.26-0.26,0.57-0.37,0.94-0.37s0.68,0.11,0.91,0.37
	c0.26,0.26,0.37,0.57,0.37,0.94c0,0.37-0.11,0.68-0.37,0.94c-0.26,0.26-0.57,0.4-0.91,0.4c-0.37,0-0.68-0.14-0.94-0.4
	C502.24,336.4,502.13,336.09,502.13,335.72L502.13,335.72z M501.05,346.27v-0.57h1.13v-6.21h-1.25l0.03-0.57
	c0.68-0.03,1.33-0.06,1.96-0.09c0.65-0.06,1.25-0.09,1.84-0.14v7h1.19v0.57H501.05z M506.32,345.71h1.13v-6.27h-1.25v-0.57
	c0.65,0,1.3-0.03,1.93-0.03c0.65-0.03,1.28-0.06,1.9-0.11v1.87c0.37-0.65,0.79-1.13,1.25-1.42c0.48-0.31,1.08-0.45,1.76-0.45
	c0.82,0,1.36,0.17,1.7,0.51c0.31,0.34,0.45,1.05,0.45,2.16v4.31h1.11v0.57h-4.59v-0.57h0.94v-5.22c0-0.34-0.06-0.57-0.17-0.74
	c-0.11-0.14-0.31-0.23-0.6-0.23c-0.45,0-0.88,0.28-1.25,0.82c-0.4,0.54-0.57,1.16-0.57,1.84v3.52H511v0.57h-4.68V345.71z
	 M516.53,345.71h1.13v-11.17h-1.25v-0.57c0.68,0,1.33-0.03,1.98-0.06c0.65-0.03,1.28-0.06,1.87-0.11v6.83
	c0.37-0.65,0.79-1.13,1.28-1.45c0.45-0.31,1.05-0.45,1.73-0.45c0.79,0,1.36,0.17,1.67,0.51c0.34,0.34,0.51,0.94,0.51,1.84v4.62h1.08
	v0.57h-4.62v-0.57h0.99v-5.19c0-0.34-0.06-0.6-0.2-0.74c-0.11-0.17-0.31-0.23-0.6-0.23c-0.45,0-0.88,0.26-1.25,0.79
	c-0.4,0.54-0.6,1.16-0.6,1.87v3.49h0.96v0.57h-4.71V345.71z M527.44,342.61c0-1.16,0.4-2.1,1.22-2.84c0.82-0.71,1.87-1.08,3.17-1.08
	s2.38,0.37,3.17,1.08c0.82,0.74,1.25,1.67,1.25,2.81c0,1.13-0.43,2.07-1.25,2.81c-0.82,0.74-1.87,1.11-3.17,1.11
	s-2.35-0.37-3.17-1.11C527.84,344.68,527.44,343.75,527.44,342.61L527.44,342.61z M531.86,339.15c-0.6,0-0.99,0.17-1.19,0.54
	c-0.2,0.4-0.31,1.33-0.31,2.89v0.77c0,1.16,0.11,1.9,0.31,2.21c0.23,0.31,0.6,0.48,1.19,0.48c0.57,0,0.96-0.2,1.16-0.54
	c0.2-0.34,0.31-1.22,0.31-2.64v-1.11c0-1.11-0.11-1.84-0.31-2.16C532.8,339.3,532.43,339.15,531.86,339.15L531.86,339.15z
	 M538.38,345c0-0.43,0.14-0.79,0.45-1.08c0.28-0.31,0.65-0.45,1.05-0.45c0.43,0,0.77,0.14,1.05,0.45c0.31,0.28,0.45,0.65,0.45,1.08
	c0,0.4-0.14,0.74-0.45,1.05c-0.28,0.28-0.62,0.43-1.05,0.43c-0.4,0-0.77-0.14-1.05-0.43C538.53,345.73,538.38,345.39,538.38,345
	L538.38,345z"/>
<path class="st6" d="M446.37,57.82c-3.26,4.51-7.97,2.75-14.77-8.22c4.31-0.03,8.62-0.06,12.27,4.74
	c-0.68-3.49-2.49-6.38-2.81-10.21c-0.65-3.54,4.62-5.7,5.36-8.88c0.74,3.09,6.01,5.25,5.33,8.82c-0.31,3.83-2.15,6.69-2.83,10.18
	c3.66-4.76,7.97-4.71,12.27-4.68C454.34,60.51,449.63,62.24,446.37,57.82L446.37,57.82z"/>
<path class="st6" d="M455.36,54.3c11.45-0.96,18.88-5.08,26.31-9.16c3.8-2.07,7.57-4.14,11.91-5.84l0,0
	c9.47-3.52,17.94,0.54,26.08,3.46c5.13,1.84,9.07,3.69,18.62,3.52c-5.73,1.96-12.02-0.28-18.79-2.72
	c-7.85-2.84-16.41-5.9-25.31-2.61c-4.2,1.64-7.94,3.69-11.65,5.73c-7.6,4.2-15.19,8.37-27.01,9.36L455.36,54.3z"/>
<path class="st6" d="M507.29,52.74c10.66-4.74,15.82-3.06,21.23-1.3c2.21,0.71,4.45,1.42,7.14,1.7c4.99,0.51,8.05-0.62,9.52-2.5
	c0.62-0.82,0.99-1.81,1.05-2.84c0.06-1.08-0.14-2.24-0.62-3.35c-1.36-3.18-4.73-6.13-9.47-6.83c-8.67-1.16-17.86,2.72-27.58,6.83
	c-4.76,1.99-9.64,4.06-14.66,5.64c-6.72,2.16-12.22,2.69-17.72,3.23c-4.45,0.45-15.48,2.35-20.61,3.69l-0.43-1.7
	c5.24-1.36,16.33-3.26,20.86-3.71c5.41-0.54,10.83-1.08,17.35-3.18c4.99-1.56,9.81-3.6,14.51-5.59c9.98-4.2,19.36-8.17,28.49-6.95
	h0.03c5.39,0.82,9.24,4.2,10.8,7.88c0.6,1.36,0.85,2.78,0.77,4.11c-0.09,1.39-0.54,2.69-1.42,3.83c-2.83,2.98-7.29,3.83-11.88,2.55
	C523.79,51.24,517.46,49.29,507.29,52.74L507.29,52.74z"/>
<path class="st6" d="M437.47,54.3c-11.48-0.96-18.91-5.08-26.33-9.16c-3.77-2.07-7.57-4.14-11.88-5.84h-0.03
	c-9.47-3.52-17.94,0.54-26.08,3.46c-5.1,1.84-9.04,3.69-18.62,3.52c5.75,1.96,12.02-0.28,18.82-2.72c7.85-2.84,16.41-5.9,25.29-2.61
	c4.22,1.64,7.94,3.69,11.65,5.73c7.6,4.2,15.19,8.37,27.04,9.36L437.47,54.3z"/>
<path class="st6" d="M385.51,52.74c-10.66-4.74-15.79-3.06-21.23-1.3c-2.21,0.71-4.45,1.42-7.11,1.7c-5.02,0.51-8.08-0.62-9.52-2.5
	c-0.65-0.82-0.99-1.81-1.08-2.84c-0.06-1.08,0.17-2.24,0.65-3.35c1.33-3.18,4.73-6.13,9.47-6.83c8.65-1.16,17.83,2.72,27.58,6.83
	c4.73,1.99,9.61,4.06,14.66,5.64c6.69,2.16,12.19,2.69,17.69,3.23c4.48,0.45,15.48,2.35,20.61,3.69l0.45-1.7
	c-5.27-1.36-16.36-3.26-20.89-3.71c-5.41-0.54-10.8-1.08-17.35-3.18c-4.99-1.56-9.81-3.6-14.49-5.59
	c-9.98-4.2-19.36-8.17-28.52-6.95l0,0c-5.39,0.82-9.27,4.2-10.83,7.88c-0.6,1.36-0.85,2.78-0.77,4.11c0.09,1.39,0.54,2.69,1.42,3.83
	c2.86,2.98,7.29,3.83,11.88,2.55C369.04,51.24,375.34,49.29,385.51,52.74L385.51,52.74z"/>
<path class="st6" d="M434.13,393.23c14.12-9.41,28.2-3.2,35.63,0.91c3.77,2.07,7.54,4.14,11.88,5.84l0,0
	c9.47,3.52,17.94-0.54,26.08-3.46c5.13-1.84,9.07-3.69,18.65-3.52c-5.75-1.96-12.02,0.28-18.82,2.72
	c-7.85,2.84-16.41,5.9-25.29,2.61c-4.22-1.64-8.16-2.89-11.88-4.96C451.96,383.25,440.31,388.47,434.13,393.23L434.13,393.23z"/>
<path class="st6" d="M495.38,386.51c10.66,4.76,15.79,3.09,21.23,1.33c2.18-0.71,4.45-1.45,7.11-1.7c5.02-0.51,8.05,0.62,9.52,2.5
	c0.65,0.82,0.99,1.81,1.05,2.84c0.09,1.08-0.14,2.24-0.62,3.35c-1.36,3.18-4.73,6.13-9.47,6.83c-8.67,1.13-17.83-2.72-27.58-6.83
	c-4.73-2.01-9.78-3.23-14.8-4.82c-4.73-1.53-12.33-1.99-22.14-0.62c-6.94,0.96-15.82,5.56-23.81,6.75
	c4.93,1.11,13.01-3.8,23.95-5.96c6.29-1.22,13.49-1.56,21.63,0.68c4.99,1.56,9.81,3.6,14.49,5.59c9.98,4.2,19.36,8.17,28.52,6.95
	l0,0c5.39-0.82,9.27-4.23,10.83-7.88c0.57-1.36,0.85-2.78,0.77-4.14c-0.09-1.36-0.57-2.67-1.42-3.8c-2.86-2.98-7.31-3.83-11.88-2.55
	C511.85,388.04,505.53,390,495.38,386.51L495.38,386.51z"/>
<path class="st6" d="M458.67,393.23c-14.12-9.41-28.18-3.2-35.6,0.91c-3.8,2.07-7.57,4.14-11.91,5.84l0,0
	c-9.47,3.52-17.94-0.54-26.08-3.46c-5.13-1.84-9.07-3.69-18.65-3.52c5.75-1.96,12.05,0.28,18.82,2.72
	c7.85,2.84,16.41,5.9,25.31,2.61c4.2-1.64,8.14-2.89,11.85-4.96C440.84,383.25,452.49,388.47,458.67,393.23L458.67,393.23z"/>
<path class="st6" d="M397.45,386.51c-10.66,4.76-15.82,3.09-21.26,1.33c-2.18-0.71-4.42-1.45-7.11-1.7
	c-4.99-0.51-8.05,0.62-9.52,2.5c-0.62,0.82-0.99,1.81-1.05,2.84c-0.06,1.08,0.14,2.24,0.62,3.35c1.36,3.18,4.73,6.13,9.47,6.83
	c8.67,1.13,17.86-2.72,27.58-6.83c4.76-2.01,9.78-3.23,14.83-4.82c4.73-1.53,12.3-1.99,22.11-0.62c6.97,0.96,15.82,5.56,23.81,6.75
	c-4.93,1.11-13.01-3.8-23.95-5.96c-6.26-1.22-13.49-1.56-21.6,0.68c-4.99,1.56-9.81,3.6-14.51,5.59c-9.98,4.2-19.36,8.17-28.49,6.95
	h-0.03c-5.39-0.82-9.24-4.23-10.83-7.88c-0.57-1.36-0.85-2.78-0.74-4.14c0.09-1.36,0.54-2.67,1.42-3.8
	c2.83-2.98,7.29-3.83,11.88-2.55C380.95,388.04,387.27,390,397.45,386.51L397.45,386.51z"/>
<line class="st7" x1="322.16" y1="116.72" x2="348.86" y2="89.41"/>
<line class="st7" x1="322.44" y1="227.63" x2="349.14" y2="254.93"/>
<line class="st7" x1="572.94" y1="117.41" x2="546.24" y2="90.1"/>
<line class="st7" x1="572.66" y1="228.32" x2="545.95" y2="255.63"/>
<rect x="33.13" y="270.98" class="st5" width="1.42" height="1.42"/>
<rect x="41.64" y="270.98" class="st5" width="1.42" height="1.42"/>
<rect x="50.14" y="270.98" class="st5" width="1.42" height="1.42"/>
<rect x="58.65" y="270.98" class="st5" width="1.42" height="1.42"/>
<rect x="67.15" y="270.98" class="st5" width="1.42" height="1.42"/>
</svg>
