<?xml version="1.0" encoding="utf-8"?>
<!-- Generator: Adobe Illustrator 24.0.1, SVG Export Plug-In . SVG Version: 6.00 Build 0)  -->
<svg version="1.0" id="Camada_1" xmlns="http://www.w3.org/2000/svg" xmlns:xlink="http://www.w3.org/1999/xlink" x="0px" y="0px"
	 viewBox="297.64 0 297.64 439.37" style="enable-background:new 0 0 595.28 439.37;" xml:space="preserve">
<style type="text/css">
	.st0{fill-rule:evenodd;clip-rule:evenodd;fill:#6B1415;}
	.st1{fill:#FDE1D1;}
	.st2{fill-rule:evenodd;clip-rule:evenodd;fill:#FFFFFF;}
	.st3{fill:#E5E6E7;}
	.st4{fill:#6B1415;}
	.st5{fill:#501010;}
	.st6{fill:#FFFFFF;}
	.st7{fill:none;stroke:#221F20;stroke-width:0.5726;stroke-miterlimit:10;}
</style>

<rect x="297.64" y="0" class="st0" width="297.3" height="439.37"/>
<rect x="33.35" y="270.98" class="st5" width="1.42" height="1.42"/>
<rect x="84.16" y="270.98" class="st5" width="1.42" height="1.42"/>
<rect x="92.66" y="270.98" class="st5" width="1.42" height="1.42"/>
<rect x="101.17" y="270.98" class="st5" width="1.42" height="1.42"/>
<rect x="109.67" y="270.98" class="st5" width="1.42" height="1.42"/>
<rect x="118.17" y="270.98" class="st5" width="1.42" height="1.42"/>
<rect x="126.68" y="270.98" class="st5" width="1.42" height="1.42"/>
<rect x="135.18" y="270.98" class="st5" width="1.42" height="1.42"/>
<rect x="143.69" y="270.98" class="st5" width="1.42" height="1.42"/>
<rect x="152.19" y="270.98" class="st5" width="1.42" height="1.42"/>
<rect x="160.69" y="270.98" class="st5" width="1.42" height="1.42"/>
<rect x="169.2" y="270.98" class="st5" width="1.42" height="1.42"/>
<rect x="177.7" y="270.98" class="st5" width="1.42" height="1.42"/>
<rect x="186.2" y="270.98" class="st5" width="1.42" height="1.42"/>
<rect x="194.71" y="270.98" class="st5" width="1.42" height="1.42"/>
<rect x="203.21" y="270.98" class="st5" width="1.42" height="1.42"/>
<rect x="211.72" y="270.98" class="st5" width="1.42" height="1.42"/>
<rect x="220.22" y="270.98" class="st5" width="1.42" height="1.42"/>
<rect x="228.72" y="270.98" class="st5" width="1.42" height="1.42"/>
<rect x="237.23" y="270.98" class="st5" width="1.42" height="1.42"/>
<rect x="245.73" y="270.98" class="st5" width="1.42" height="1.42"/>
<rect x="254.24" y="270.98" class="st5" width="1.42" height="1.42"/>
<rect x="262.74" y="270.98" class="st5" width="1.42" height="1.42"/>
<path class="st6" d="M446.37,57.82c-3.26,4.51-7.97,2.75-14.77-8.22c4.31-0.03,8.62-0.06,12.27,4.74
	c-0.68-3.49-2.49-6.38-2.81-10.21c-0.65-3.54,4.62-5.7,5.36-8.88c0.74,3.09,6.01,5.25,5.33,8.82c-0.31,3.83-2.15,6.69-2.83,10.18
	c3.66-4.76,7.97-4.71,12.27-4.68C454.34,60.51,449.63,62.24,446.37,57.82L446.37,57.82z"/>
<path class="st6" d="M455.36,54.3c11.45-0.96,18.88-5.08,26.31-9.16c3.8-2.07,7.57-4.14,11.91-5.84l0,0
	c9.47-3.52,17.94,0.54,26.08,3.46c5.13,1.84,9.07,3.69,18.62,3.52c-5.73,1.96-12.02-0.28-18.79-2.72
	c-7.85-2.84-16.41-5.9-25.31-2.61c-4.2,1.64-7.94,3.69-11.65,5.73c-7.6,4.2-15.19,8.37-27.01,9.36L455.36,54.3z"/>
<path class="st6" d="M507.29,52.74c10.66-4.74,15.82-3.06,21.23-1.3c2.21,0.71,4.45,1.42,7.14,1.7c4.99,0.51,8.05-0.62,9.52-2.5
	c0.62-0.82,0.99-1.81,1.05-2.84c0.06-1.08-0.14-2.24-0.62-3.35c-1.36-3.18-4.73-6.13-9.47-6.83c-8.67-1.16-17.86,2.72-27.58,6.83
	c-4.76,1.99-9.64,4.06-14.66,5.64c-6.72,2.16-12.22,2.69-17.72,3.23c-4.45,0.45-15.48,2.35-20.61,3.69l-0.43-1.7
	c5.24-1.36,16.33-3.26,20.86-3.71c5.41-0.54,10.83-1.08,17.35-3.18c4.99-1.56,9.81-3.6,14.51-5.59c9.98-4.2,19.36-8.17,28.49-6.95
	h0.03c5.39,0.82,9.24,4.2,10.8,7.88c0.6,1.36,0.85,2.78,0.77,4.11c-0.09,1.39-0.54,2.69-1.42,3.83c-2.83,2.98-7.29,3.83-11.88,2.55
	C523.79,51.24,517.46,49.29,507.29,52.74L507.29,52.74z"/>
<path class="st6" d="M437.47,54.3c-11.48-0.96-18.91-5.08-26.33-9.16c-3.77-2.07-7.57-4.14-11.88-5.84h-0.03
	c-9.47-3.52-17.94,0.54-26.08,3.46c-5.1,1.84-9.04,3.69-18.62,3.52c5.75,1.96,12.02-0.28,18.82-2.72c7.85-2.84,16.41-5.9,25.29-2.61
	c4.22,1.64,7.94,3.69,11.65,5.73c7.6,4.2,15.19,8.37,27.04,9.36L437.47,54.3z"/>
<path class="st6" d="M385.51,52.74c-10.66-4.74-15.79-3.06-21.23-1.3c-2.21,0.71-4.45,1.42-7.11,1.7c-5.02,0.51-8.08-0.62-9.52-2.5
	c-0.65-0.82-0.99-1.81-1.08-2.84c-0.06-1.08,0.17-2.24,0.65-3.35c1.33-3.18,4.73-6.13,9.47-6.83c8.65-1.16,17.83,2.72,27.58,6.83
	c4.73,1.99,9.61,4.06,14.66,5.64c6.69,2.16,12.19,2.69,17.69,3.23c4.48,0.45,15.48,2.35,20.61,3.69l0.45-1.7
	c-5.27-1.36-16.36-3.26-20.89-3.71c-5.41-0.54-10.8-1.08-17.35-3.18c-4.99-1.56-9.81-3.6-14.49-5.59
	c-9.98-4.2-19.36-8.17-28.52-6.95l0,0c-5.39,0.82-9.27,4.2-10.83,7.88c-0.6,1.36-0.85,2.78-0.77,4.11c0.09,1.39,0.54,2.69,1.42,3.83
	c2.86,2.98,7.29,3.83,11.88,2.55C369.04,51.24,375.34,49.29,385.51,52.74L385.51,52.74z"/>
<path class="st6" d="M434.13,393.23c14.12-9.41,28.2-3.2,35.63,0.91c3.77,2.07,7.54,4.14,11.88,5.84l0,0
	c9.47,3.52,17.94-0.54,26.08-3.46c5.13-1.84,9.07-3.69,18.65-3.52c-5.75-1.96-12.02,0.28-18.82,2.72
	c-7.85,2.84-16.41,5.9-25.29,2.61c-4.22-1.64-8.16-2.89-11.88-4.96C451.96,383.25,440.31,388.47,434.13,393.23L434.13,393.23z"/>
<path class="st6" d="M495.38,386.51c10.66,4.76,15.79,3.09,21.23,1.33c2.18-0.71,4.45-1.45,7.11-1.7c5.02-0.51,8.05,0.62,9.52,2.5
	c0.65,0.82,0.99,1.81,1.05,2.84c0.09,1.08-0.14,2.24-0.62,3.35c-1.36,3.18-4.73,6.13-9.47,6.83c-8.67,1.13-17.83-2.72-27.58-6.83
	c-4.73-2.01-9.78-3.23-14.8-4.82c-4.73-1.53-12.33-1.99-22.14-0.62c-6.94,0.96-15.82,5.56-23.81,6.75
	c4.93,1.11,13.01-3.8,23.95-5.96c6.29-1.22,13.49-1.56,21.63,0.68c4.99,1.56,9.81,3.6,14.49,5.59c9.98,4.2,19.36,8.17,28.52,6.95
	l0,0c5.39-0.82,9.27-4.23,10.83-7.88c0.57-1.36,0.85-2.78,0.77-4.14c-0.09-1.36-0.57-2.67-1.42-3.8c-2.86-2.98-7.31-3.83-11.88-2.55
	C511.85,388.04,505.53,390,495.38,386.51L495.38,386.51z"/>
<path class="st6" d="M458.67,393.23c-14.12-9.41-28.18-3.2-35.6,0.91c-3.8,2.07-7.57,4.14-11.91,5.84l0,0
	c-9.47,3.52-17.94-0.54-26.08-3.46c-5.13-1.84-9.07-3.69-18.65-3.52c5.75-1.96,12.05,0.28,18.82,2.72
	c7.85,2.84,16.41,5.9,25.31,2.61c4.2-1.64,8.14-2.89,11.85-4.96C440.84,383.25,452.49,388.47,458.67,393.23L458.67,393.23z"/>
<path class="st6" d="M397.45,386.51c-10.66,4.76-15.82,3.09-21.26,1.33c-2.18-0.71-4.42-1.45-7.11-1.7
	c-4.99-0.51-8.05,0.62-9.52,2.5c-0.62,0.82-0.99,1.81-1.05,2.84c-0.06,1.08,0.14,2.24,0.62,3.35c1.36,3.18,4.73,6.13,9.47,6.83
	c8.67,1.13,17.86-2.72,27.58-6.83c4.76-2.01,9.78-3.23,14.83-4.82c4.73-1.53,12.3-1.99,22.11-0.62c6.97,0.96,15.82,5.56,23.81,6.75
	c-4.93,1.11-13.01-3.8-23.95-5.96c-6.26-1.22-13.49-1.56-21.6,0.68c-4.99,1.56-9.81,3.6-14.51,5.59c-9.98,4.2-19.36,8.17-28.49,6.95
	h-0.03c-5.39-0.82-9.24-4.23-10.83-7.88c-0.57-1.36-0.85-2.78-0.74-4.14c0.09-1.36,0.54-2.67,1.42-3.8
	c2.83-2.98,7.29-3.83,11.88-2.55C380.95,388.04,387.27,390,397.45,386.51L397.45,386.51z"/>
<line class="st7" x1="322.16" y1="116.72" x2="348.86" y2="89.41"/>
<line class="st7" x1="322.44" y1="227.63" x2="349.14" y2="254.93"/>
<line class="st7" x1="572.94" y1="117.41" x2="546.24" y2="90.1"/>
<line class="st7" x1="572.66" y1="228.32" x2="545.95" y2="255.63"/>
<rect x="33.13" y="270.98" class="st5" width="1.42" height="1.42"/>
<rect x="41.64" y="270.98" class="st5" width="1.42" height="1.42"/>
<rect x="50.14" y="270.98" class="st5" width="1.42" height="1.42"/>
<rect x="58.65" y="270.98" class="st5" width="1.42" height="1.42"/>
<rect x="67.15" y="270.98" class="st5" width="1.42" height="1.42"/>
</svg>
