<?xml version="1.0" encoding="utf-8"?>
<!-- Generator: Adobe Illustrator 24.0.1, SVG Export Plug-In . SVG Version: 6.00 Build 0)  -->
<svg version="1.0" id="Camada_1" xmlns="http://www.w3.org/2000/svg" xmlns:xlink="http://www.w3.org/1999/xlink" x="0px" y="0px"
	 viewBox="0 0 240.94 155.91" style="enable-background:new 0 0 240.94 155.91;" xml:space="preserve">
<style type="text/css">
	.st0{fill-rule:evenodd;clip-rule:evenodd;fill:#6C1416;}
	.st1{fill:#FDE1D1;}
	.st2{fill:#511011;}
	.st3{fill-rule:evenodd;clip-rule:evenodd;fill:#FFFFFF;}
	.st4{fill:#FFFFFF;}
</style>
<rect x="0.28" y="0" class="st0" width="240.64" height="155.91"/>
<path class="st1" d="M109.76,42.15v-0.77c-0.43,0-0.79,0.34-0.79,0.77H109.76z M132.01,42.15c0-0.43-0.34-0.77-0.77-0.77
	c-0.43,0-0.79,0.34-0.79,0.77H132.01z M110.04,36c-0.43,0-0.77,0.34-0.77,0.79c0,0.43,0.34,0.77,0.77,0.77V36z M131.58,36.99
	l0.31-0.71l0,0L131.58,36.99z M132.32,37.59l0.62-0.45l0,0L132.32,37.59z M132.32,41.36l0.62,0.45l0,0L132.32,41.36z M131.58,41.92
	l-0.34-0.71l0,0L131.58,41.92z M112.45,32.46h-0.79H112.45z M116.76,36.79v0.77V36.79z M125.69,30.08v-0.79V30.08z M124.24,36.79
	v0.77V36.79z M108.96,42.15v5.36h1.56v-5.36H108.96z M108.96,47.51c0,2.21,0,3.94,0.2,5.27c0.17,1.36,0.57,2.47,1.42,3.32l1.11-1.11
	c-0.51-0.51-0.82-1.22-0.99-2.41c-0.14-1.22-0.17-2.83-0.17-5.07H108.96z M110.58,56.1c0.85,0.85,1.96,1.25,3.32,1.42
	c1.33,0.2,3.06,0.2,5.27,0.2v-1.56c-2.24,0-3.86-0.03-5.07-0.17c-1.19-0.17-1.9-0.48-2.41-0.99L110.58,56.1z M119.17,57.71h2.66
	v-1.56h-2.66V57.71z M121.83,57.71c2.21,0,3.91,0,5.27-0.2c1.36-0.17,2.47-0.57,3.32-1.42l-1.11-1.11
	c-0.51,0.51-1.22,0.82-2.41,0.99c-1.22,0.14-2.83,0.17-5.07,0.17V57.71z M130.42,56.1c0.85-0.85,1.25-1.96,1.42-3.32
	c0.17-1.33,0.17-3.06,0.17-5.27h-1.56c0,2.24,0,3.86-0.14,5.07c-0.17,1.19-0.48,1.9-0.99,2.41L130.42,56.1z M132.01,47.51v-5.36
	h-1.56v5.36H132.01z M110.04,37.56h19.19V36h-19.19V37.56z M129.23,37.56c0.62,0,1.08,0,1.42,0.03c0.31,0.03,0.48,0.06,0.6,0.11
	l0.65-1.42c-0.34-0.17-0.74-0.23-1.13-0.26C130.34,36,129.86,36,129.23,36V37.56z M131.24,37.7c0.2,0.09,0.34,0.23,0.43,0.34
	l1.28-0.91c-0.26-0.37-0.62-0.65-1.05-0.85L131.24,37.7z M131.67,38.04c0.03,0.03,0.09,0.11,0.11,0.34
	c0.03,0.23,0.03,0.57,0.03,1.08h1.56c0-0.48,0-0.91-0.06-1.25c-0.03-0.37-0.11-0.74-0.37-1.08L131.67,38.04z M131.81,39.46
	c0,0.54,0,0.85-0.03,1.11c-0.03,0.23-0.09,0.28-0.11,0.34l1.28,0.91c0.26-0.34,0.34-0.71,0.37-1.08c0.06-0.37,0.06-0.79,0.06-1.28
	H131.81z M131.7,40.88c-0.11,0.14-0.28,0.28-0.45,0.34l0.65,1.45c0.43-0.2,0.77-0.48,1.05-0.85L131.7,40.88z M131.24,41.22
	c-0.11,0.06-0.28,0.11-0.6,0.14c-0.34,0-0.79,0.03-1.42,0.03v1.56c0.62,0,1.11,0,1.53-0.06c0.4-0.03,0.79-0.09,1.13-0.26
	L131.24,41.22z M129.23,41.39h-19.47v1.56h19.47V41.39z M113.22,32.46c0-0.88,0.74-1.62,1.62-1.62v-1.56
	c-1.76,0-3.17,1.42-3.17,3.17H113.22z M114.83,30.84h0.48v-1.56h-0.48V30.84z M115.31,30.84c1.16,0,2.3,0.48,3.12,1.3l1.11-1.11
	c-1.13-1.13-2.64-1.76-4.22-1.76V30.84z M118.43,32.14c0.82,0.82,1.28,1.93,1.28,3.09h1.56c0-1.56-0.62-3.09-1.73-4.2L118.43,32.14z
	 M119.71,35.23v1.56h1.56v-1.56H119.71z M120.5,36h-3.74v1.56h3.74V36z M116.76,36c-0.94,0-1.84-0.37-2.49-1.02l-1.11,1.08
	c0.96,0.96,2.24,1.5,3.6,1.5V36z M114.26,34.98c-0.68-0.68-1.05-1.59-1.05-2.52h-1.56c0,1.36,0.54,2.66,1.5,3.6L114.26,34.98z
	 M129.34,32.46c0-1.76-1.45-3.17-3.17-3.17v1.56c0.88,0,1.62,0.74,1.62,1.62H129.34z M126.17,29.28h-0.48v1.56h0.48V29.28z
	 M125.69,29.28c-1.59,0-3.12,0.62-4.22,1.76l1.11,1.11c0.82-0.82,1.93-1.3,3.12-1.3V29.28z M121.46,31.04
	c-1.11,1.11-1.76,2.64-1.76,4.2h1.56c0-1.16,0.48-2.27,1.3-3.09L121.46,31.04z M120.5,37.56h3.74V36h-3.74V37.56z M124.24,37.56
	c0.65,0,1.33-0.14,1.96-0.4l-0.6-1.42c-0.45,0.17-0.91,0.26-1.36,0.26V37.56z M126.2,37.16c0.6-0.26,1.16-0.62,1.64-1.11l-1.11-1.08
	c-0.34,0.31-0.71,0.57-1.13,0.77L126.2,37.16z M127.84,36.06c0.48-0.45,0.85-1.02,1.11-1.64l-1.45-0.6
	c-0.17,0.43-0.43,0.82-0.77,1.16L127.84,36.06z M128.95,34.41c0.26-0.62,0.4-1.28,0.4-1.96h-1.56c0,0.48-0.11,0.94-0.28,1.36
	L128.95,34.41z"/>
<path class="st1" d="M131.5,50.43c0.31-0.31,0.28-0.82,0-1.11l-4.93-4.76c-0.31-0.31-0.82-0.28-1.11,0.03l0,0
	c-0.31,0.28-0.28,0.79,0.03,1.08l4.9,4.76C130.71,50.74,131.22,50.71,131.5,50.43L131.5,50.43z"/>
<path class="st1" d="M113.5,56.98c0.31,0.31,0.79,0.34,1.11,0.03l11.76-11.37c0.31-0.31,0.31-0.79,0.03-1.11l0,0
	c-0.31-0.31-0.79-0.31-1.11-0.03l-11.76,11.37C113.22,56.18,113.19,56.66,113.5,56.98L113.5,56.98z"/>
<path class="st1" d="M109.62,51.53c0.28,0.31,0.79,0.31,1.11,0l6.32-6.12c0.31-0.28,0.34-0.79,0.03-1.11l0,0
	c-0.28-0.31-0.79-0.31-1.11,0l-6.35,6.12C109.3,50.71,109.3,51.22,109.62,51.53L109.62,51.53z"/>
<path class="st1" d="M116.14,44.31c-0.31,0.28-0.34,0.79-0.03,1.11l11.08,11.48c0.31,0.31,0.79,0.31,1.11,0l0,0
	c0.31-0.28,0.31-0.79,0.03-1.08l-11.11-11.51C116.93,43.99,116.42,43.99,116.14,44.31L116.14,44.31z"/>
<path class="st1" d="M109.79,63.13v4.65l0.68,0.28v0.11h-1.64v-0.11l0.68-0.28v-5.47l-0.51-0.14v-0.11h1.08
	c0.31,0,0.57,0.06,0.74,0.2c0.17,0.11,0.34,0.28,0.45,0.54l1.93,3.66l1.45-3.66c0.11-0.26,0.26-0.45,0.43-0.57
	c0.14-0.11,0.43-0.17,0.77-0.17h0.94v0.11l-0.54,0.14v5.61l0.54,0.14v0.11h-2.52v-0.11l0.54-0.14v-4.79l-2.07,5.13h-0.26
	L109.79,63.13z M116.84,68.17 M117.18,68.06l0.54-0.14v-3.86l-0.54-0.14v-0.11h1.13c0.54,0,0.79,0.26,0.79,0.77v3.34l0.54,0.14v0.11
	h-2.47V68.06z M118.32,63.27c-0.17,0-0.31-0.06-0.43-0.17c-0.11-0.11-0.17-0.26-0.17-0.45c0-0.17,0.06-0.31,0.17-0.43
	c0.11-0.11,0.26-0.17,0.43-0.17c0.2,0,0.34,0.06,0.45,0.17c0.11,0.11,0.17,0.26,0.17,0.43c0,0.2-0.06,0.34-0.17,0.45
	C118.66,63.21,118.52,63.27,118.32,63.27L118.32,63.27z M119.48,68.17 M119.82,68.06l0.51-0.14v-3.86l-0.51-0.14v-0.11h0.79
	c0.34,0,0.6,0.11,0.82,0.31c0.06,0.09,0.11,0.2,0.17,0.34c0.09-0.17,0.2-0.31,0.28-0.4c0.26-0.26,0.57-0.4,0.91-0.4
	s0.65,0.09,0.91,0.23c0.26,0.14,0.45,0.34,0.6,0.6c0.09-0.17,0.17-0.28,0.28-0.4c0.26-0.28,0.57-0.43,0.88-0.43
	c0.31,0,0.6,0.06,0.85,0.2c0.26,0.11,0.45,0.31,0.57,0.51c0.14,0.23,0.23,0.48,0.23,0.74v2.81l0.51,0.14v0.11h-1.13
	c-0.54,0-0.79-0.26-0.79-0.79v-2.27c0-0.37-0.06-0.65-0.17-0.85c-0.11-0.2-0.26-0.28-0.4-0.28c-0.17,0-0.34,0.11-0.51,0.34
	c-0.09,0.11-0.14,0.23-0.2,0.37v3.23l0.54,0.14v0.11h-2.47v-0.11l0.54-0.14v-2.81c0-0.37-0.06-0.65-0.17-0.85
	c-0.11-0.2-0.26-0.28-0.4-0.28c-0.17,0-0.34,0.11-0.54,0.34c-0.06,0.11-0.11,0.23-0.17,0.37v3.23l0.54,0.14v0.11h-2.47V68.06z
	 M127.45,68.17 M130.11,68.31c-0.71,0-1.28-0.2-1.7-0.62c-0.4-0.4-0.62-0.96-0.62-1.7c0-0.74,0.23-1.3,0.62-1.7
	c0.43-0.43,0.99-0.62,1.7-0.62c0.74,0,1.3,0.2,1.73,0.62c0.4,0.4,0.6,0.96,0.6,1.7c0,0.74-0.2,1.3-0.6,1.7
	C131.41,68.12,130.85,68.31,130.11,68.31L130.11,68.31z M130.11,68.14c0.26,0,0.45-0.17,0.6-0.51c0.17-0.31,0.26-0.88,0.26-1.64
	c0-0.77-0.09-1.33-0.26-1.67c-0.14-0.31-0.34-0.48-0.6-0.48c-0.23,0-0.43,0.17-0.6,0.48c-0.14,0.34-0.23,0.91-0.23,1.67
	c0,0.77,0.09,1.33,0.23,1.64C129.69,67.97,129.88,68.14,130.11,68.14L130.11,68.14z M99.61,75.71 M99.95,75.6l0.54-0.14V71.6
	l-0.54-0.14v-0.14h0.79c0.34,0,0.62,0.11,0.82,0.34c0.06,0.09,0.14,0.2,0.2,0.34c0.09-0.17,0.17-0.31,0.26-0.4
	c0.28-0.28,0.57-0.4,0.91-0.4c0.34,0,0.65,0.09,0.91,0.23c0.26,0.14,0.45,0.34,0.6,0.6c0.09-0.17,0.17-0.31,0.28-0.4
	c0.26-0.28,0.57-0.43,0.91-0.43c0.31,0,0.57,0.06,0.82,0.2c0.26,0.11,0.45,0.28,0.6,0.51c0.11,0.23,0.2,0.48,0.2,0.74v2.81
	l0.54,0.14v0.11h-1.16c-0.51,0-0.79-0.26-0.79-0.79v-2.27c0-0.4-0.06-0.68-0.17-0.85c-0.11-0.2-0.23-0.28-0.4-0.28
	s-0.34,0.11-0.51,0.34c-0.06,0.11-0.14,0.23-0.17,0.34v3.26l0.51,0.14v0.11h-2.44V75.6l0.51-0.14v-2.81c0-0.4-0.06-0.68-0.17-0.85
	c-0.11-0.2-0.26-0.28-0.4-0.28c-0.17,0-0.34,0.11-0.51,0.34c-0.09,0.11-0.14,0.23-0.2,0.34v3.26l0.54,0.14v0.11h-2.47V75.6z
	 M107.57,75.71 M110.3,75.86c-0.74,0-1.33-0.2-1.73-0.62c-0.43-0.4-0.62-0.99-0.62-1.7c0-0.48,0.09-0.88,0.26-1.25
	c0.2-0.34,0.45-0.62,0.77-0.79c0.34-0.2,0.71-0.28,1.13-0.28c0.4,0,0.77,0.09,1.11,0.23c0.31,0.17,0.57,0.37,0.74,0.65
	c0.17,0.26,0.26,0.54,0.26,0.88c0,0.14-0.03,0.26-0.06,0.37l-0.03,0.14c-0.26,0.06-0.54,0.11-0.82,0.14
	c-0.62,0.09-1.25,0.14-1.87,0.14c0,0.65,0.11,1.16,0.28,1.45c0.2,0.28,0.45,0.43,0.79,0.43c0.23,0,0.43-0.06,0.62-0.14
	c0.2-0.11,0.34-0.26,0.45-0.45c0.11-0.17,0.17-0.37,0.17-0.54h0.23c0,0.23-0.06,0.45-0.2,0.65c-0.14,0.23-0.34,0.4-0.6,0.51
	C110.92,75.8,110.64,75.86,110.3,75.86L110.3,75.86z M109.42,73.53c0.4,0,0.68-0.03,0.94-0.06c0.09,0,0.2,0,0.31-0.03
	c0-0.03,0-0.11,0.03-0.2c0.03-0.14,0.06-0.31,0.06-0.45c0-0.51-0.06-0.85-0.2-1.08c-0.14-0.23-0.28-0.34-0.45-0.34
	C109.64,71.38,109.42,72.09,109.42,73.53L109.42,73.53z M112.14,75.71 M114.6,75.86c-0.34,0-0.62-0.09-0.88-0.2
	c-0.28-0.14-0.48-0.34-0.62-0.54c-0.14-0.23-0.23-0.48-0.23-0.71V71.6l-0.51-0.14v-0.14h1.13c0.54,0,0.79,0.28,0.79,0.79v2.3
	c0,0.37,0.06,0.65,0.2,0.85c0.14,0.2,0.28,0.28,0.45,0.28c0.23,0,0.43-0.11,0.6-0.34c0.06-0.09,0.14-0.23,0.2-0.37V71.6l-0.54-0.14
	v-0.14h2.47v0.14l-0.51,0.14v4.17h-0.11c-0.43,0-0.74-0.11-0.96-0.37c-0.09-0.09-0.17-0.2-0.2-0.34c-0.09,0.14-0.2,0.28-0.31,0.4
	C115.31,75.71,115,75.86,114.6,75.86L114.6,75.86z M119.59,75.71 M122.31,75.86c-0.74,0-1.33-0.2-1.73-0.62
	c-0.43-0.4-0.62-0.99-0.62-1.7c0-0.48,0.09-0.88,0.26-1.25c0.2-0.34,0.45-0.62,0.77-0.79c0.31-0.2,0.71-0.28,1.13-0.28
	c0.4,0,0.77,0.09,1.11,0.23c0.31,0.17,0.57,0.37,0.71,0.65c0.2,0.26,0.28,0.54,0.28,0.88c0,0.14-0.03,0.26-0.06,0.37l-0.03,0.14
	c-0.26,0.06-0.54,0.11-0.82,0.14c-0.62,0.09-1.25,0.14-1.87,0.14c0,0.65,0.11,1.16,0.28,1.45c0.2,0.28,0.45,0.43,0.77,0.43
	c0.23,0,0.45-0.06,0.65-0.14c0.2-0.11,0.34-0.26,0.45-0.45c0.11-0.17,0.17-0.37,0.17-0.54h0.23c0,0.23-0.06,0.45-0.2,0.65
	c-0.14,0.23-0.34,0.4-0.6,0.51C122.94,75.8,122.66,75.86,122.31,75.86L122.31,75.86z M121.44,73.53c0.4,0,0.68-0.03,0.91-0.06
	c0.11,0,0.23,0,0.34-0.03c0-0.03,0-0.11,0.03-0.2c0.03-0.14,0.06-0.31,0.06-0.45c0-0.51-0.09-0.85-0.2-1.08
	c-0.14-0.23-0.28-0.34-0.45-0.34C121.66,71.38,121.44,72.09,121.44,73.53L121.44,73.53z M126.26,75.71 M128.86,75.86
	c-0.43,0-0.82-0.09-1.16-0.28c-0.17-0.09-0.31-0.17-0.43-0.28c-0.09,0.11-0.17,0.26-0.31,0.34c-0.11,0.09-0.17,0.14-0.17,0.14h-0.23
	V74.1h0.37c0.09,0.28,0.2,0.54,0.37,0.77c0.34,0.51,0.82,0.77,1.39,0.77c0.31,0,0.6-0.09,0.79-0.28c0.2-0.2,0.28-0.48,0.28-0.82
	c0-0.17-0.06-0.34-0.17-0.51c-0.11-0.14-0.26-0.28-0.43-0.4c-0.17-0.11-0.4-0.26-0.71-0.45c-0.4-0.2-0.71-0.4-0.94-0.57
	s-0.45-0.4-0.62-0.65c-0.17-0.28-0.26-0.6-0.26-0.96c0-0.28,0.09-0.54,0.26-0.77c0.14-0.23,0.4-0.43,0.71-0.57
	c0.34-0.14,0.74-0.2,1.19-0.2c0.34,0,0.68,0.09,1.02,0.28c0.14,0.09,0.26,0.17,0.4,0.28c0.09-0.14,0.2-0.28,0.28-0.37
	c0.11-0.06,0.17-0.11,0.2-0.11h0.2v1.67h-0.34c-0.09-0.28-0.2-0.54-0.34-0.77c-0.14-0.23-0.31-0.4-0.54-0.57
	c-0.2-0.14-0.43-0.2-0.71-0.2c-0.23,0-0.43,0.09-0.57,0.26c-0.17,0.2-0.26,0.43-0.26,0.71c0,0.2,0.06,0.4,0.17,0.57
	c0.14,0.17,0.28,0.34,0.48,0.45c0.17,0.14,0.43,0.28,0.74,0.48c0.37,0.2,0.68,0.4,0.91,0.54c0.23,0.17,0.43,0.37,0.57,0.62
	c0.17,0.26,0.26,0.51,0.26,0.82c0,0.34-0.09,0.62-0.28,0.88c-0.17,0.26-0.45,0.45-0.82,0.62C129.83,75.77,129.37,75.86,128.86,75.86
	L128.86,75.86z M131.13,75.71 M133.85,75.86c-0.74,0-1.33-0.2-1.76-0.62c-0.4-0.4-0.62-0.99-0.62-1.7c0-0.48,0.11-0.88,0.28-1.25
	c0.17-0.34,0.43-0.62,0.77-0.79c0.31-0.2,0.68-0.28,1.11-0.28c0.43,0,0.79,0.09,1.11,0.23c0.34,0.17,0.57,0.37,0.74,0.65
	c0.17,0.26,0.26,0.54,0.26,0.88c0,0.14,0,0.26-0.03,0.37l-0.06,0.14c-0.23,0.06-0.51,0.11-0.79,0.14c-0.62,0.09-1.25,0.14-1.87,0.14
	c0,0.65,0.09,1.16,0.28,1.45c0.2,0.28,0.45,0.43,0.77,0.43c0.23,0,0.45-0.06,0.62-0.14c0.2-0.11,0.37-0.26,0.48-0.45
	c0.11-0.17,0.17-0.37,0.17-0.54h0.23c0,0.23-0.09,0.45-0.23,0.65c-0.14,0.23-0.34,0.4-0.57,0.51
	C134.48,75.8,134.19,75.86,133.85,75.86L133.85,75.86z M132.97,73.53c0.37,0,0.68-0.03,0.91-0.06c0.11,0,0.2,0,0.31-0.03
	c0.03-0.03,0.03-0.11,0.06-0.2c0.03-0.14,0.03-0.31,0.03-0.45c0-0.51-0.06-0.85-0.17-1.08c-0.14-0.23-0.28-0.34-0.48-0.34
	C133.2,71.38,132.97,72.09,132.97,73.53L132.97,73.53z M135.69,75.71 M138.13,75.86c-0.31,0-0.62-0.09-0.88-0.2
	c-0.26-0.14-0.45-0.34-0.6-0.54c-0.14-0.23-0.23-0.48-0.23-0.71V71.6l-0.51-0.14v-0.14h1.13c0.51,0,0.79,0.28,0.79,0.79v2.3
	c0,0.37,0.06,0.65,0.17,0.85c0.14,0.2,0.31,0.28,0.48,0.28c0.2,0,0.4-0.11,0.6-0.34c0.06-0.09,0.11-0.23,0.2-0.37V71.6l-0.54-0.14
	v-0.14h2.47v0.14l-0.54,0.14v4.17h-0.09c-0.43,0-0.74-0.11-0.96-0.37c-0.11-0.09-0.17-0.2-0.23-0.34c-0.09,0.14-0.17,0.28-0.28,0.4
	C138.87,75.71,138.53,75.86,138.13,75.86L138.13,75.86z"/>
<path class="st2" d="M13.8,106.64v-2.21c-1.22,0-2.21,0.99-2.21,2.21H13.8z M76.93,106.64c0-1.22-0.99-2.21-2.21-2.21
	s-2.21,0.99-2.21,2.21H76.93z M14.6,89.18c-1.22,0-2.21,0.99-2.21,2.21c0,1.22,0.99,2.21,2.21,2.21V89.18z M75.69,92.01L76.62,90
	l0,0L75.69,92.01z M77.78,93.69l1.79-1.3l0,0L77.78,93.69z M77.78,104.34l1.76,1.33c0-0.03,0.03-0.03,0.03-0.03L77.78,104.34z
	 M75.69,106.02L74.78,104c0,0,0,0-0.03,0L75.69,106.02z M21.43,79.17h-2.21H21.43z M33.65,91.39v2.21V91.39z M58.96,72.37v-2.21
	V72.37z M54.88,91.39v2.21V91.39z M11.59,106.64v15.22h4.42v-15.22H11.59z M11.59,121.86c0,6.24,0,11.11,0.51,14.91
	c0.51,3.88,1.62,6.97,4.03,9.41l3.15-3.12c-1.47-1.47-2.35-3.49-2.81-6.86c-0.45-3.46-0.45-7.99-0.45-14.34H11.59z M16.13,146.18
	c2.44,2.44,5.53,3.51,9.41,4.05c3.8,0.51,8.7,0.48,14.91,0.48v-4.42c-6.35,0-10.89,0-14.31-0.45c-3.4-0.45-5.39-1.3-6.86-2.78
	L16.13,146.18z M40.45,150.72h7.63v-4.42h-7.63V150.72z M48.08,150.72c6.21,0,11.11,0.03,14.91-0.48c3.88-0.54,6.97-1.62,9.41-4.05
	l-3.12-3.12c-1.47,1.47-3.49,2.32-6.86,2.78c-3.46,0.45-7.99,0.45-14.34,0.45V150.72z M72.4,146.18c2.44-2.44,3.51-5.53,4.03-9.41
	c0.54-3.8,0.51-8.67,0.51-14.91h-4.42c0,6.35,0,10.89-0.45,14.34c-0.45,3.37-1.33,5.39-2.78,6.86L72.4,146.18z M76.93,121.86v-15.22
	h-4.42v15.22H76.93z M14.6,93.6h54.43v-4.42H14.6V93.6z M69.02,93.6c1.81,0,3.06,0,4,0.09c0.96,0.06,1.42,0.2,1.73,0.34L76.62,90
	c-1.02-0.45-2.1-0.65-3.26-0.74c-1.16-0.09-2.58-0.09-4.34-0.09V93.6z M74.75,94.03c0.57,0.26,0.96,0.6,1.25,0.96l3.57-2.61
	c-0.74-1.02-1.79-1.84-2.95-2.38L74.75,94.03z M76,94.99c0.06,0.09,0.17,0.31,0.26,0.94c0.09,0.68,0.09,1.62,0.09,3.09h4.42
	c0-1.36,0-2.58-0.11-3.6c-0.11-1.05-0.4-2.07-1.08-3.03L76,94.99z M76.34,99.01c0,1.47,0,2.41-0.09,3.09
	c-0.09,0.62-0.2,0.85-0.28,0.94l3.6,2.61c0.68-0.96,0.96-1.98,1.08-3.06c0.11-0.99,0.11-2.21,0.11-3.57H76.34z M76,103.01
	c-0.31,0.43-0.74,0.77-1.22,0.99l1.81,4.03c1.16-0.51,2.18-1.33,2.95-2.35L76,103.01z M74.75,104c-0.31,0.14-0.77,0.28-1.73,0.34
	c-0.94,0.09-2.18,0.09-4,0.09v4.42c1.76,0,3.17,0,4.34-0.09c1.16-0.09,2.24-0.28,3.26-0.74L74.75,104z M69.02,104.43H13.8v4.42
	h55.22V104.43z M23.64,79.17c0-2.55,2.04-4.59,4.59-4.59v-4.42c-4.99,0-9.01,4.03-9.01,9.01H23.64z M28.23,74.58h1.33v-4.42h-1.33
	V74.58z M29.57,74.58c3.32,0,6.49,1.3,8.84,3.66l3.12-3.15c-3.17-3.17-7.46-4.93-11.96-4.93V74.58z M38.41,78.24
	c2.32,2.32,3.66,5.5,3.66,8.82h4.42c0-4.48-1.79-8.79-4.96-11.96L38.41,78.24z M42.07,87.05v4.34h4.42v-4.34H42.07z M44.28,89.18
	H33.65v4.42h10.63V89.18z M33.65,89.18c-2.64,0-5.19-1.05-7.09-2.92l-3.12,3.12c2.69,2.72,6.38,4.22,10.2,4.22V89.18z M26.56,86.26
	c-1.87-1.9-2.92-4.45-2.92-7.09h-4.42c0,3.83,1.5,7.48,4.22,10.2L26.56,86.26z M69.34,79.17c0-4.99-4.05-9.01-9.01-9.01v4.42
	c2.52,0,4.59,2.04,4.59,4.59H69.34z M60.32,70.16h-1.36v4.42h1.36V70.16z M58.96,70.16c-4.48,0-8.79,1.76-11.96,4.93l3.15,3.15
	c2.32-2.35,5.5-3.66,8.82-3.66V70.16z M47,75.09c-3.17,3.17-4.93,7.48-4.93,11.96h4.42c0-3.32,1.3-6.49,3.66-8.82L47,75.09z
	 M44.28,93.6h10.6v-4.42h-10.6V93.6z M54.88,93.6c1.9,0,3.77-0.37,5.53-1.08l-1.7-4.11c-1.22,0.51-2.52,0.77-3.83,0.77V93.6z
	 M60.41,92.52c1.76-0.74,3.34-1.81,4.68-3.15l-3.12-3.12c-0.94,0.94-2.04,1.67-3.26,2.15L60.41,92.52z M65.08,89.38
	c1.36-1.33,2.41-2.95,3.15-4.68L64.15,83c-0.51,1.22-1.25,2.32-2.18,3.26L65.08,89.38z M68.23,84.7c0.74-1.76,1.11-3.66,1.11-5.53
	h-4.42c0,1.3-0.26,2.61-0.77,3.83L68.23,84.7z"/>
<path class="st2" d="M75.49,130.05c0.85-0.88,0.82-2.27-0.06-3.12l-13.97-13.49c-0.88-0.85-2.27-0.82-3.12,0.06l0,0
	c-0.85,0.88-0.82,2.3,0.06,3.12l13.97,13.49C73.25,130.96,74.64,130.93,75.49,130.05L75.49,130.05z"/>
<path class="st2" d="M24.41,148.71c0.85,0.88,2.27,0.91,3.15,0.06l33.36-32.23c0.88-0.85,0.91-2.27,0.06-3.15l0,0
	c-0.85-0.88-2.24-0.91-3.12-0.06l-33.39,32.23C23.58,146.41,23.56,147.83,24.41,148.71L24.41,148.71z"/>
<path class="st2" d="M13.38,133.23c0.85,0.88,2.24,0.91,3.12,0.06l18-17.4c0.88-0.82,0.91-2.24,0.06-3.12l0,0
	c-0.85-0.88-2.24-0.91-3.12-0.06l-18,17.4C12.56,130.96,12.53,132.35,13.38,133.23L13.38,133.23z"/>
<path class="st2" d="M31.86,112.71c-0.88,0.85-0.91,2.27-0.06,3.15l31.46,32.57c0.85,0.88,2.24,0.91,3.12,0.06l0,0
	c0.88-0.85,0.91-2.27,0.06-3.15l-31.46-32.57C34.13,111.88,32.74,111.86,31.86,112.71L31.86,112.71z"/>

<path class="st4" d="M122.71,121.01l-1.11-1.96h-0.28v1.96h-1.28v-5.19h2.13c0.4,0,0.77,0.06,1.05,0.2c0.28,0.14,0.51,0.34,0.65,0.6
	c0.14,0.26,0.2,0.54,0.2,0.82c0,0.37-0.09,0.65-0.28,0.94s-0.48,0.45-0.85,0.57l1.19,2.07H122.71z M121.32,118.15h0.77
	c0.26,0,0.43-0.06,0.54-0.17c0.11-0.11,0.17-0.26,0.17-0.48c0-0.2-0.06-0.34-0.17-0.45s-0.28-0.17-0.54-0.17h-0.77V118.15z
	 M126.14,116.82v1.08h1.7v0.96h-1.7v1.13h1.9v1.02h-3.17v-5.19h3.17v0.99H126.14z M128.66,118.4c0-0.51,0.11-0.96,0.34-1.36
	c0.2-0.43,0.51-0.74,0.91-0.94c0.4-0.23,0.85-0.34,1.36-0.34c0.62,0,1.13,0.14,1.59,0.48c0.43,0.31,0.74,0.77,0.88,1.33h-1.39
	c-0.11-0.23-0.26-0.4-0.45-0.51c-0.17-0.11-0.4-0.17-0.65-0.17c-0.37,0-0.68,0.14-0.94,0.43c-0.23,0.26-0.37,0.62-0.37,1.08
	c0,0.45,0.14,0.82,0.37,1.08c0.26,0.28,0.57,0.43,0.94,0.43c0.26,0,0.48-0.06,0.65-0.17c0.2-0.11,0.34-0.28,0.45-0.51h1.39
	c-0.14,0.57-0.45,1.02-0.88,1.33c-0.45,0.34-0.96,0.48-1.59,0.48c-0.51,0-0.96-0.11-1.36-0.34s-0.71-0.54-0.91-0.94
	C128.78,119.37,128.66,118.91,128.66,118.4L128.66,118.4z M137.74,120.1h-1.93l-0.31,0.91h-1.33l1.9-5.19h1.45l1.87,5.19h-1.33
	L137.74,120.1z M137.42,119.11l-0.65-1.9l-0.62,1.9H137.42z M142.61,121.01l-1.08-1.96h-0.31v1.96h-1.25v-5.19h2.1
	c0.43,0,0.77,0.06,1.05,0.2c0.31,0.14,0.51,0.34,0.65,0.6c0.14,0.26,0.23,0.54,0.23,0.82c0,0.37-0.11,0.65-0.31,0.94
	c-0.17,0.28-0.48,0.45-0.85,0.57l1.19,2.07H142.61z M141.22,118.15h0.79c0.23,0,0.4-0.06,0.51-0.17c0.11-0.11,0.17-0.26,0.17-0.48
	c0-0.2-0.06-0.34-0.17-0.45c-0.11-0.11-0.28-0.17-0.51-0.17h-0.79V118.15z M147.43,121.01l-1.08-1.96h-0.31v1.96h-1.25v-5.19h2.13
	c0.4,0,0.74,0.06,1.05,0.2c0.28,0.14,0.48,0.34,0.62,0.6c0.14,0.26,0.23,0.54,0.23,0.82c0,0.37-0.11,0.65-0.28,0.94
	c-0.2,0.28-0.48,0.45-0.88,0.57l1.19,2.07H147.43z M146.04,118.15h0.79c0.23,0,0.4-0.06,0.51-0.17c0.11-0.11,0.2-0.26,0.2-0.48
	c0-0.2-0.09-0.34-0.2-0.45c-0.11-0.11-0.28-0.17-0.51-0.17h-0.79V118.15z M150.86,116.82v1.08h1.7v0.96h-1.7v1.13h1.93v1.02h-3.17
	v-5.19h3.17v0.99H150.86z M157.07,117.47c-0.11-0.17-0.23-0.31-0.43-0.4c-0.17-0.11-0.37-0.14-0.6-0.14c-0.43,0-0.74,0.14-0.99,0.4
	c-0.26,0.28-0.37,0.62-0.37,1.08c0,0.48,0.11,0.85,0.4,1.13c0.26,0.26,0.6,0.4,1.05,0.4c0.31,0,0.57-0.09,0.79-0.26
	c0.23-0.14,0.37-0.37,0.48-0.68h-1.62v-0.91h2.75v1.16c-0.09,0.31-0.26,0.62-0.48,0.88c-0.23,0.28-0.51,0.48-0.85,0.65
	c-0.34,0.17-0.74,0.26-1.16,0.26c-0.51,0-0.96-0.11-1.39-0.34c-0.4-0.23-0.71-0.54-0.94-0.94c-0.23-0.4-0.34-0.85-0.34-1.36
	s0.11-0.96,0.34-1.36c0.23-0.43,0.54-0.74,0.94-0.94c0.4-0.23,0.88-0.34,1.39-0.34c0.62,0,1.13,0.14,1.56,0.45
	c0.43,0.28,0.71,0.71,0.85,1.25H157.07z M160.5,115.82v3.09c0,0.31,0.06,0.57,0.23,0.74c0.14,0.17,0.37,0.26,0.68,0.26
	c0.28,0,0.51-0.09,0.68-0.26c0.14-0.17,0.23-0.43,0.23-0.74v-3.09h1.28v3.09c0,0.45-0.11,0.85-0.31,1.19
	c-0.2,0.31-0.45,0.54-0.79,0.71c-0.34,0.17-0.71,0.26-1.11,0.26c-0.43,0-0.79-0.09-1.11-0.26c-0.31-0.14-0.57-0.4-0.77-0.71
	c-0.2-0.34-0.28-0.74-0.28-1.19v-3.09H160.5z M165.71,116.82v1.08h1.7v0.96h-1.7v1.13h1.93v1.02h-3.17v-5.19h3.17v0.99H165.71z
	 M174.67,121.01h-1.25l-2.13-3.2v3.2h-1.28v-5.19h1.28l2.13,3.2v-3.2h1.25V121.01z M178.04,121.07c-0.48,0-0.94-0.11-1.33-0.34
	c-0.43-0.23-0.74-0.54-0.96-0.96c-0.26-0.4-0.37-0.85-0.37-1.36s0.11-0.96,0.37-1.36c0.23-0.43,0.54-0.74,0.96-0.96
	c0.4-0.23,0.85-0.34,1.33-0.34c0.48,0,0.94,0.11,1.36,0.34c0.4,0.23,0.71,0.54,0.94,0.96c0.26,0.4,0.37,0.85,0.37,1.36
	s-0.11,0.96-0.37,1.36c-0.23,0.43-0.54,0.74-0.96,0.96C178.98,120.95,178.53,121.07,178.04,121.07L178.04,121.07z M178.04,119.91
	c0.43,0,0.74-0.14,0.99-0.43c0.26-0.26,0.37-0.62,0.37-1.08c0-0.45-0.11-0.82-0.37-1.11s-0.57-0.4-0.99-0.4s-0.74,0.11-0.99,0.4
	c-0.26,0.26-0.37,0.62-0.37,1.11c0,0.45,0.11,0.82,0.37,1.11C177.31,119.76,177.62,119.91,178.04,119.91L178.04,119.91z
	 M110.75,129.51h-1.96l-0.31,0.91h-1.3l1.87-5.19h1.45l1.9,5.19h-1.33L110.75,129.51z M110.41,128.52l-0.65-1.9l-0.62,1.9H110.41z
	 M116.9,126.91c0,0.31-0.06,0.57-0.2,0.82s-0.34,0.45-0.62,0.6c-0.28,0.17-0.65,0.26-1.08,0.26h-0.79v1.84h-1.25v-5.19H115
	c0.43,0,0.77,0.09,1.05,0.23c0.28,0.14,0.51,0.34,0.65,0.6C116.84,126.28,116.9,126.6,116.9,126.91L116.9,126.91z M114.92,127.56
	c0.23,0,0.43-0.06,0.54-0.17c0.11-0.11,0.17-0.28,0.17-0.48c0-0.2-0.06-0.37-0.17-0.48c-0.11-0.11-0.31-0.17-0.54-0.17h-0.71v1.3
	H114.92z M118.83,129.46h1.67v0.96h-2.92v-5.19h1.25V129.46z M122.37,125.23v5.19h-1.28v-5.19H122.37z M123.08,127.81
	c0-0.51,0.09-0.96,0.31-1.36c0.23-0.4,0.54-0.71,0.94-0.94c0.4-0.23,0.85-0.34,1.36-0.34c0.6,0,1.13,0.17,1.59,0.48
	c0.43,0.34,0.71,0.77,0.88,1.33h-1.39c-0.11-0.2-0.26-0.37-0.45-0.48c-0.2-0.11-0.4-0.17-0.65-0.17c-0.4,0-0.71,0.11-0.94,0.4
	c-0.26,0.28-0.37,0.62-0.37,1.08c0,0.45,0.11,0.82,0.37,1.11c0.23,0.26,0.54,0.4,0.94,0.4c0.26,0,0.45-0.06,0.65-0.17
	c0.2-0.11,0.34-0.28,0.45-0.48h1.39c-0.17,0.54-0.45,0.99-0.88,1.3c-0.45,0.34-0.99,0.51-1.59,0.51c-0.51,0-0.96-0.11-1.36-0.34
	s-0.71-0.54-0.94-0.94C123.17,128.81,123.08,128.35,123.08,127.81L123.08,127.81z M132.15,129.51h-1.93l-0.31,0.91h-1.33l1.87-5.19
	h1.47l1.87,5.19h-1.33L132.15,129.51z M131.84,128.52l-0.65-1.9l-0.65,1.9H131.84z M138.1,125.23v1.02h-1.36v4.17h-1.28v-4.17h-1.39
	v-1.02H138.1z M140,125.23v5.19h-1.25v-5.19H140z M145.79,125.23l-1.84,5.19h-1.56l-1.84-5.19h1.33l1.3,3.91l1.28-3.91H145.79z
	 M148.79,130.48c-0.51,0-0.94-0.11-1.36-0.34c-0.4-0.23-0.71-0.54-0.96-0.94c-0.23-0.43-0.37-0.88-0.37-1.39
	c0-0.51,0.14-0.96,0.37-1.36c0.26-0.4,0.57-0.74,0.96-0.96c0.43-0.23,0.85-0.34,1.36-0.34c0.48,0,0.94,0.11,1.33,0.34
	c0.4,0.23,0.74,0.57,0.96,0.96c0.23,0.4,0.34,0.85,0.34,1.36c0,0.51-0.11,0.96-0.34,1.39c-0.26,0.4-0.57,0.71-0.96,0.94
	S149.27,130.48,148.79,130.48L148.79,130.48z M148.79,129.32c0.4,0,0.74-0.11,0.99-0.4c0.23-0.28,0.37-0.65,0.37-1.11
	c0-0.45-0.14-0.82-0.37-1.11c-0.26-0.26-0.6-0.4-0.99-0.4c-0.43,0-0.77,0.14-1.02,0.4c-0.26,0.28-0.37,0.65-0.37,1.11
	c0,0.45,0.11,0.82,0.37,1.11S148.37,129.32,148.79,129.32L148.79,129.32z M156.16,130.48c-0.48,0-0.94-0.11-1.33-0.34
	c-0.43-0.23-0.74-0.54-0.99-0.94c-0.23-0.43-0.34-0.88-0.34-1.39c0-0.51,0.11-0.96,0.34-1.36c0.26-0.4,0.57-0.74,0.99-0.96
	c0.4-0.23,0.85-0.34,1.33-0.34c0.48,0,0.94,0.11,1.33,0.34c0.43,0.23,0.74,0.57,0.96,0.96c0.26,0.4,0.37,0.85,0.37,1.36
	c0,0.51-0.11,0.96-0.37,1.39c-0.23,0.4-0.54,0.71-0.96,0.94C157.1,130.37,156.64,130.48,156.16,130.48L156.16,130.48z
	 M156.16,129.32c0.43,0,0.74-0.11,0.99-0.4c0.26-0.28,0.37-0.65,0.37-1.11c0-0.45-0.11-0.82-0.37-1.11c-0.26-0.26-0.57-0.4-0.99-0.4
	s-0.77,0.14-0.99,0.4c-0.26,0.28-0.37,0.65-0.37,1.11c0,0.45,0.11,0.82,0.37,1.11C155.4,129.2,155.74,129.32,156.16,129.32
	L156.16,129.32z M160.75,125.23v3.12c0,0.31,0.09,0.54,0.23,0.71c0.17,0.17,0.4,0.26,0.68,0.26c0.31,0,0.54-0.09,0.68-0.26
	c0.17-0.17,0.26-0.4,0.26-0.71v-3.12h1.25v3.09c0,0.48-0.09,0.88-0.28,1.19c-0.2,0.31-0.48,0.57-0.79,0.71
	c-0.34,0.17-0.71,0.26-1.13,0.26c-0.4,0-0.77-0.09-1.08-0.23c-0.34-0.17-0.6-0.43-0.77-0.74c-0.2-0.31-0.28-0.71-0.28-1.19v-3.09
	H160.75z M168.18,130.48c-0.37,0-0.71-0.06-1.02-0.17c-0.31-0.14-0.54-0.31-0.71-0.57c-0.2-0.23-0.28-0.54-0.28-0.88h1.33
	c0.03,0.2,0.09,0.34,0.2,0.45c0.11,0.11,0.26,0.14,0.45,0.14c0.17,0,0.34-0.03,0.43-0.11c0.11-0.09,0.17-0.2,0.17-0.37
	c0-0.11-0.03-0.23-0.11-0.31c-0.09-0.09-0.2-0.14-0.34-0.2c-0.11-0.06-0.28-0.11-0.54-0.2c-0.31-0.11-0.6-0.2-0.82-0.31
	c-0.2-0.11-0.37-0.26-0.54-0.45c-0.14-0.2-0.23-0.48-0.23-0.79c0-0.48,0.17-0.85,0.54-1.13c0.34-0.28,0.79-0.43,1.36-0.43
	c0.57,0,1.02,0.14,1.39,0.43c0.34,0.28,0.54,0.65,0.57,1.13h-1.39c0-0.17-0.06-0.28-0.17-0.4c-0.11-0.09-0.26-0.14-0.45-0.14
	c-0.14,0-0.26,0.06-0.37,0.14c-0.09,0.06-0.14,0.2-0.14,0.34c0,0.17,0.09,0.28,0.26,0.4c0.14,0.09,0.4,0.2,0.74,0.28
	c0.34,0.11,0.6,0.23,0.82,0.34c0.2,0.11,0.37,0.26,0.54,0.45c0.14,0.2,0.23,0.45,0.23,0.77c0,0.28-0.09,0.57-0.23,0.79
	c-0.14,0.26-0.37,0.43-0.65,0.6C168.92,130.42,168.58,130.48,168.18,130.48L168.18,130.48z M172.12,125.23v5.19h-1.28v-5.19H172.12z
	 M176.77,125.23v1.02h-1.39v4.17h-1.25v-4.17h-1.39v-1.02H176.77z M178.67,126.26v1.05h1.7v0.96h-1.7v1.16h1.93v0.99h-3.2v-5.19h3.2
	v1.02H178.67z M75.66,134.65l-1.36,5.22h-1.53l-0.82-3.43l-0.85,3.43h-1.53l-1.33-5.22h1.36l0.77,3.8l0.91-3.8h1.39l0.91,3.8
	l0.74-3.8H75.66z M83.45,134.65l-1.36,5.22h-1.53l-0.82-3.43l-0.88,3.43h-1.53l-1.3-5.22h1.36l0.74,3.8l0.94-3.8h1.39l0.88,3.8
	l0.77-3.8H83.45z M91.22,134.65l-1.36,5.22h-1.53l-0.82-3.43l-0.85,3.43h-1.53l-1.3-5.22h1.33l0.77,3.8l0.91-3.8h1.39l0.91,3.8
	l0.74-3.8H91.22z M92.47,139.92c-0.23,0-0.43-0.09-0.57-0.2c-0.14-0.14-0.2-0.31-0.2-0.48c0-0.2,0.06-0.37,0.2-0.51
	c0.14-0.11,0.34-0.2,0.57-0.2c0.2,0,0.4,0.09,0.51,0.2c0.14,0.14,0.23,0.31,0.23,0.51c0,0.17-0.09,0.34-0.23,0.48
	C92.86,139.83,92.66,139.92,92.47,139.92L92.47,139.92z M99.84,134.65v5.22h-1.28v-3.12l-1.16,3.12h-1.02l-1.16-3.12v3.12h-1.28
	v-5.22h1.5l1.45,3.6l1.45-3.6H99.84z M101.99,134.65v5.22h-1.25v-5.22H101.99z M108.79,134.65v5.22h-1.25v-3.12l-1.16,3.12h-1.02
	l-1.19-3.12v3.12h-1.25v-5.22h1.5l1.45,3.6l1.45-3.6H108.79z M112.17,139.89c-0.48,0-0.94-0.11-1.33-0.34
	c-0.43-0.23-0.74-0.54-0.99-0.94c-0.23-0.4-0.34-0.88-0.34-1.36c0-0.51,0.11-0.96,0.34-1.39c0.26-0.4,0.57-0.71,0.99-0.94
	c0.4-0.23,0.85-0.34,1.33-0.34c0.48,0,0.94,0.11,1.33,0.34c0.43,0.23,0.74,0.54,0.96,0.94c0.26,0.43,0.37,0.88,0.37,1.39
	c0,0.48-0.14,0.96-0.37,1.36c-0.23,0.4-0.57,0.71-0.96,0.94S112.65,139.89,112.17,139.89L112.17,139.89z M112.17,138.76
	c0.43,0,0.74-0.14,0.99-0.43c0.26-0.28,0.37-0.62,0.37-1.08c0-0.48-0.11-0.85-0.37-1.11c-0.26-0.28-0.57-0.43-0.99-0.43
	s-0.77,0.14-0.99,0.43c-0.26,0.26-0.4,0.62-0.4,1.11c0,0.45,0.14,0.82,0.4,1.08C111.4,138.61,111.74,138.76,112.17,138.76
	L112.17,138.76z M121.41,134.65v5.22h-1.28v-3.12l-1.16,3.12h-1.02l-1.16-3.12v3.12h-1.28v-5.22h1.5l1.47,3.6l1.42-3.6H121.41z
	 M123.59,135.67v1.05h1.67v0.99h-1.67v1.13h1.9v1.02h-3.17v-5.22h3.17v1.02H123.59z M127.56,134.65v3.12c0,0.31,0.09,0.54,0.23,0.71
	c0.14,0.17,0.37,0.26,0.68,0.26c0.28,0,0.51-0.09,0.68-0.26c0.14-0.17,0.23-0.4,0.23-0.71v-3.12h1.28v3.12
	c0,0.45-0.11,0.85-0.31,1.16c-0.2,0.34-0.45,0.57-0.79,0.74c-0.31,0.17-0.71,0.23-1.11,0.23s-0.77-0.06-1.11-0.23
	c-0.31-0.17-0.57-0.4-0.77-0.74c-0.17-0.31-0.28-0.71-0.28-1.16v-3.12H127.56z M132.8,135.67v1.05h1.67v0.99h-1.67v1.13h1.9v1.02
	h-3.17v-5.22h3.17v1.02H132.8z M137.42,139.89c-0.4,0-0.74-0.06-1.02-0.17c-0.31-0.11-0.57-0.31-0.74-0.54
	c-0.17-0.26-0.28-0.54-0.28-0.88h1.36c0,0.2,0.09,0.34,0.2,0.43c0.11,0.11,0.26,0.17,0.43,0.17c0.2,0,0.34-0.06,0.45-0.14
	c0.11-0.09,0.17-0.2,0.17-0.37c0-0.11-0.06-0.23-0.14-0.31c-0.09-0.09-0.2-0.14-0.31-0.2c-0.14-0.06-0.31-0.11-0.54-0.2
	c-0.34-0.09-0.62-0.2-0.82-0.31c-0.23-0.09-0.4-0.26-0.54-0.45c-0.17-0.2-0.23-0.45-0.23-0.79c0-0.48,0.17-0.85,0.51-1.13
	c0.34-0.26,0.82-0.4,1.36-0.4c0.6,0,1.05,0.14,1.39,0.4c0.37,0.28,0.54,0.65,0.57,1.16h-1.36c-0.03-0.17-0.09-0.31-0.2-0.4
	c-0.11-0.11-0.26-0.14-0.43-0.14s-0.28,0.03-0.37,0.11c-0.11,0.09-0.14,0.2-0.14,0.34c0,0.17,0.09,0.31,0.23,0.4
	c0.17,0.09,0.4,0.2,0.74,0.31s0.62,0.23,0.82,0.31c0.2,0.11,0.4,0.26,0.54,0.45c0.17,0.2,0.23,0.45,0.23,0.77
	c0,0.31-0.06,0.57-0.23,0.82c-0.14,0.23-0.37,0.43-0.65,0.57C138.13,139.83,137.79,139.89,137.42,139.89L137.42,139.89z
	 M141.34,135.67v1.05h1.7v0.99h-1.7v1.13h1.93v1.02h-3.17v-5.22h3.17v1.02H141.34z M145.33,134.65v3.12c0,0.31,0.06,0.54,0.23,0.71
	c0.14,0.17,0.37,0.26,0.68,0.26c0.28,0,0.51-0.09,0.68-0.26c0.14-0.17,0.23-0.4,0.23-0.71v-3.12h1.28v3.12
	c0,0.45-0.11,0.85-0.31,1.16c-0.2,0.34-0.45,0.57-0.79,0.74c-0.34,0.17-0.71,0.23-1.11,0.23c-0.43,0-0.79-0.06-1.11-0.23
	c-0.31-0.17-0.57-0.4-0.77-0.74c-0.2-0.31-0.28-0.71-0.28-1.16v-3.12H145.33z M149.9,139.92c-0.23,0-0.4-0.09-0.54-0.2
	c-0.14-0.14-0.23-0.31-0.23-0.48c0-0.2,0.09-0.37,0.23-0.51c0.14-0.11,0.31-0.2,0.54-0.2c0.2,0,0.4,0.09,0.54,0.2
	c0.14,0.14,0.2,0.31,0.2,0.51c0,0.17-0.06,0.34-0.2,0.48C150.29,139.83,150.09,139.92,149.9,139.92L149.9,139.92z M151.17,137.25
	c0-0.51,0.11-0.96,0.34-1.39c0.2-0.4,0.51-0.71,0.91-0.94c0.4-0.23,0.85-0.34,1.36-0.34c0.62,0,1.13,0.17,1.59,0.51
	c0.43,0.31,0.74,0.77,0.88,1.33h-1.39c-0.11-0.23-0.26-0.4-0.45-0.51c-0.17-0.11-0.4-0.17-0.65-0.17c-0.37,0-0.68,0.14-0.94,0.4
	c-0.23,0.28-0.37,0.65-0.37,1.11c0,0.45,0.14,0.82,0.37,1.08c0.26,0.28,0.57,0.4,0.94,0.4c0.26,0,0.48-0.06,0.65-0.17
	c0.2-0.11,0.34-0.26,0.45-0.48h1.39c-0.14,0.57-0.45,0.99-0.88,1.33c-0.45,0.31-0.96,0.48-1.59,0.48c-0.51,0-0.96-0.11-1.36-0.34
	s-0.71-0.54-0.91-0.94C151.29,138.22,151.17,137.76,151.17,137.25L151.17,137.25z M159.48,139.89c-0.48,0-0.94-0.11-1.33-0.34
	c-0.43-0.23-0.74-0.54-0.99-0.94c-0.23-0.4-0.34-0.88-0.34-1.36c0-0.51,0.11-0.96,0.34-1.39c0.26-0.4,0.57-0.71,0.99-0.94
	c0.4-0.23,0.85-0.34,1.33-0.34c0.48,0,0.94,0.11,1.33,0.34c0.43,0.23,0.74,0.54,0.96,0.94c0.23,0.43,0.37,0.88,0.37,1.39
	c0,0.48-0.14,0.96-0.37,1.36c-0.23,0.4-0.57,0.71-0.96,0.94S159.96,139.89,159.48,139.89L159.48,139.89z M159.48,138.76
	c0.43,0,0.74-0.14,0.99-0.43c0.26-0.28,0.37-0.62,0.37-1.08c0-0.48-0.11-0.85-0.37-1.11c-0.26-0.28-0.57-0.43-0.99-0.43
	s-0.77,0.14-0.99,0.43c-0.26,0.26-0.4,0.62-0.4,1.11c0,0.45,0.14,0.82,0.4,1.08C158.71,138.61,159.05,138.76,159.48,138.76
	L159.48,138.76z M168.72,134.65v5.22h-1.28v-3.12l-1.16,3.12h-1.02l-1.16-3.12v3.12h-1.28v-5.22h1.5l1.47,3.6l1.42-3.6H168.72z
	 M170.22,139.92c-0.23,0-0.4-0.09-0.54-0.2c-0.14-0.14-0.23-0.31-0.23-0.48c0-0.2,0.09-0.37,0.23-0.51c0.14-0.11,0.31-0.2,0.54-0.2
	c0.2,0,0.4,0.09,0.54,0.2c0.14,0.14,0.2,0.31,0.2,0.51c0,0.17-0.06,0.34-0.2,0.48C170.62,139.83,170.42,139.92,170.22,139.92
	L170.22,139.92z M174.84,137.2c0.31,0.06,0.57,0.2,0.74,0.43c0.17,0.26,0.28,0.51,0.28,0.82c0,0.43-0.17,0.77-0.45,1.02
	c-0.31,0.26-0.74,0.4-1.28,0.4h-2.41v-5.22h2.32c0.54,0,0.94,0.14,1.25,0.37c0.28,0.26,0.43,0.57,0.43,0.99
	c0,0.31-0.06,0.57-0.23,0.77C175.32,136.97,175.12,137.11,174.84,137.2L174.84,137.2z M172.97,136.77h0.82
	c0.23,0,0.37-0.06,0.48-0.14c0.11-0.09,0.17-0.23,0.17-0.4c0-0.2-0.06-0.34-0.17-0.43c-0.11-0.09-0.26-0.14-0.48-0.14h-0.82V136.77z
	 M173.91,138.84c0.23,0,0.37-0.06,0.48-0.14c0.11-0.11,0.2-0.26,0.2-0.43c0-0.2-0.09-0.34-0.2-0.43c-0.11-0.11-0.28-0.17-0.48-0.17
	h-0.94v1.16H173.91z M179.23,139.86l-1.08-1.98h-0.31v1.98h-1.25v-5.22h2.1c0.43,0,0.77,0.09,1.05,0.23
	c0.28,0.14,0.51,0.34,0.65,0.6c0.14,0.26,0.23,0.51,0.23,0.82c0,0.34-0.11,0.65-0.31,0.94c-0.17,0.26-0.48,0.45-0.85,0.57l1.19,2.07
	H179.23z M177.85,137h0.79c0.23,0,0.4-0.06,0.51-0.17c0.11-0.11,0.17-0.28,0.17-0.48c0-0.2-0.06-0.34-0.17-0.45
	c-0.11-0.14-0.28-0.2-0.51-0.2h-0.79V137z"/>

</svg>
