<?xml version="1.0" encoding="UTF-8"?>
<!DOCTYPE svg PUBLIC "-//W3C//DTD SVG 1.1//EN" "http://www.w3.org/Graphics/SVG/1.1/DTD/svg11.dtd">
<!-- Creator: CorelDRAW 2020 (64 Bit) -->
<svg xmlns="http://www.w3.org/2000/svg" xml:space="preserve" width="310mm" height="397mm" version="1.1" style="shape-rendering:geometricPrecision; text-rendering:geometricPrecision; image-rendering:optimizeQuality; fill-rule:evenodd; clip-rule:evenodd"
viewBox="0 0 21000 29700"
 xmlns:xlink="http://www.w3.org/1999/xlink"
 xmlns:xodm="http://www.corel.com/coreldraw/odm/2003">
 <defs>
  <style type="text/css">
   <![CDATA[
    .fil1 {fill:#fff}
    .fil0 {fill:#fff;fill-rule:nonzero}
   ]]>
  </style>
 </defs>
 <g id="Camada_x0020_1">
  <metadata id="CorelCorpID_0Corel-Layer"/>
  <path class="fil0" d="M8305.76 14197.66m254.89 46.63c178.74,0 285.98,-153.87 385.45,-345.04l-52.84 0c-94.81,177.18 -211.38,284.42 -321.73,284.42 -82.37,0 -122.78,-60.61 -122.78,-138.32 0,-127.45 108.8,-282.88 242.46,-324.84 59.06,-18.65 73.05,-35.75 68.39,-71.49 -97.92,-1.56 -127.45,-57.51 -127.45,-108.8 0,-71.5 77.71,-183.4 200.5,-183.4 68.38,0 108.79,38.86 108.79,79.27 0,35.74 -32.64,71.49 -108.79,104.13 57.5,52.84 181.84,9.32 181.84,-94.81 0,-74.6 -62.17,-147.65 -197.39,-147.65 -160.08,0 -312.4,94.81 -312.4,239.35 0,66.83 29.53,111.91 90.15,136.77 -186.51,48.18 -289.09,205.16 -289.09,340.38 0,149.21 124.34,230.03 254.89,230.03zm259.56 -46.63m141.43 3.11c158.53,0 285.98,-155.42 366.8,-301.52l-52.84 0c-51.29,82.37 -118.12,192.72 -233.14,239.35 46.63,-24.87 66.83,-73.05 66.83,-130.56 0,-51.29 -23.31,-96.36 -23.31,-167.85 0,-97.92 60.62,-141.44 87.04,-155.43 -15.54,-15.54 -38.86,-21.76 -62.17,-21.76 -71.5,0 -129,43.52 -147.65,108.8 -21.76,43.52 -37.31,71.49 -69.94,127.45l52.84 0 13.99 -26.42c6.21,74.6 21.76,130.55 21.76,194.27 0,31.09 -6.22,76.16 -62.17,76.16 -20.21,0 -41.97,-10.88 -41.97,-35.75 0,-12.43 6.22,-27.97 18.65,-32.63 -3.1,-10.88 -15.54,-17.1 -27.97,-17.1 -26.42,0 -48.18,20.2 -48.18,51.29 0,38.85 37.3,91.7 141.43,91.7zm152.32 -3.11m118.12 279.76c-41.97,-99.47 206.71,-753.8 362.13,-753.8 32.64,0 52.85,29.53 52.85,80.82 0,121.23 -121.23,292.19 -209.82,292.19 -17.1,0 -29.53,-7.77 -34.2,-17.09 -10.88,4.66 -24.86,24.87 -24.86,49.73 0,40.41 31.08,71.5 94.8,71.5 155.43,0 287.54,-181.85 287.54,-366.8 0,-94.81 -35.75,-174.07 -133.67,-174.07 -57.5,0 -105.69,24.86 -144.54,69.94 3.11,-83.93 -90.15,-80.82 -138.33,-48.19 -23.31,183.4 -230.02,511.35 -230.02,674.54 0,76.16 46.62,121.23 118.12,121.23zm582.83 -279.76m178.74 3.11c99.47,0 200.5,-90.15 240.91,-208.27 110.35,-6.22 231.58,-118.12 301.52,-256.45l-60.62 0c-57.5,107.24 -155.42,188.06 -226.92,200.5 3.11,-17.1 4.67,-35.75 4.67,-54.4 0,-59.06 -35.75,-101.02 -85.49,-101.02 -49.73,0 -83.92,43.51 -83.92,88.59 0,45.07 34.19,94.81 90.14,115.01 -31.08,80.82 -93.25,147.65 -149.21,147.65 -41.96,0 -76.15,-38.85 -76.15,-102.58 0,-108.79 97.91,-303.07 216.04,-303.07 59.06,0 62.16,48.18 62.16,71.49 34.2,0 52.85,-6.21 55.96,-43.52 4.66,-48.18 -43.52,-91.7 -129,-91.7 -186.51,0 -338.83,198.95 -338.83,352.81 0,118.13 91.7,184.96 178.74,184.96zm147.65 -329.5c0,-15.54 6.22,-31.08 23.32,-31.08 18.65,0 29.53,18.65 29.53,43.51 0,15.55 -1.56,31.09 -4.67,48.19 -32.64,-12.44 -48.18,-35.75 -48.18,-60.62zm144.55 326.39m141.43 3.11c158.53,0 285.98,-155.42 366.8,-301.52l-52.84 0c-51.29,82.37 -118.12,192.72 -233.14,239.35 46.63,-24.87 66.83,-73.05 66.83,-130.56 0,-51.29 -23.31,-96.36 -23.31,-167.85 0,-97.92 60.62,-141.44 87.04,-155.43 -15.54,-15.54 -38.86,-21.76 -62.17,-21.76 -71.5,0 -129,43.52 -147.65,108.8 -21.76,43.52 -37.31,71.49 -69.94,127.45l52.84 0 13.99 -26.42c6.21,74.6 21.76,130.55 21.76,194.27 0,31.09 -6.22,76.16 -62.17,76.16 -20.21,0 -41.97,-10.88 -41.97,-35.75 0,-12.43 6.22,-27.97 18.65,-32.63 -3.1,-10.88 -15.54,-17.1 -27.97,-17.1 -26.42,0 -48.18,20.2 -48.18,51.29 0,38.85 37.3,91.7 141.43,91.7zm287.53 -3.11m156.98 3.11c73.05,0 144.55,-40.41 203.61,-125.89 9.32,83.92 62.17,125.89 133.66,125.89 150.76,0 230.03,-189.62 287.53,-301.52l-52.84 0c-55.95,99.47 -129,233.13 -209.82,233.13 -32.64,0 -54.4,-21.76 -54.4,-62.17 0,-83.93 76.16,-239.35 156.98,-368.35 -7.77,-27.98 -31.09,-38.86 -57.51,-38.86 -43.52,0 -83.93,32.64 -116.57,82.38 -13.99,-55.95 -62.17,-82.38 -124.34,-82.38 -169.41,0 -323.28,191.17 -323.28,365.25 0,124.34 77.72,172.52 156.98,172.52zm-23.31 -160.09c0,-125.89 94.81,-315.51 198.94,-315.51 31.08,0 52.84,17.1 52.84,54.4 0,57.51 -41.96,119.68 -94.8,163.2 6.21,13.98 29.53,23.31 46.62,23.31 10.88,0 20.21,-3.11 29.53,-7.77l-1.55 10.88c-51.29,121.23 -129,167.85 -172.52,167.85 -41.97,0 -59.06,-45.07 -59.06,-96.36zm864.15 156.98m592.17 -236.24c60.61,0 93.25,-52.85 93.25,-93.26 0,-65.28 -46.63,-104.13 -108.8,-104.13 -29.53,0 -62.17,9.32 -91.7,24.87 79.27,-184.96 164.75,-281.32 264.22,-275.1 -4.66,-26.42 -24.87,-48.18 -65.28,-49.74 -306.18,-9.32 -414.98,750.7 -648.11,722.72 7.77,32.64 41.96,57.51 108.8,57.51 136.77,0 209.82,-119.68 281.31,-299.97 32.64,-83.93 55.95,-113.46 102.58,-113.46 32.64,0 62.17,20.21 62.17,60.62 0,26.42 -15.54,46.62 -37.3,54.39 10.88,10.88 24.87,15.55 38.86,15.55zm-592.17 -382.34c0,161.64 119.68,226.91 189.62,226.91 77.71,0 138.33,-52.84 121.23,-135.22 -26.42,21.76 -71.5,29.54 -102.58,29.54 -66.83,0 -138.33,-40.41 -138.33,-132.11 0,-144.55 167.86,-212.93 289.09,-212.93 192.72,0 388.56,111.9 537.76,111.9 105.69,0 184.96,-94.81 150.77,-175.63 -55.96,35.75 -94.81,43.52 -172.52,43.52 -160.09,0 -324.84,-37.3 -488.03,-37.3 -251.79,0 -387.01,133.66 -387.01,281.32zm716.51 618.58m198.94 3.11c141.44,0 236.24,-104.14 341.93,-301.52l-52.84 0c-105.69,186.51 -206.72,234.69 -265.78,234.69 -55.95,0 -83.93,-41.97 -83.93,-115.02 0,-12.43 1.56,-26.42 3.11,-38.85 4.67,20.2 26.43,32.64 59.06,32.64 91.7,0 198.95,-125.9 198.95,-234.69 0,-62.17 -34.2,-115.02 -113.46,-115.02 -141.44,0 -282.87,177.19 -284.43,338.83 -1.55,121.23 74.61,198.94 197.39,198.94zm-51.29 -254.9c24.87,-111.9 101.03,-214.48 147.65,-214.48 35.75,0 40.41,34.19 40.41,43.52 0,79.26 -87.03,158.53 -141.43,158.53 -13.99,0 -21.76,-3.11 -29.53,-6.22 -4.67,3.11 -12.44,9.33 -17.1,18.65zm329.5 251.79m169.41 3.11c146.1,0 231.58,-172.52 296.86,-301.52l-52.85 0c-71.49,144.54 -155.42,239.35 -220.7,239.35 -41.96,0 -74.6,-31.09 -74.6,-122.79 0,-13.98 1.55,-29.53 4.66,-46.62 205.16,-122.79 374.57,-453.84 374.57,-581.29 0,-51.29 -24.87,-101.02 -87.04,-101.02 -181.84,0 -410.31,449.17 -410.31,704.07 0,125.89 73.05,209.82 169.41,209.82zm-31.09 -309.29c52.85,-212.93 202.05,-543.99 276.66,-543.99 20.2,0 26.42,21.76 26.42,40.41 0,79.27 -130.56,373.02 -303.08,503.58zm230.03 306.18m156.98 3.11c149.21,0 217.59,-191.17 271.99,-301.52l-52.84 0c-45.08,101.02 -116.57,236.24 -188.06,236.24 -26.43,0 -54.4,-18.65 -54.4,-68.39 0,-94.8 105.68,-202.05 105.68,-304.63 0,-87.03 -73.04,-113.45 -105.68,-90.14 6.21,79.27 -133.67,234.69 -133.67,368.35 0,93.26 68.39,160.09 156.98,160.09zm60.62 -643.45c0,35.74 31.08,59.06 57.5,59.06 37.3,0 85.49,-37.3 85.49,-96.37 0,-37.3 -31.09,-60.61 -60.62,-60.61 -35.75,0 -82.37,34.19 -82.37,97.92zm158.53 640.34m20.2 4.66c26.42,-24.87 62.17,-40.41 116.57,-40.41 110.35,0 161.64,38.86 239.35,38.86 124.34,0 175.63,-93.26 138.33,-147.65 -29.53,20.2 -66.84,27.97 -97.92,27.97 -63.72,0 -102.58,-21.76 -161.64,-21.76 -38.86,0 -85.48,4.67 -132.11,41.97 4.66,-38.86 85.48,-91.7 178.74,-147.65 27.97,10.88 59.06,20.2 96.36,20.2 85.48,0 146.1,-38.86 130.56,-90.15 -12.44,17.1 -46.63,27.98 -91.7,27.98 -17.1,0 -34.2,-3.11 -49.74,-9.32 49.74,-31.09 97.92,-60.62 135.22,-90.15 85.48,-66.83 90.14,-113.46 71.49,-149.21 -23.31,18.65 -55.95,23.32 -77.71,23.32 -77.71,0 -141.43,-23.32 -239.35,-23.32 -158.53,0 -216.04,124.34 -276.65,236.25l52.84 0c48.18,-96.37 93.25,-158.53 160.09,-158.53 40.41,0 88.59,45.07 167.85,46.62 24.87,0 54.4,-4.66 90.15,-18.65 -32.64,40.41 -83.93,77.71 -138.33,110.35 -27.97,-12.43 -57.5,-23.31 -88.59,-23.31 -82.37,0 -129,37.3 -141.43,91.7 23.31,-20.21 52.84,-26.42 83.92,-26.42 20.21,0 37.31,3.1 54.4,9.32 -49.73,26.42 -94.81,49.74 -122.78,71.5 -93.26,74.6 -102.58,139.88 -97.92,200.49z"/>
  <path class="fil0" d="M9205.74 13482.91m0 0l0 -188 70.89 0c12.61,0 22.06,0.52 28.62,1.84 9.46,1.57 17.07,4.46 23.37,8.66 6.3,4.46 11.29,10.5 14.97,18.12 3.94,7.88 5.78,16.28 5.78,25.73 0,15.75 -4.99,29.41 -15.23,40.44 -10.24,11.02 -28.62,16.54 -55.14,16.54l-48.32 0 0 76.67 -24.94 0zm24.94 -98.73l48.58 0c16.02,0 27.57,-2.89 34.4,-8.92 6.56,-6.04 9.97,-14.45 9.97,-25.47 0,-7.62 -1.83,-14.45 -6.04,-19.96 -3.93,-5.78 -9.19,-9.45 -15.49,-11.29 -4.2,-1.05 -12.08,-1.58 -23.37,-1.58l-48.05 0 0 67.22z"/>
  <path class="fil0" d="M9569.21 13482.91m0 0l0 -188 83.24 0c16.8,0 29.67,1.57 38.33,4.99 8.67,3.41 15.76,9.45 20.75,17.85 5.25,8.67 7.87,18.12 7.87,28.36 0,13.39 -4.2,24.68 -12.86,33.87 -8.67,8.93 -22.06,14.71 -39.91,17.33 6.56,3.15 11.55,6.3 14.96,9.45 7.09,6.57 14.18,14.97 20.48,24.95l32.56 51.2 -30.98 0 -24.94 -39.12c-7.36,-11.29 -13.13,-19.96 -17.86,-26 -4.73,-6.04 -8.93,-10.24 -12.6,-12.6 -3.68,-2.36 -7.62,-3.94 -11.56,-4.99 -2.62,-0.53 -7.35,-0.79 -13.65,-0.79l-28.88 0 0 83.5 -24.95 0zm24.95 -105.03l53.3 0c11.55,0 20.22,-1.31 26.78,-3.68 6.3,-2.1 11.29,-6.03 14.44,-11.29 3.42,-4.98 4.99,-10.76 4.99,-16.8 0,-8.93 -3.15,-16.28 -9.71,-21.79 -6.3,-5.78 -16.54,-8.67 -30.46,-8.67l-59.34 0 0 62.23z"/>
  <path class="fil0" d="M9938.49 13482.91m0 -91.64c0,-30.98 8.41,-55.4 25.21,-72.99 16.81,-17.86 38.34,-26.52 64.86,-26.52 17.33,0 33.08,4.2 47,12.34 13.91,8.4 24.42,19.95 31.77,34.66 7.35,14.96 11.03,31.77 11.03,50.41 0,19.17 -3.94,36.24 -11.56,51.2 -7.61,14.97 -18.64,26.26 -32.56,34.14 -14.18,7.61 -29.4,11.55 -45.68,11.55 -17.86,0 -33.61,-4.2 -47.53,-12.87 -13.92,-8.4 -24.68,-20.21 -31.77,-34.92 -7.09,-14.7 -10.77,-30.46 -10.77,-47zm25.74 0.53c0,22.58 6.03,40.43 18.38,53.56 12.07,12.87 27.3,19.43 45.68,19.43 18.65,0 34.14,-6.56 46.22,-19.69 12.07,-13.13 18.11,-31.77 18.11,-55.93 0,-15.23 -2.62,-28.62 -7.61,-39.91 -5.25,-11.55 -12.87,-20.22 -22.84,-26.52 -9.98,-6.3 -21.01,-9.45 -33.35,-9.45 -17.59,0 -32.82,6.04 -45.43,18.12 -12.86,12.07 -19.16,32.29 -19.16,60.39z"/>
  <path class="fil0" d="M10325.28 13482.91m0.26 -53.3l22.32 -3.15c0.53,14.44 3.42,24.15 8.14,29.67 4.73,5.25 11.29,7.87 19.7,7.87 6.3,0 11.81,-1.57 16.28,-4.2 4.46,-2.88 7.61,-6.82 9.19,-11.81 1.83,-4.99 2.62,-12.87 2.62,-23.63l0 -129.45 24.95 0 0 128.13c0,15.76 -1.84,27.84 -5.78,36.5 -3.68,8.67 -9.72,15.23 -17.86,19.69 -8.4,4.47 -18.11,6.83 -29.14,6.83 -16.54,0 -29.15,-4.73 -37.81,-14.18 -8.67,-9.45 -12.87,-23.63 -12.61,-42.27z"/>
  <path class="fil0" d="M10657.76 13482.91m0 0l0 -188 135.75 0 0 22.05 -110.8 0 0 57.77 103.71 0 0 22.06 -103.71 0 0 64.06 115.27 0 0 22.06 -140.22 0z"/>
  <path class="fil0" d="M11006 13482.91m61.97 0l0 -165.95 -61.97 0 0 -22.05 148.88 0 0 22.05 -61.97 0 0 165.95 -24.94 0z"/>
  <path class="fil0" d="M11356.02 13482.91m0 -91.64c0,-30.98 8.41,-55.4 25.21,-72.99 16.81,-17.86 38.34,-26.52 64.86,-26.52 17.33,0 33.08,4.2 47,12.34 13.91,8.4 24.42,19.95 31.77,34.66 7.35,14.96 11.03,31.77 11.03,50.41 0,19.17 -3.94,36.24 -11.56,51.2 -7.61,14.97 -18.64,26.26 -32.56,34.14 -14.18,7.61 -29.4,11.55 -45.68,11.55 -17.86,0 -33.61,-4.2 -47.53,-12.87 -13.92,-8.4 -24.68,-20.21 -31.77,-34.92 -7.09,-14.7 -10.77,-30.46 -10.77,-47zm25.74 0.53c0,22.58 6.03,40.43 18.38,53.56 12.07,12.87 27.3,19.43 45.68,19.43 18.65,0 34.14,-6.56 46.22,-19.69 12.07,-13.13 18.11,-31.77 18.11,-55.93 0,-15.23 -2.62,-28.62 -7.61,-39.91 -5.25,-11.55 -12.87,-20.22 -22.84,-26.52 -9.98,-6.3 -21.01,-9.45 -33.35,-9.45 -17.59,0 -32.82,6.04 -45.43,18.12 -12.86,12.07 -19.16,32.29 -19.16,60.39z"/>
  <path class="fil1" d="M7095.79 13556.06c0,0 -93.29,-51.43 -121.4,-45.54 -12.06,2.53 -96.01,32.95 -96.01,32.95 0,0 93.2,-46.68 104.76,-46.47 28.23,0.54 110.94,40.02 110.94,40.02l1.71 19.04z"/>
  <path class="fil1" d="M6576.98 13122.4c0,0 -15.12,6.84 -39.52,22.21 -12.22,7.64 -26.62,17.58 -42.5,29.7 -15.88,12.15 -32.98,26.89 -50.52,44 -17.52,17.12 -35.05,37.09 -51.85,59.43 -16.77,22.35 -32.27,47.5 -45.7,74.73 -13.48,27.21 -24.57,56.7 -32.59,87.5 -8.27,30.76 -13.46,62.84 -15.63,95.17 -1.14,16.1 -1.55,32.48 -1.18,48.44l0.27 12.33c0.15,4.03 0.53,7.92 0.78,11.87 0.3,3.94 0.5,7.87 0.87,11.81l1.43 11.86c1.83,15.8 4.81,31.31 8.18,46.54 1.71,7.61 3.7,15.12 5.56,22.58 2.24,7.38 4.23,14.79 6.63,21.99 9.42,28.91 21.11,56.05 33.58,81.1 12.55,25.05 26.27,47.84 39.74,68.36 27.14,40.98 53.59,72.62 72.69,94.22 9.62,10.76 17.32,19.11 22.61,24.79 5.32,5.65 7.95,8.84 7.95,8.84 0,0 -2.93,-2.9 -8.81,-7.95 -5.83,-5.12 -14.47,-12.55 -24.95,-22.56 -10.54,-9.97 -23.08,-22.39 -36.67,-37.39 -13.69,-14.96 -28.41,-32.51 -43.29,-52.61 -14.99,-20.04 -29.93,-42.79 -43.84,-68 -14.01,-25.13 -26.74,-52.88 -37.21,-82.65 -10.67,-29.69 -18.43,-61.65 -22.72,-94.62l-1.57 -12.39c-0.44,-4.17 -0.69,-8.42 -1.05,-12.63 -0.3,-4.2 -0.72,-8.49 -0.91,-12.65l-0.36 -12.31c-0.64,-16.96 0.09,-33.65 1.35,-50.47 2.52,-33.57 8.08,-67 17.04,-98.99 9.05,-31.94 21.28,-62.42 35.88,-90.42 14.62,-28.01 31.83,-53.34 49.87,-75.84 17.99,-22.55 37.29,-41.87 55.96,-58.58 18.69,-16.71 37.17,-30.38 53.96,-41.75 16.8,-11.37 32.2,-20.09 45.02,-26.9 12.84,-6.79 23.3,-11.37 30.44,-14.4 7.15,-3.01 11.06,-4.36 11.06,-4.36z"/>
  <path class="fil1" d="M6613.61 13514.28c0,0 0.81,-3.32 2.34,-9.56 1.85,-6.16 4.21,-15.39 8.99,-26.48 4.67,-11.13 11.51,-24.27 21.55,-37.99 10.1,-13.62 23.71,-27.63 41.11,-39.53 17.28,-11.98 37.93,-22.08 60.63,-29.7 22.64,-7.78 47.14,-13.62 72.42,-18.59 25.26,-5.1 51.39,-9.66 76.72,-16.74 12.58,-3.64 25.01,-7.97 36.08,-14.24 11.06,-6.19 20.62,-14.42 26.78,-24.82 1.53,-2.6 2.89,-5.32 4.07,-8.1l0.4 -0.89 0.43 -1.19 0.9 -2.41c0.67,-1.68 1.02,-3.05 1.49,-4.52 1.79,-5.87 3.07,-12.18 3.63,-18.38 1.13,-12.47 -0.57,-25.05 -4.65,-36.86 -8.33,-23.69 -25.04,-43.92 -43.95,-59.81 -19.06,-15.93 -40.24,-28.23 -61.26,-37.73 -21.09,-9.44 -42.05,-16.19 -61.75,-20.97 -39.53,-9.38 -73.82,-11.27 -97.63,-10.44 -11.93,0.41 -21.33,1.04 -27.7,1.72 -6.39,0.73 -9.78,1.1 -9.78,1.1 0,0 3.35,-0.67 9.64,-1.96 6.33,-1.19 15.64,-2.87 27.63,-3.97 12,-1.19 26.65,-1.91 43.48,-1.5 16.82,0.42 35.85,2.1 56.29,6.04 20.44,3.88 42.34,9.85 64.53,18.99 22.18,9.08 44.83,21.15 65.5,37.85 20.44,16.64 39.79,38.11 49.53,65.6 9.96,27.32 7.67,59.49 -7.2,85.62 -7.94,13.22 -20.06,23.26 -32.77,30.26 -12.78,7.09 -26.25,11.61 -39.56,15.37 -26.67,7.27 -53.09,11 -78.24,15.63 -25.16,4.58 -49.28,9.3 -71.4,16.12 -22.13,6.76 -42.27,15.43 -59.3,26.07 -17,10.66 -30.87,23.08 -41.49,35.61 -10.52,12.59 -18.06,24.99 -23.35,35.63 -5.32,10.66 -8.66,19.45 -10.94,25.44 -2.07,6.08 -3.17,9.33 -3.17,9.33z"/>
  <path class="fil1" d="M7120.72 13414.2c3.21,5.74 4.62,12.33 5.86,18.76 1.2,6.51 1.73,13.1 2.05,19.68 0.63,13.18 0.2,26.38 -0.73,39.51 -1,13.12 -2.21,25.95 -2.43,38.88 -0.28,12.91 0.16,25.83 1.55,38.59 1.33,12.71 3.75,25.38 7.56,37.25 1.81,5.31 5.04,10.89 8.35,16.23 3.38,5.37 7.03,10.67 10.82,15.89 15.2,20.88 31.99,40.87 48.61,61.04 8.29,10.19 16.64,20.12 24.66,31.1 0.99,1.39 1.98,2.82 2.98,4.4 0.49,0.78 0.98,1.61 1.5,2.58 0.5,1.09 1.06,1.77 1.61,4.39 0.83,5.54 -0.8,10.17 -2.64,13.86 -3.93,7.33 -9.11,12.29 -14.27,16.96 -10.48,9.18 -21.69,16.44 -32.98,23.45 -5.64,3.47 -11.33,6.83 -16.96,10.1l-8.23 4.91c-1.3,0.81 -2.61,1.67 -3.46,2.31 0.47,-0.39 0.06,-0.04 0.14,-0.1l-0.12 0.09 -0.24 0.21 -0.47 0.38 -0.26 0.3c-0.22,0.24 -0.54,0.6 -0.76,0.93 -1.97,2.76 -2.36,7.66 -0.72,11.64 0.78,1.99 1.98,3.7 3.42,4.97 0.72,0.63 1.51,1.14 2.35,1.52 0.42,0.19 0.84,0.38 1.29,0.52l2.35 0.72c4.37,1.42 8.67,4.08 11.78,8.2 3.1,4.1 4.35,8.86 4.79,13.04l0.17 3.1 -0.03 1.51 -0.02 0.76 0 0.37 -0.06 0.73c-0.1,0.87 -0.12,1.47 -0.3,2.57 -0.22,1.15 -0.43,2.46 -0.73,3.47 -1.09,4.06 -2.82,7.69 -4.78,10.98 -8.2,12.93 -19.42,21.68 -31.2,29.02 -5.95,3.63 -12.18,6.78 -18.74,9.36 -6.6,2.51 -13.43,4.65 -21.14,5.37l4.87 -13.46c1.81,1.82 3.31,3.48 4.89,5.25 1.56,1.75 3.09,3.5 4.58,5.31 2.98,3.58 5.84,7.29 8.55,11.18 5.36,7.78 10.42,15.99 13.41,26.08 1.4,5.03 2.38,10.67 1.21,16.87 -0.52,3.04 -1.74,6.13 -3.43,8.88l-1.35 1.98 -0.47 0.63 -0.26 0.32 -0.54 0.65c-1.22,1.34 -2.4,2.5 -3.81,3.53 -2.87,2.15 -6.14,3.31 -8.88,3.97 -2.79,0.67 -5.32,0.97 -7.76,1.18 -4.88,0.42 -9.45,0.52 -14.01,0.58l4.11 -1.27c-7.76,5.47 -15.06,14.45 -15.46,22.36 -0.32,3.79 1.09,8.37 3.25,13.44 2.15,5.02 4.83,10.35 7.14,16.15 2.31,5.75 4.29,12.11 4.94,18.87 0.68,6.76 -0.11,13.84 -2.28,20.24 -1.03,3.23 -2.44,6.25 -4,9.15l-1.2 2.16c-0.78,1.25 -0.8,1.28 -1.46,2.21 -1.45,1.96 -2.76,3.3 -4.31,4.6 -6.33,5.16 -13.7,6.69 -20.16,7.25 -13.12,0.9 -25.05,-1.36 -36.73,-3.9 -11.67,-2.65 -23,-5.97 -34.24,-9.48 -22.47,-7.06 -44.5,-14.92 -66.51,-22.77l-65.86 -23.74c-11.07,-3.87 -21.87,-7.85 -33.02,-11.42 -11,-3.57 -22.01,-6.78 -33.34,-8.93 -11.28,-2.15 -22.74,-3.48 -34.09,-2.78 -5.63,0.53 -11.24,1.38 -16.55,3.22 -5.27,1.86 -10.23,4.6 -14.37,8.32 -8.46,7.45 -12.75,18.69 -14.52,30.02 -1.85,11.43 -1.25,23.18 -0.73,34.82 -1.18,-11.58 -2.45,-23.31 -1.21,-35.08 1.07,-11.65 5.16,-23.77 14.03,-32.35 4.36,-4.27 9.68,-7.5 15.32,-9.76 5.67,-2.2 11.62,-3.38 17.58,-4.17 11.95,-1.26 23.91,-0.36 35.64,1.39 11.7,1.69 23.29,4.58 34.61,7.74 11.2,3.2 22.46,6.95 33.54,10.46l66.59 21.83c22.13,7.36 44.26,14.71 66.51,21.17 11.11,3.2 22.27,6.21 33.42,8.48 11.09,2.23 22.47,4.09 32.7,3.18 5.07,-0.47 9.61,-1.87 12.35,-4.27 0.69,-0.56 1.38,-1.36 1.68,-1.76 0.19,-0.23 0.92,-1.44 0.92,-1.42l0.93 -1.69c1.16,-2.27 2.2,-4.56 2.91,-6.91 3.11,-9.35 1.54,-19.12 -2.74,-29.12 -2.08,-5.05 -4.72,-10.11 -7.22,-15.79 -2.42,-5.57 -5.13,-12.35 -4.66,-20.33 0.48,-7.73 3.73,-14.6 7.72,-20.07 4.14,-5.61 8.56,-9.96 14.42,-14.1l1.71 -1.24 2.39 -0.05c4.4,-0.08 8.79,-0.2 12.84,-0.57 2.03,-0.19 3.96,-0.46 5.5,-0.85 1.61,-0.4 2.63,-0.84 3.36,-1.42 0.39,-0.26 0.8,-0.73 1.11,-1l0.54 -0.65 0.25 -0.32 0.07 -0.1c-0.26,0.34 -0.05,0.07 -0.1,0.13l0.05 -0.1 0.53 -0.8c0.64,-1.07 1.14,-2.2 1.34,-3.58 0.57,-2.66 0.11,-6.12 -0.92,-9.67 -2.08,-7.16 -6.43,-14.52 -11.26,-21.39 -2.43,-3.47 -5.06,-6.85 -7.81,-10.13 -1.38,-1.65 -2.78,-3.27 -4.22,-4.85 -1.4,-1.57 -2.94,-3.21 -4.29,-4.59l-11.58 -11.68 16.46 -1.76c10.84,-1.18 22.65,-6.4 33.03,-12.56 10.35,-6.29 20.19,-14.33 26.02,-23.6 1.39,-2.31 2.47,-4.66 3.09,-6.93l0.33 -1.32c0.12,-0.5 0.19,-1.54 0.27,-2.27l0.04 -1.56 -0.1 -1.77c-0.6,-4.71 -2,-6.52 -5.78,-7.98l-2.34 -0.74c-1.13,-0.34 -2.21,-0.8 -3.26,-1.31 -2.12,-1.01 -4.1,-2.3 -5.82,-3.85 -3.5,-3.05 -6.03,-6.91 -7.62,-11 -3.11,-8.11 -3.02,-17.8 2.47,-25.97 0.69,-0.99 1.42,-1.89 2.32,-2.85l1.5 -1.42 1.21 -0.99c1.75,-1.32 3.2,-2.2 4.68,-3.14l8.63 -5.09 16.82 -9.8c11.01,-6.63 21.89,-13.54 31.21,-21.5 4.59,-3.95 8.89,-8.36 11.18,-12.6 1.13,-2.06 1.51,-4.03 1.35,-5.02 0.24,1.01 0.05,0.2 -0.19,-0.16 -0.23,-0.46 -0.56,-1.05 -0.92,-1.66 -0.74,-1.2 -1.59,-2.47 -2.48,-3.74 -7.26,-10.24 -15.6,-20.47 -23.69,-30.67 -16.22,-20.5 -32.62,-41 -47.75,-62.72 -3.78,-5.45 -7.43,-11 -10.88,-16.79 -3.41,-5.84 -6.76,-11.68 -9.07,-18.82 -3.8,-13.14 -5.8,-26.42 -6.78,-39.71 -1,-13.29 -1.01,-26.57 -0.28,-39.78 0.66,-13.23 2.36,-26.4 4.24,-39.28 1.93,-12.83 3.32,-25.77 3.68,-38.75 0.24,-6.49 0.02,-12.97 -0.42,-19.45 -0.56,-6.45 -1.27,-13.03 -3.88,-19.03z"/>
  <path class="fil1" d="M7093.5 13654.16c3.42,0.69 0,0 0,0z"/>
  <path class="fil1" d="M7054.21 13595.38c-0.66,-2.21 -1.09,-3.56 -1.09,-3.56 0,0 0.41,1.37 1.09,3.56z"/>
  <path class="fil1" d="M7071.54 13631c-6.21,-7.62 -14.53,-26.59 -17.33,-35.62 2.84,9.52 10.11,35 7.23,37.4 -3.55,2.98 -65.9,-3.55 -121.7,-47.49 0,0 37.88,72.14 170.97,63.53 0,0 -31.47,-8.32 -39.17,-17.82z"/>
  <path class="fil1" d="M6622.45 13592.52c0,0 -0.09,-3.49 0.02,-10.22 0.35,-6.75 1.12,-16.8 4.35,-29.53 3.27,-12.65 9.01,-28.02 19.19,-44.17 5.07,-8.09 11.37,-16.21 18.68,-24.37 7.45,-8.05 16.12,-15.87 25.93,-23.33 19.78,-14.61 44.41,-27.34 72.96,-35.57 28.46,-8.52 60.63,-12.76 94.9,-12.61 17.13,0.11 34.81,1.07 52.87,3.41 18.13,2.12 36.46,5.86 55.1,8.17 18.65,2.41 38,4.05 57.66,4.07 19.63,-0.06 39.79,-1.42 59.3,-6.42 19.42,-4.73 38.52,-13.27 52.43,-27.65 13.96,-14.26 21.47,-34.34 21.73,-55.28 0.25,-21.48 -3.56,-43.49 -10.97,-64.57 -7.42,-21.1 -18.49,-41.27 -32.21,-59.95 -27.55,-37.36 -65.37,-68.52 -108.06,-92.67 -42.76,-24.21 -90.61,-41.63 -140.7,-51.56 -25.04,-5.07 -50.67,-8.23 -76.56,-9.37 -12.92,-0.55 -26.05,-0.61 -38.9,-0.13 -13.53,0.55 -26.3,1.29 -39.53,2.59 -52.55,4.96 -105.13,16.29 -155.08,35.65 -49.96,19.2 -97.29,46.35 -138.54,81.22 -41.3,34.8 -76.41,77.09 -103.41,124.14 -26.99,47.05 -46.37,98.51 -57.7,151.54 -11.36,53.04 -15.12,107.6 -12.14,161.23 3.04,53.56 13.52,106.2 32.17,155.16 18.6,49.02 45.51,94.02 77.65,133.79 32.15,39.83 69.36,74.47 108.17,105.42 38.9,30.9 79.59,57.99 120.2,82.78 40.64,24.82 81.33,47.24 120.82,68.77 39.61,21.49 77.89,42.27 114.64,62.18 73.36,40.26 139.48,80.42 192.48,123.79 26.52,21.61 49.7,43.92 68.84,66.59 19.19,22.58 34.32,45.46 45.52,67.32 11.22,21.88 18.72,42.63 23.4,61.08 4.86,18.42 7.12,34.48 8.43,47.49 1.33,13.04 1.46,23.07 1.59,29.8 -0.04,6.76 -0.06,10.26 -0.06,10.26 0,-0.01 -0.11,-3.5 -0.3,-10.23 -0.38,-6.75 -0.87,-16.74 -2.66,-29.66 -3.4,-25.7 -11.75,-63.73 -34.95,-106.32 -22.99,-42.6 -62.36,-87.66 -115.94,-128.6 -53.4,-41.29 -119.83,-79.25 -193.58,-118.13 -73.75,-38.95 -155.43,-78.41 -238.4,-127.39 -41.43,-24.51 -83.2,-51.46 -123.5,-82.55 -40.28,-31.06 -78.88,-66.7 -112.8,-107.88 -33.85,-41.15 -62.56,-88.19 -82.55,-139.62 -20.18,-51.36 -31.5,-106.68 -34.72,-162.57 -3.26,-55.85 0.44,-112.58 12.16,-168.15 11.76,-55.5 31.61,-109.81 60.37,-159.29 28.62,-49.52 65.87,-94.15 109.61,-130.75 43.69,-36.7 93.67,-65.2 146.17,-85.06 52.59,-19.8 107.51,-31.05 161.99,-35.69 13.55,-1.18 27.53,-1.85 40.7,-2.26 13.85,-0.41 27.35,-0.23 40.95,0.47 27.09,1.4 53.87,4.93 79.99,10.43 52.2,11.18 101.8,30.17 146.17,56.19 44.28,26.01 83.59,59.36 112.38,99.65 14.28,20.14 25.88,41.99 33.52,64.94 7.66,22.92 11.43,46.78 10.79,70.36 -0.5,12.06 -2.72,24.07 -7.35,35.21 -4.44,11.16 -11.3,21.33 -19.61,29.67 -16.85,16.77 -38.59,25.74 -59.58,30.52 -21.19,4.8 -42.25,5.58 -62.53,5.1 -20.35,-0.57 -39.96,-2.79 -58.99,-5.79 -9.61,-1.4 -18.67,-3.27 -27.91,-4.94 -9.06,-1.55 -17.96,-3.42 -26.84,-4.49 -17.68,-2.66 -35.03,-3.95 -51.83,-4.4 -33.61,-0.81 -65.21,2.73 -93.23,10.49 -28.1,7.5 -52.44,19.48 -72.11,33.39 -9.8,7.03 -18.51,14.5 -26.02,22.18 -7.4,7.82 -13.81,15.66 -19.03,23.48 -10.47,15.65 -16.55,30.71 -20.14,43.17 -3.53,12.54 -4.58,22.55 -5.1,29.25 -0.29,6.73 -0.3,10.22 -0.3,10.22z"/>
  <path class="fil1" d="M6808.74 13443.1c0,0 -6.19,6.19 -12.65,19.58 -3.24,6.67 -6.36,15.1 -8.97,24.99 -2.66,9.9 -4.35,21.37 -5.16,33.92 -0.56,6.24 -0.36,12.83 -0.4,19.59 0.33,6.86 0.68,13.97 1.05,21.26 0.16,7.78 -0.24,15.81 -1.48,23.85 -1.29,8.06 -3.56,16.18 -6.69,24.1 -6.21,15.9 -16.14,30.81 -28.24,43.57 -12.04,12.86 -25.99,23.9 -40.42,33.81 -14.55,9.8 -29.75,18.32 -44.86,26.22 -15.12,7.93 -30.41,14.75 -45.18,21.28 -14.99,6.54 -28.9,12.16 -41.5,19.12 -12.54,6.98 -23.92,14.4 -33.05,22.73 -9.08,8.33 -15.98,17.42 -19.74,26.6 -3.78,9.19 -4.54,18.13 -3.87,25.4 0.73,7.26 2.36,12.95 3.58,16.77 1.24,3.81 1.82,5.9 1.82,5.9 0,0 -0.85,-1.97 -2.64,-5.59 -1.7,-3.64 -4.31,-9.05 -5.9,-16.61 -1.58,-7.49 -2.03,-17.33 1.26,-27.91 3.13,-10.56 9.84,-21.4 19.07,-31.06 9.14,-9.79 20.67,-18.58 33.5,-26.52 6.38,-3.89 13.24,-7.74 20.27,-11.33 3.5,-1.74 6.85,-3.43 10.62,-5.19 3.54,-1.67 7.12,-3.36 10.73,-5.07 14.45,-6.83 29.1,-14.36 43.85,-22.12 14.69,-7.87 29.32,-16.34 43.12,-25.78 13.89,-9.32 27.08,-19.56 38.22,-31.22 11.14,-11.62 20.61,-24.4 26.48,-38.32 3.01,-6.91 5.16,-14.04 6.77,-21.14 1.52,-7.18 2.24,-14.3 2.49,-21.24 0.07,-7.42 0.13,-14.64 0.19,-21.61 0.59,-7.08 0.89,-13.91 1.96,-20.41 1.71,-13.04 4.67,-24.78 8.39,-34.79 3.61,-10.02 7.94,-18.29 12,-24.73 4.02,-6.47 8.06,-10.92 10.84,-13.86 2.83,-2.9 4.54,-4.19 4.54,-4.19z"/>
  <path class="fil1" d="M6717.83 13700.61c0,0 -1.06,1.53 -2.47,4.7 -1.39,3.16 -3.16,7.88 -4.89,14.03 -1.65,6.15 -3.21,13.75 -4.25,22.53 -1.12,8.77 -1.83,18.74 -1.74,29.63 -0.3,10.89 0.58,22.61 1.49,35.17 0.86,12.72 1.83,26.21 1.76,40.48 -0.34,14.21 -1.52,29.57 -7.27,44.64 -2.84,7.5 -7.06,14.63 -12.08,20.98 -5.09,6.33 -10.99,11.84 -17.21,16.66 -12.42,9.71 -26.25,16.47 -39.75,22.58l-5.08 2.22 -4.73 2.19c-3.49,1.52 -5.91,3.03 -8.84,4.67 -5.69,3.4 -10.75,7.53 -15.1,12.11 -8.7,9.18 -13.91,20.76 -15.42,32.49 -1.59,11.74 0.12,23.32 3.12,33.57 2.98,10.29 7.41,19.27 11.98,26.85 4.54,7.6 9.31,13.77 13.52,18.59 4.16,4.91 7.85,8.4 10.39,10.76 2.6,2.29 3.99,3.51 3.99,3.51 0,0 -1.53,-1.04 -4.41,-3.01 -2.79,-2.03 -6.92,-5.09 -11.73,-9.55 -9.44,-8.87 -22.35,-23.25 -30.69,-44.81 -4.17,-10.67 -6.81,-23.31 -5.91,-36.91 0.71,-13.61 6.3,-28.05 16.21,-39.44 4.91,-5.73 10.69,-10.83 17.05,-15.05 3.17,-2.04 6.84,-4.38 9.93,-5.87 3.26,-1.61 6.56,-3.22 9.85,-4.85 12.78,-6.28 25.23,-13.6 36.11,-22.14 5.42,-4.32 10.31,-9.06 14.39,-14.29 4.09,-5.23 7.17,-10.98 9.66,-17.03 4.89,-12.16 6.31,-25.85 6.78,-39.25 0.6,-13.46 0.25,-26.77 -0.11,-39.42 -0.19,-12.84 0.1,-25.18 1.24,-36.44 1.21,-11.26 2.93,-21.54 5.34,-30.44 2.38,-8.89 4.97,-16.51 7.86,-22.48 2.75,-6 5.51,-10.41 7.61,-13.23 2.06,-2.86 3.4,-4.15 3.4,-4.15z"/>
  <path class="fil1" d="M6651.41 13756.45c0,0 0.28,1.43 0.81,4.08 0.59,2.66 1.27,6.55 2.07,11.55 0.83,4.98 1.6,11.07 2.34,18.1 0.53,7.03 1.22,15.06 0.74,23.97 -0.14,4.45 -0.63,9.12 -1.32,14 -0.77,4.85 -2.07,9.86 -3.78,14.94 -3.43,10.16 -9.59,20.26 -17.71,28.65 -7.99,8.55 -17.78,15.3 -27.88,21.14 -9.94,6.03 -21.27,10.39 -31.39,14.91l-3.89 1.78 -3.47 1.86c-2.31,1.14 -4.55,2.64 -6.84,4.03 -4.43,2.93 -8.67,6.13 -12.41,9.8 -7.64,7.16 -13.4,15.88 -17.25,25.08 -3.8,9.27 -5.43,19.07 -5.35,28.4 0.05,9.37 1.73,18.25 4.23,26.17 2.55,7.92 5.97,14.85 9.47,20.72 3.51,5.9 7.32,10.56 10.52,14.35 3.24,3.75 6.07,6.48 8.06,8.26 2,1.79 3.08,2.72 3.08,2.72 0,0 -1.17,-0.8 -3.39,-2.33 -2.19,-1.55 -5.37,-3.92 -9.12,-7.32 -7.42,-6.76 -17.37,-17.92 -24.2,-34.33 -3.33,-8.18 -6.04,-17.59 -6.83,-27.88 -0.77,-10.28 0.3,-21.4 3.97,-32.29 3.63,-10.87 9.98,-21.29 18.35,-29.96 4.11,-4.43 8.77,-8.32 13.67,-11.89 2.51,-1.7 4.94,-3.49 7.67,-5.02l4.01 -2.36 3.82 -1.93c5.5,-2.76 10.19,-5.09 15.16,-7.8 4.87,-2.71 9.63,-5.43 14.25,-8.22 9.25,-5.61 17.56,-11.94 24.53,-18.78 6.9,-6.94 11.98,-14.73 15.6,-22.9 3.43,-8.26 5.54,-16.81 6.87,-24.97 1.24,-8.17 2.21,-15.87 2.68,-22.76 0.58,-6.94 1.08,-12.99 1.48,-17.98 0.75,-10 1.45,-15.79 1.45,-15.79z"/>
  <path class="fil1" d="M6675.43 13573.84c0,0 0.42,5.25 -0.42,14.43 -0.48,4.58 -1.12,10.2 -2.59,16.49 -1.28,6.34 -3.32,13.4 -6.18,20.92 -1.36,3.79 -3.22,7.55 -4.94,11.56 -2.05,3.86 -4.14,7.87 -6.64,11.81 -2.67,3.84 -5.08,8.03 -8.33,11.75 -1.57,1.9 -3.17,3.83 -4.76,5.78 -1.71,1.86 -3.61,3.57 -5.43,5.41 -3.54,3.76 -7.71,6.95 -11.91,10.23 -4.01,3.53 -8.9,5.91 -13.49,8.83 -8.96,4.89 -18.09,9.86 -27.2,14.83 -8.99,4.91 -17.98,9.85 -26.33,15.23 -8.47,5.28 -16.4,10.82 -23.59,16.7 -6.93,6.09 -13.44,12.21 -18.12,19.04 -1.17,1.7 -2.39,3.33 -3.48,5.03 -0.91,1.77 -1.8,3.52 -2.69,5.26 -2.12,3.33 -2.85,7.05 -4.15,10.46 -1.91,6.99 -2.75,13.77 -2.62,19.88 -0.26,3.08 0.23,5.92 0.51,8.58 0.28,2.68 0.56,5.16 0.8,7.39 2.05,8.72 3.14,13.92 3.14,13.92 0,0 -2.33,-4.61 -6.2,-13.08 -0.68,-2.22 -1.43,-4.69 -2.26,-7.36 -0.87,-2.7 -1.76,-5.63 -2.06,-8.93 -0.3,-3.27 -1.22,-6.77 -1.09,-10.5 0.07,-1.9 0.14,-3.83 0.21,-5.8 0.09,-1.99 0.1,-4.04 0.64,-6.05 0.96,-4.04 1.39,-8.51 3.27,-12.63 0.83,-2.11 1.68,-4.27 2.54,-6.46 1.06,-2.06 2.29,-4.06 3.46,-6.17 2.22,-4.34 5.41,-8 8.38,-12.05 1.45,-2.07 3.32,-3.72 5.03,-5.6 1.77,-1.77 3.45,-3.76 5.38,-5.4 3.83,-3.32 7.61,-6.96 11.79,-9.99 2.06,-1.58 4.14,-3.18 6.23,-4.77 2.17,-1.45 4.34,-2.9 6.53,-4.36 8.75,-5.85 17.9,-11.12 27.05,-16.3 9.22,-4.8 18.43,-9.63 27.5,-14.36 8.34,-4.7 16.5,-9.61 23.25,-15.85 1.72,-1.54 3.49,-2.97 5.11,-4.56 1.57,-1.63 3.11,-3.25 4.65,-4.86 3.26,-3.07 5.74,-6.69 8.48,-9.94 2.64,-3.37 4.79,-6.95 7.14,-10.26 2.01,-3.51 4.22,-6.78 5.92,-10.16 3.45,-6.73 6.47,-13.07 8.65,-18.91 2.3,-5.81 3.99,-11.01 5.3,-15.33 2.6,-8.69 3.52,-13.85 3.52,-13.85z"/>
  <path class="fil1" d="M7164.39 13646.28l40.66 -45.69 20.04 -23.07 9.76 -11.67 2.33 -2.95c0.68,-0.9 1.6,-2.17 1.83,-2.65 0.05,-0.43 -0.19,1 -0.11,0.54l-0.01 -0.48 -0.05 -0.95 -0.08 -1.9 -0.18 -3.79c-0.97,-20.35 -1.86,-40.74 -2.51,-61.16 -0.3,-10.2 -0.58,-20.4 -0.66,-30.65 -0.02,-5.11 -0.06,-10.23 0.06,-15.41 0.12,-5.18 0.22,-10.24 1.07,-15.92l8.15 2.49c-2.88,7.36 -5.47,15.04 -7.81,22.68 -2.34,7.67 -4.45,15.4 -6.2,23.19 -1.7,7.78 -3.15,15.61 -4.02,23.43 -0.26,1.95 -0.33,3.91 -0.51,5.86 -0.19,1.95 -0.27,3.89 -0.29,5.84 0.02,1.92 -0.17,3.89 -0.02,5.78l0.3 5.73 0.7 13.85 -10.1 -9.06c-3.73,-3.34 -6.2,-6.41 -8.81,-9.88 -2.56,-3.38 -4.77,-6.96 -6.84,-10.63 -4.1,-7.31 -7.26,-15.05 -9.8,-22.94 -4.88,-15.89 -7.24,-32.29 -7.28,-48.79 0.06,-16.49 2.09,-32.53 4.92,-48.45 2.84,-15.9 6.77,-31.58 11.53,-47.02 19.15,-61.58 53.54,-119.1 101.11,-163.62 23.69,-22.3 50.35,-41.4 78.82,-57.03 28.51,-15.58 58.75,-27.79 89.77,-36.99 62.16,-18.45 127.01,-24.63 191.11,-24.26 15.98,0.12 32.17,0.61 48.11,1.74 16.37,1.05 32.27,3.03 48.34,5.47 32.02,5.01 63.68,13.04 94.28,24.23 61.13,22.59 117.41,59.02 162.68,106.08 45.43,46.95 80.14,103.47 104.04,163.72 11.88,30.21 21.19,61.38 27.74,93.14 6.54,31.78 10.47,64.13 10.73,96.87 0.29,64.65 -9.28,129.68 -30.51,191.06 -21.18,61.39 -53.81,118.42 -93.79,168.96 -39.97,50.65 -86.62,95.31 -136.42,135.32 -49.83,40.06 -102.54,75.93 -156.1,110.03 -53.53,34.16 -108.15,66.27 -162.14,99.16 -53.94,32.91 -107.34,66.59 -157.74,104.29 -25.14,18.92 -49.37,39.01 -71.79,60.99 -22.43,21.92 -42.99,45.86 -60.03,72.19 -17.04,26.29 -30.22,55.18 -38.04,85.63 -8.02,30.42 -10.22,62.33 -7.75,93.88 -3.69,-31.42 -2.76,-63.6 4.17,-94.74 6.73,-31.17 19.54,-60.95 36.05,-88.25 16.58,-27.34 36.84,-52.32 58.98,-75.27 22.15,-22.99 46.14,-44.08 71.03,-63.94 49.75,-39.8 103.05,-74.61 156.4,-108.79 53.42,-34.1 107.24,-67.36 159.98,-101.96 52.71,-34.65 104.25,-70.92 152.52,-110.92 48.23,-39.97 93.36,-83.66 131.35,-132.86 38.08,-49.05 68.64,-103.74 88.25,-162.3 20.01,-58.39 28.99,-120.41 28.53,-182.26 -0.33,-30.57 -4.14,-61.32 -10.47,-91.5 -6.34,-30.22 -15.3,-59.87 -26.67,-88.55 -22.61,-57.35 -55.27,-110.86 -97.81,-155.09 -42.42,-44.35 -94.92,-78.56 -152.45,-100.08 -28.75,-10.83 -58.65,-18.75 -89.12,-23.79 -15.18,-2.47 -30.69,-4.54 -45.9,-5.67 -15.62,-1.25 -31.09,-1.87 -46.75,-2.12 -62.31,-1.07 -124.87,4.78 -184.52,21.36 -29.78,8.34 -58.72,19.53 -86,33.87 -27.22,14.44 -52.71,32.1 -75.43,52.85 -22.73,20.76 -42.64,44.58 -59.37,70.53 -16.63,26.01 -30.06,54.16 -39.9,83.57 -4.89,14.7 -8.98,29.69 -12.04,44.89 -3.03,15.16 -5.27,30.6 -5.64,45.78 -0.24,15.15 1.41,30.46 5.46,44.95 2.11,7.22 4.77,14.27 8.21,20.87 1.75,3.28 3.59,6.5 5.73,9.5 2.02,2.92 4.55,6.04 6.67,8.05l-9.41 4.79 -0.14 -6.44c-0.11,-2.16 0.14,-4.26 0.2,-6.39 0.08,-2.12 0.23,-4.23 0.51,-6.31 0.25,-2.1 0.39,-4.21 0.74,-6.27 1.15,-8.29 2.91,-16.4 4.92,-24.43 2.04,-8.01 4.45,-15.9 7.09,-23.7 2.64,-7.81 5.47,-15.44 8.73,-23.13l14.59 -34.37 -6.43 36.86c-0.78,4.4 -1.12,9.56 -1.34,14.53 -0.28,5.02 -0.4,10.1 -0.51,15.17 -0.21,10.15 -0.22,20.32 -0.21,30.49 0.05,20.37 0.35,40.74 0.73,61.12l0.07 3.84 0.04 1.92 0.01 0.97 0 0.48c0.11,-0.14 -0.24,1.59 -0.32,1.45 -0.96,1.78 -1.69,2.49 -2.56,3.61l-2.5 2.98c-3.36,3.89 -6.82,7.66 -10.29,11.39l-21.05 22.23 -42.62 43.89z"/>
  <path class="fil1" d="M7272.14 13481.25c0,0 124.79,-69.47 154.55,-64.63 29.76,4.84 94.81,23.53 94.81,23.53 0,0 -79.54,-48.57 -108.61,-43.73 -29.07,4.84 -140.75,58.16 -140.75,58.16l0 26.67z"/>
  <path class="fil1" d="M7312.74 13514.15c0,0 0.05,39.38 -0.4,52.58 -0.4,13.21 41.5,6.83 100.02,-15.99 0,0 -68.24,54.18 -147.39,32.59 0,0 28.86,-5.91 35.65,-11.17l12.12 -58.01z"/>
  <path class="fil1" d="M7372.69 14008.13c0,0 167.94,-35.07 206.7,-74.75 38.76,-39.68 75.94,-149.49 75.94,-149.49 0,0 -47.33,160.57 -63.93,167.03 -16.62,6.45 -66.45,35.99 -218.71,57.21z"/>
  <path class="fil1" d="M7445.66 14293.58c0,0 116.67,-129.49 59.92,-154.41 -56.76,-24.91 -306.88,5.11 -346.05,-31.84 -40.61,-38.3 -11.08,-83.05 24.92,-130.11 35.99,-47.06 -63.67,78.89 -14.78,118.58 48.91,39.68 325.83,4.08 352.38,37.83 37.05,47.06 -55.64,140.56 -76.39,159.95z"/>
  <path class="fil1" d="M7640.3 13693.84c4.75,5.86 10.03,11.23 15.48,16.32 5.46,5.09 11.31,9.68 17.47,13.61 6.14,3.93 12.76,7 19.51,8.4 3.36,0.67 6.73,0.96 10,0.64 3.2,-0.26 6.64,-1.23 9.22,-2.54 5.73,-2.77 10.48,-7.71 14.34,-13.43 3.95,-5.65 7.1,-12.12 9.92,-18.79 2.78,-6.7 5.17,-13.65 7.56,-20.78 1.2,-3.55 2.44,-7.13 3.82,-10.79 1.47,-3.73 2.67,-7.33 5.68,-11.83l0.31 -0.48 0.78 -0.72c5.47,-5.08 11,-10.75 16.22,-16.41 5.2,-5.73 10.28,-11.56 15.17,-17.54 9.73,-11.98 18.57,-24.65 25.49,-38.03 6.93,-13.3 12.25,-27.51 12.68,-41.55 0.24,-7.01 -0.81,-13.84 -3.21,-20.2 -0.54,-1.55 -1.33,-3.28 -1.95,-4.58 -0.91,-1.7 -1.85,-3.63 -2.75,-5.14 -1.7,-2.9 -3.69,-5.87 -5.9,-8.72 -8.86,-11.31 -21.25,-19.63 -35.1,-22.88 -6.91,-1.63 -14.17,-1.93 -21.32,-0.91 -7.49,1.12 -13.92,3.16 -20.36,6.85 -12.63,7.29 -22.16,19.91 -30.02,33.26 -3.77,6.83 -7.48,13.76 -10.63,21 -3.25,7.19 -6.35,14.51 -9.25,21.89 1.88,-7.7 3.73,-15.47 6.18,-23.05 2.35,-7.63 5.14,-15.17 8.39,-22.55 3.38,-7.33 7.25,-14.53 12.04,-21.29 4.85,-6.71 10.75,-12.94 17.86,-17.8 6.94,-4.87 15.66,-8.4 23.79,-9.94 8.44,-1.67 17.31,-1.82 25.91,-0.3 8.6,1.54 16.98,4.64 24.42,9.22 7.49,4.54 14.13,10.35 19.72,16.97 2.74,3.31 5.32,6.83 7.74,10.73 1.16,1.84 1.99,3.47 3.01,5.23 1.21,2.22 2.08,4.09 2.94,6.25 3.42,8.39 4.81,17.54 4.63,26.37 -0.18,8.86 -1.88,17.45 -4.41,25.58 -2.55,8.12 -5.81,15.91 -9.74,23.24 -7.81,14.69 -17.4,28.01 -27.76,40.53 -5.19,6.27 -10.63,12.28 -16.33,18.04 -5.72,5.82 -11.43,11.33 -17.77,16.83l1.09 -1.19c-1.28,1.69 -2.87,5.14 -4.2,8.4l-4.1 10.33c-2.79,7.01 -5.72,14.16 -9.11,21.17 -3.42,7.01 -7.27,13.97 -12.31,20.39 -5.02,6.33 -11.49,12.26 -19.64,15.47 -4.34,1.67 -8.34,2.36 -12.65,2.44 -4.27,0.1 -8.45,-0.62 -12.34,-1.84 -7.84,-2.46 -14.72,-6.58 -20.81,-11.36 -6.11,-4.79 -11.49,-10.29 -16.44,-16.08 -4.94,-5.8 -9.35,-11.99 -13.27,-18.44z"/>
  <path class="fil1" d="M7797.64 13134.69c0,0 4.28,1.01 12.14,3.5 7.83,2.53 19.31,6.42 33.42,12.65 28.17,12.32 67.73,33.28 108.17,68.26 20.2,17.4 40.58,38.23 59.14,62.73 18.62,24.42 35.63,52.35 49.19,83.09 13.61,30.71 24.37,63.97 31,98.6 6.71,34.6 9.86,70.34 10.05,105.98 0,36.09 -5.34,72.04 -14.54,106.13 -9.22,34.15 -22.76,66.25 -37.94,95.98 -15.2,29.77 -32.78,56.86 -50.63,81.53 -17.8,24.71 -36.34,46.73 -54.14,66.31 -35.65,39.19 -68.73,68.35 -92.27,88.08 -11.74,9.91 -21.29,17.29 -27.67,22.46 -3.2,2.58 -5.65,4.57 -7.24,5.96 -1.62,1.38 -2.37,2.17 -2.37,2.17 0,0 0.68,-0.86 2.14,-2.4 1.49,-1.53 3.74,-3.75 6.69,-6.61 5.88,-5.74 14.53,-14.13 25.54,-24.81 21.81,-21.49 52.45,-52.76 85.63,-93.1 16.56,-20.2 33.57,-42.77 50.25,-67.45 16.59,-24.73 32.48,-51.82 46.71,-80.83 14.18,-29.01 26.05,-60.25 34.68,-92.79 8.5,-32.55 13.3,-66.56 13.06,-100.59 -0.08,-34.43 -2.76,-68.81 -8.99,-102.01 -6.33,-33.15 -15.42,-65.25 -27.89,-94.84 -12.46,-29.61 -27.63,-56.9 -44.63,-81.04 -17.07,-24.1 -35.68,-45.16 -54.36,-63.12 -37.51,-35.86 -74.69,-59.3 -101.5,-73.71 -26.94,-14.44 -43.64,-20.13 -43.64,-20.13z"/>
  <path class="fil1" d="M7263.39 13351.1c0,0 0.49,-2.22 1.39,-6.39 0.39,-2.07 1.07,-4.6 1.92,-7.61 0.79,-3.02 1.79,-6.46 3.17,-10.21 2.53,-7.6 6.28,-16.59 11.18,-26.67 5.1,-9.94 11.07,-21.17 18.98,-32.5 7.77,-11.41 16.68,-23.54 27.43,-35.23 10.69,-11.71 22.41,-23.84 35.89,-34.79 3.25,-2.9 6.77,-5.49 10.22,-8.23 3.46,-2.73 6.94,-5.52 10.6,-8.06 3.66,-2.6 7.31,-5.21 11,-7.84 3.82,-2.43 7.67,-4.85 11.51,-7.29 15.64,-9.41 31.93,-18.37 48.97,-25.72 4.23,-1.94 8.52,-3.65 12.87,-5.26l12.96 -4.92c8.8,-2.76 17.41,-6.03 26.24,-8.27 4.39,-1.21 8.76,-2.42 13.11,-3.62 4.41,-0.94 8.79,-1.89 13.15,-2.81 8.69,-2.03 17.41,-3.25 25.93,-4.66 4.27,-0.78 8.52,-1.26 12.74,-1.73 4.21,-0.5 8.38,-0.94 12.52,-1.34 8.26,-0.75 16.4,-0.97 24.27,-1.46 7.87,-0.3 15.55,-0.23 22.97,-0.24 7.39,-0.06 14.54,0.63 21.4,0.9 6.85,0.26 13.39,0.8 19.6,1.54 6.19,0.73 12.09,1.27 17.57,2.05 10.99,1.73 20.54,3.2 28.33,4.81 15.56,3.35 24.36,5.53 24.36,5.53 0,0 -9.12,-0.26 -24.88,-1.16 -7.88,-0.41 -17.49,-0.3 -28.42,-0.73 -5.47,-0.07 -11.31,0.13 -17.43,0.19 -3.05,0.02 -6.21,0.05 -9.42,0.06 -3.21,0.07 -6.49,0.29 -9.83,0.42 -13.41,0.46 -27.86,1.7 -43.08,3.14 -15.19,1.72 -31.09,4.12 -47.38,7.24 -8.11,1.71 -16.41,3.23 -24.62,5.53 -4.12,1.08 -8.27,2.15 -12.44,3.22 -4.12,1.21 -8.27,2.44 -12.43,3.65 -8.39,2.24 -16.53,5.48 -24.87,8.22 -8.09,3.33 -16.42,6.21 -24.36,10 -16.28,6.71 -31.83,15 -46.78,23.7 -14.9,8.78 -29.07,18.32 -42.21,28.31 -13.14,10 -25.18,20.56 -36.17,31.03 -10.95,10.52 -20.61,21.22 -29.19,31.39 -8.55,10.21 -15.63,20.19 -21.79,29.14 -5.85,9.13 -10.94,17.22 -14.46,24.21 -1.91,3.45 -3.4,6.61 -4.73,9.36 -1.37,2.72 -2.5,5.09 -3.26,7.07 -1.64,3.93 -2.53,6.03 -2.53,6.03z"/>
  <path class="fil1" d="M8039.89 13654.7c0,0 -0.35,1.58 -1.01,4.56 -0.69,2.97 -1.69,7.36 -3.25,12.85 -1.47,5.52 -3.49,12.13 -5.9,19.72 -2.63,7.5 -5.3,16.1 -9,25.16 -1.77,4.55 -3.63,9.32 -5.56,14.23 -2.12,4.84 -4.31,9.85 -6.57,14.99 -4.38,10.34 -9.82,20.88 -15.27,31.87 -2.83,5.44 -5.92,10.87 -8.94,16.41 -3.09,5.52 -5.98,11.23 -9.54,16.62 -6.91,10.88 -13.5,22.24 -21.18,32.88 -3.81,5.33 -7.62,10.67 -11.41,15.99 -3.85,5.26 -8.03,10.27 -12,15.35 -3.99,5.08 -7.98,10.1 -12.07,14.93 -4.27,4.66 -8.5,9.28 -12.66,13.83 -4.18,4.5 -8.15,9.06 -12.32,13.26 -4.31,4.05 -8.55,8 -12.66,11.86 -4.12,3.83 -8.14,7.56 -12.02,11.18 -3.88,3.58 -8.11,6.55 -11.89,9.67 -7.7,6.11 -14.79,11.63 -21.16,16.38 -6.65,4.39 -12.56,8.08 -17.38,11.14 -9.66,6.06 -15.24,9.38 -15.24,9.38 0,0 4.81,-4.48 13.28,-12.03 4.24,-3.74 9.4,-8.24 15.34,-13.43 5.59,-5.52 11.89,-11.74 18.77,-18.54 3.39,-3.42 7.2,-6.71 10.63,-10.62 3.51,-3.84 7.13,-7.79 10.85,-11.85 3.74,-4.06 7.56,-8.22 11.48,-12.47 3.7,-4.45 7.5,-8.99 11.35,-13.59 3.84,-4.61 7.76,-9.3 11.71,-14.02 3.73,-4.94 7.46,-9.97 11.34,-14.93 3.8,-5.03 7.8,-9.95 11.5,-15.15 3.63,-5.25 7.26,-10.52 10.9,-15.78 7.67,-10.28 14.26,-21.29 21.21,-31.84 6.7,-10.68 13.13,-21.32 19.32,-31.65 5.71,-10.6 11.95,-20.48 16.98,-30.33 5.25,-9.72 10.21,-18.95 14.53,-27.6 4.5,-8.58 8.22,-16.63 11.81,-23.65 3.28,-7.15 6.39,-13.31 8.69,-18.5 2.35,-5.16 4.21,-9.23 5.47,-11.99 1.22,-2.81 1.87,-4.29 1.87,-4.29z"/>
  <path class="fil1" d="M7943.69 13750.36c0,0 -1.2,4.04 -3.94,10.89 -1.45,3.37 -3.08,7.57 -5.37,12.16 -2.14,4.67 -4.74,9.82 -7.77,15.37 -3.02,5.53 -6.37,11.52 -10.24,17.62 -3.88,6.1 -7.84,12.64 -12.54,18.98 -4.53,6.46 -9.29,13.1 -14.5,19.54 -5.04,6.58 -10.66,12.85 -16.03,19.34 -5.58,6.29 -11.39,12.39 -17.11,18.38 -5.81,5.91 -11.88,11.36 -17.55,16.82 -5.78,5.37 -11.72,10.16 -17.23,14.82 -5.39,4.77 -11.06,8.66 -16.08,12.46 -5.07,3.75 -9.64,7.24 -14,9.95 -4.28,2.82 -8.09,5.16 -11.22,7.09 -6.24,3.87 -9.92,5.91 -9.92,5.91 0,0 2.79,-3.19 7.85,-8.49 2.54,-2.63 5.59,-5.86 9.21,-9.4 3.65,-3.5 7.42,-7.86 11.8,-12.25 4.27,-4.53 9.13,-9.15 13.95,-14.37 4.84,-5.19 10,-10.61 15.37,-16.14 5.24,-5.67 10.63,-11.54 16.13,-17.5 5.39,-6.01 10.88,-12.13 16.35,-18.27 5.37,-6.2 11.03,-12.19 16.09,-18.5 5.13,-6.25 10.51,-12.14 15.28,-18.21 4.86,-5.99 9.57,-11.77 14.04,-17.26 4.4,-5.57 8.56,-10.84 12.39,-15.7 7.58,-9.81 13.84,-18.1 18.22,-23.96 4.34,-5.91 6.82,-9.28 6.82,-9.28z"/>
  <path class="fil1" d="M7634.31 13524.57c0,0 1.09,-7.92 3.44,-21.59 1.27,-6.82 2.65,-15.12 4.54,-24.56 1.85,-9.43 3.92,-20.07 6.2,-31.68 2.3,-11.54 4.79,-24.03 7.43,-37.26 2.62,-13.17 5.03,-27.15 6.87,-41.27 1.92,-13.97 0.78,-28.23 -3.1,-42.05 -3.94,-13.64 -11.85,-25.95 -23.64,-33.71 -11.68,-7.84 -26.36,-11.58 -41.07,-12.16 -14.76,-0.71 -29.58,1.38 -43.64,4.55 -14.06,3.22 -27.42,7.78 -39.68,13.02 -12.24,5.3 -23.54,11.05 -33.45,17.27 -9.92,6.16 -18.51,12.61 -25.59,18.93 -7.06,6.34 -12.47,12.65 -16.23,18.33 -3.83,5.66 -5.71,10.77 -6.57,14.33 -0.42,1.8 -0.64,3.2 -0.7,4.16 -0.08,0.94 -0.14,1.43 -0.14,1.43 0,0 0,-0.5 0.01,-1.45 -0.03,-0.97 0.05,-2.38 0.3,-4.24 0.53,-3.67 1.97,-9.09 5.35,-15.26 6.57,-12.46 20.41,-27.65 40.04,-41.55 19.54,-13.98 44.72,-27.2 73.97,-35.54 14.6,-4.12 30.33,-6.79 46.69,-6.67 16.21,0.13 33.65,3.35 48.52,12.93 7.36,4.75 14.01,10.88 19.04,18.04 5.1,7.13 8.83,15.04 11.39,23.06 5,15.98 6.46,32.87 4.69,48.29 -1.39,15.31 -4.47,29.46 -7.39,42.87 -3.07,13.37 -6.52,25.83 -9.85,37.26 -6.83,22.82 -13.67,41.46 -18.79,54.4 -5.19,12.92 -8.65,20.12 -8.64,20.12z"/>
  <path class="fil1" d="M7300.71 13384.89c0,0 0.56,-2.69 1.61,-7.77 0.52,-2.53 1.17,-5.64 1.94,-9.31 1.11,-3.62 2.41,-7.76 3.86,-12.4 3.17,-9.23 7.6,-20.24 14.22,-32.15 0.8,-1.51 1.6,-3.04 2.43,-4.58 0.92,-1.49 1.88,-3 2.84,-4.53 1.92,-3.07 3.89,-6.23 5.93,-9.48 2.01,-3.26 4.53,-6.28 6.88,-9.54 2.45,-3.16 4.72,-6.65 7.52,-9.76 10.66,-12.99 23.28,-26.21 37.92,-38.75 14.8,-12.29 30.9,-24.86 49.11,-35.4 18.08,-10.69 37.31,-21.02 57.93,-28.99 20.49,-8.19 41.85,-15.25 63.74,-20.24 10.88,-2.82 22.01,-4.34 32.98,-6.4 11.11,-1.26 22.11,-3.09 33.17,-3.57 22.02,-2.04 43.82,-1.03 64.76,0.43 10.43,1.28 20.76,1.89 30.68,4 4.97,0.9 9.9,1.79 14.76,2.66 4.79,1.16 9.53,2.31 14.21,3.44 18.7,4.44 35.88,10.54 51.36,16.87 1.94,0.77 3.87,1.52 5.78,2.26 1.84,0.88 3.69,1.74 5.5,2.59 3.62,1.7 7.14,3.38 10.59,5.01 6.94,3.1 13.13,6.85 19.04,10.15 11.99,6.3 21.48,13.42 29.59,18.65 7.98,5.5 13.73,10.54 17.86,13.62 4.08,3.2 6.23,4.9 6.23,4.9 0,0 -2.34,-1.45 -6.75,-4.15 -4.45,-2.65 -10.75,-6.83 -19.1,-11.58 -8.54,-4.43 -18.51,-10.46 -30.76,-15.8 -6.05,-2.78 -12.36,-5.97 -19.41,-8.47 -3.47,-1.38 -7.02,-2.78 -10.66,-4.22 -1.81,-0.72 -3.64,-1.44 -5.51,-2.18 -1.89,-0.61 -3.81,-1.23 -5.75,-1.86 -7.83,-2.37 -15.73,-5.49 -24.34,-7.4 -8.51,-2.16 -17.21,-4.73 -26.41,-6.29 -4.58,-0.9 -9.21,-1.81 -13.89,-2.73 -4.73,-0.64 -9.52,-1.28 -14.37,-1.93 -9.65,-1.55 -19.63,-2.04 -29.73,-2.96 -20.25,-0.98 -41.23,-0.99 -62.44,0.97 -10.62,0.54 -21.21,2.43 -31.89,3.73 -10.57,2.07 -21.28,3.65 -31.74,6.43 -21.12,4.61 -41.76,11.24 -61.58,18.97 -19.89,7.6 -38.8,16.75 -56.47,26.68 -17.77,9.8 -33.83,21.11 -48.63,32.36 -7.21,5.87 -14.27,11.55 -20.58,17.6 -6.65,5.74 -12.36,11.98 -18.03,17.8 -5.48,5.99 -10.43,12.03 -15.1,17.78 -2.21,2.99 -4.36,5.89 -6.46,8.71 -1.03,1.42 -2.07,2.81 -3.09,4.19 -0.91,1.43 -1.81,2.86 -2.7,4.26 -3.47,5.62 -6.99,10.77 -9.51,15.95 -2.57,5.1 -5.43,9.65 -7.07,14.11 -1.88,4.41 -3.56,8.33 -5.02,11.74 -1.17,3.56 -2.18,6.59 -2.98,9.05 -1.62,4.91 -2.47,7.53 -2.47,7.53z"/>
  <path class="fil1" d="M7704.74 13583.83c0,0 -1.3,5.59 -3.22,13.97 -0.44,2.02 -0.81,4.22 -1.07,6.41 -0.26,2.12 -0.24,4.56 0.24,5.57 0.08,0.26 0.23,0.29 0.21,0.24 0.02,0 -0.01,-0.11 -0.04,-0.12 0,-0.04 -0.02,-0.06 -0.04,-0.08l-0.05 -0.03 0.65 0.42 0.85 0.59 0.43 0.29 0.65 0.58c0.79,0.79 1.82,1.85 2.24,2.58 2.24,3.2 3.4,6.9 3.5,10.65 0.01,3.72 -0.67,7.51 -2.46,10.59 -0.67,1.68 -1.87,2.93 -2.83,4.32 -1.05,1.27 -2.26,2.34 -3.4,3.43 -1.22,0.95 -2.45,1.8 -3.68,2.62 -1.21,0.81 -2.49,1.34 -3.7,1.95 -2.38,1.29 -4.86,1.75 -7.02,2.48 -2.18,0.57 -4.24,0.81 -6.03,1.09 -1.77,0.35 -3.39,0.23 -4.67,0.31 -2.59,0.05 -4.06,-0.06 -4.06,-0.06 0,0 1.31,-0.79 3.55,-1.96 1.1,-0.63 2.5,-1.21 3.97,-2.1 1.48,-0.84 3.13,-1.8 4.94,-2.84 0.84,-0.56 1.71,-1.15 2.62,-1.76 0.46,-0.29 0.91,-0.6 1.38,-0.9 0.42,-0.34 0.85,-0.68 1.28,-1.04 0.84,-0.73 1.85,-1.32 2.63,-2.14 0.78,-0.77 1.58,-1.56 2.39,-2.38 0.63,-0.91 1.41,-1.71 1.99,-2.61l0.79 -1.39c0.31,-0.46 0.55,-0.91 0.7,-1.41 0.92,-1.89 1.14,-3.9 1.15,-5.83 0.03,-1.95 -0.64,-3.89 -1.46,-5.37 -0.23,-0.51 -0.3,-0.39 -0.36,-0.67 -0.03,-0.06 0,-0.1 -0.06,-0.19l-0.4 -0.33 -0.79 -0.67 -0.09 -0.09 -0.05 -0.03 -0.03 -0.03c0.89,0.59 0.21,0.15 0.4,0.27l-0.46 -0.33 -0.86 -0.69c-0.51,-0.52 -1.03,-1.07 -1.4,-1.66 -0.74,-1.17 -1.18,-2.38 -1.37,-3.42 -0.69,-4.26 0.3,-7.06 1.12,-9.66 0.88,-2.59 2.01,-4.78 3.1,-6.73 2.17,-3.92 4.41,-6.84 6.06,-8.83 1.66,-1.98 2.76,-3 2.76,-3.01z"/>
  <path class="fil1" d="M7167.88 13956.49c-4.7,-2.3 -9.07,-5.4 -12.88,-9.21 -3.85,-3.76 -7.12,-8.35 -9.19,-13.77 -2.04,-5.4 -2.4,-11.73 -0.87,-17.55l0.7 -2.15c0.08,-0.22 0.06,-0.22 0.24,-0.66l0.19 -0.44 0.37 -0.88c0.53,-1.22 0.96,-2.35 1.56,-3.61l1.98 -3.86 2.25 -3.63 2.59 -3.45c0.96,-1.08 1.91,-2.17 2.92,-3.21 2.06,-2 4.25,-3.83 6.52,-5.43 4.49,-3.2 9.02,-5.81 13.37,-8.49 4.35,-2.69 8.59,-5.41 12.76,-8.26 4.19,-2.79 8.25,-5.78 12.28,-8.84l0.11 8.14c-3.45,-2.66 -6.65,-5.3 -9.84,-8.12 -3.14,-2.84 -6.21,-5.76 -9.18,-8.83 -2.97,-3.05 -5.84,-6.24 -8.43,-9.74 -2.59,-3.51 -5.07,-7.17 -6.82,-11.59 -0.81,-2.22 -1.46,-4.7 -1.28,-7.48 0.04,-0.7 0.15,-1.4 0.32,-2.11l0.36 -1.15 0.3 -0.72c0.42,-0.97 0.76,-1.88 1.33,-2.92 2.04,-4.14 4.49,-7.49 7.11,-10.86 5.23,-6.63 11.21,-12.52 17.56,-17.9 -2.61,3.24 -5.04,6.6 -7.45,9.95 -2.36,3.38 -4.65,6.79 -6.73,10.28 -1.04,1.75 -2.03,3.52 -2.92,5.31 -0.86,1.78 -1.72,3.63 -2.36,5.31 -0.34,0.81 -0.62,1.87 -0.93,2.84l-0.24 0.76c0.06,-0.08 -0.01,0.24 -0.01,0.33 -0.04,0.33 -0.04,0.64 0,0.99 0.11,1.37 0.68,2.96 1.51,4.51 1.6,3.18 4.07,6.25 6.69,9.15 2.68,2.87 5.52,5.7 8.46,8.42 2.95,2.72 6.04,5.33 9.19,7.87 3.11,2.56 6.32,5.15 9.48,7.49l5.39 3.99 -5.29 4.14c-4.16,3.25 -8.38,6.44 -12.73,9.42 -4.36,2.98 -8.86,5.74 -13.32,8.41 -4.47,2.66 -8.93,5.2 -12.87,7.92 -1.98,1.39 -3.79,2.83 -5.51,4.33l-2.4 2.42 -2.14 2.64 -1.95 2.88 -1.68 2.97c-0.58,1.03 -1.12,2.3 -1.67,3.44l-0.4 0.86 -0.22 0.45c0.06,-0.12 -0.06,0.19 -0.1,0.26l-0.62 1.5c-1.58,4.02 -1.89,8.46 -0.93,12.94 0.86,4.5 3.04,8.92 5.7,13.13 2.78,4.14 5.99,8.17 9.72,11.81z"/>
  <path class="fil1" d="M7197.25 14603c-1.54,-10.9 -3.95,-21.65 -6.55,-32.32 -2.6,-10.68 -5.61,-21.24 -8.96,-31.69 -6.69,-20.91 -14.97,-41.25 -24.36,-61.01 -4.66,-9.89 -9.78,-19.58 -15.18,-29.06 -5.35,-9.53 -11.25,-18.74 -17.34,-27.79 -6.13,-9.02 -12.66,-17.77 -19.49,-26.25 -3.45,-4.22 -6.96,-8.37 -10.55,-12.46l-11.05 -12.28c-7.45,-8.95 -13.48,-19.01 -16.74,-30.46 -1.6,-5.69 -2.47,-11.64 -2.38,-17.63 0.12,-6.01 1.18,-12.01 3.16,-17.7 4.03,-11.39 11.89,-21.29 21.83,-28.02 9.97,-6.76 21.96,-10.31 33.94,-10.29 12.02,-0.02 23.83,3.59 33.98,9.52 10.2,5.97 18.86,14.08 25.95,23.12 7.11,9.09 12.89,19.03 17.48,29.39 4.64,10.36 8.29,21.05 11.23,31.91l-9.51 -1.1c3.97,-6.94 8.37,-12.99 13.47,-18.85 5.08,-5.76 10.8,-11.14 17.45,-15.53 6.61,-4.31 14.34,-7.59 22.64,-8.41 8.29,-0.85 16.76,1.02 23.93,4.69 3.59,1.79 6.95,3.97 10.04,6.38 3.07,2.45 5.99,4.92 8.72,8.14 2.78,3.33 4.89,7.26 5.82,11.61 1,4.31 0.75,8.72 -0.14,12.72 -1.82,8.08 -5.67,14.87 -9.67,21.26 -4.05,6.37 -8.5,12.35 -13,18.22 -9.01,11.72 -18.23,23.1 -26.82,34.92 -8.57,11.84 -16.61,24.03 -23.5,36.87 -6.85,12.84 -12.41,26.42 -16.02,40.58 -3.58,14.15 -5.35,28.83 -4.91,43.54 -1.31,-14.65 -0.48,-29.57 2.61,-44.08 3.02,-14.51 8.08,-28.59 14.49,-41.98 6.35,-13.43 14.15,-26.12 22.55,-38.3 8.36,-12.2 17.37,-23.93 25.96,-35.77 4.29,-5.9 8.47,-11.87 12.15,-18.01 3.64,-6.11 6.88,-12.5 8.11,-18.89 1.32,-6.36 -0.17,-12.35 -4.3,-16.94 -2.05,-2.36 -4.79,-4.65 -7.51,-6.71 -2.75,-2.05 -5.64,-3.86 -8.63,-5.28 -5.99,-2.9 -12.5,-4.15 -18.86,-3.38 -6.36,0.73 -12.54,3.42 -18.15,7.2 -5.62,3.75 -10.71,8.55 -15.3,13.84 -4.54,5.24 -8.77,11.2 -12.06,17.05l-6.2 10.97 -3.32 -12.08c-2.85,-10.4 -6.37,-20.57 -10.77,-30.3 -4.4,-9.71 -9.69,-18.98 -16.15,-27.25 -6.42,-8.28 -14.14,-15.48 -22.94,-20.68 -8.81,-5.19 -18.78,-8.22 -28.83,-8.26 -10.04,-0.06 -20.03,2.91 -28.37,8.44 -8.34,5.52 -14.93,13.63 -18.36,22.99 -1.7,4.68 -2.63,9.63 -2.8,14.65 -0.12,5.01 0.54,10.06 1.87,14.99 2.62,9.82 8.04,19.12 14.52,27.15l10.76 12.53c3.57,4.27 7.06,8.6 10.47,13 6.76,8.83 13.18,17.9 19.21,27.23 5.96,9.36 11.7,18.86 16.9,28.66 5.25,9.78 10.2,19.7 14.67,29.85 9.07,20.21 16.29,41.19 22.26,62.44 5.88,21.28 10.53,42.96 12.55,64.9z"/>
 </g>
</svg>
