<svg width="201" height="40" viewBox="0 0 201 40" fill="none" xmlns="http://www.w3.org/2000/svg">
<path d="M33.8342 18.3334V25.0001C33.8342 30.5001 33.8342 33.2501 32.1258 34.9584C30.4175 36.6668 27.6675 36.6668 22.1675 36.6668H18.8341C13.3341 36.6668 10.5841 36.6668 8.87582 34.9584C7.16748 33.2501 7.16748 30.5001 7.16748 25.0001V18.3334H31.3342C32.8925 18.3334 33.6708 18.3334 34.2508 18.0668C34.6133 17.9042 34.9282 17.6518 35.1658 17.3334C35.5008 16.8684 35.5008 16.2468 35.5008 15.0001C35.5008 13.7534 35.5008 13.1301 35.1658 12.6668C34.9458 12.3634 34.6308 12.1101 34.2508 11.9334C33.6708 11.6668 32.8925 11.6668 31.3342 11.6668H7.52068M20.5008 9.76177C20.5008 8.05687 19.8235 6.4218 18.618 5.21625C17.4125 4.0107 15.7774 3.33344 14.0725 3.33344H13.4775C11.8341 3.33344 10.5008 4.6651 10.5008 6.3101C10.5008 7.73078 11.0652 9.09327 12.0697 10.0978C13.0743 11.1024 14.4368 11.6668 15.8575 11.6668H20.5008M20.5008 9.76177V11.6668M20.5008 9.76177C20.5008 8.05687 21.1781 6.4218 22.3836 5.21625C23.5892 4.0107 25.2243 3.33344 26.9292 3.33344H27.5242C29.1675 3.33344 30.5008 4.6651 30.5008 6.3101C30.5008 7.01355 30.3623 7.71011 30.0931 8.36001C29.8239 9.00991 29.4293 9.60042 28.9319 10.0978C28.4345 10.5952 27.844 10.9898 27.1941 11.259C26.5442 11.5282 25.8476 11.6668 25.1442 11.6668H20.5008" stroke="#FCE1D0" stroke-width="1.68623" stroke-linecap="round" stroke-linejoin="round"/>
<rect width="10.4355" height="1.93548" rx="0.967742" transform="matrix(-0.71934 -0.694658 -0.694658 0.71934 34.8357 27.8943)" fill="#FCE1D0"/>
<rect width="22.2431" height="1.93548" rx="0.967742" transform="matrix(0.71934 -0.694658 -0.694658 -0.71934 12.4851 37.441)" fill="#FCE1D0"/>
<rect width="12.8906" height="1.93548" rx="0.967742" transform="matrix(0.71934 -0.694658 -0.694658 -0.71934 7.65186 30.6694)" fill="#FCE1D0"/>
<rect width="21.7569" height="1.93548" rx="0.967742" transform="matrix(0.694658 0.71934 0.71934 -0.694658 14.3718 21.6671)" fill="#FCE1D0"/>
<path d="M42.88 21.725V30.735L44.24 31.245V31.5H41.01V31.245L42.37 30.735V20.11L41.35 19.855V19.6H43.475C44.0643 19.6 44.529 19.7247 44.869 19.974C45.2203 20.212 45.5207 20.569 45.77 21.045L49.476 28.134L52.315 21.045C52.5077 20.5463 52.7683 20.1837 53.097 19.957C53.4257 19.719 53.93 19.6 54.61 19.6H56.395V19.855L55.375 20.11V30.99L56.395 31.245V31.5H51.55V31.245L52.57 30.99V21.725L48.575 31.67H48.065L42.88 21.725ZM57.251 31.245L58.271 30.99V23.51L57.251 23.255V23H59.461C60.481 23 60.991 23.51 60.991 24.53V30.99L62.011 31.245V31.5H57.251V31.245ZM59.461 21.98C59.121 21.98 58.8376 21.8667 58.611 21.64C58.3843 21.4133 58.271 21.13 58.271 20.79C58.271 20.45 58.3843 20.1667 58.611 19.94C58.8376 19.7133 59.121 19.6 59.461 19.6C59.801 19.6 60.0843 19.7133 60.311 19.94C60.5376 20.1667 60.651 20.45 60.651 20.79C60.651 21.13 60.5376 21.4133 60.311 21.64C60.0843 21.8667 59.801 21.98 59.461 21.98ZM62.3483 31.245L63.3683 30.99V23.51L62.3483 23.255V23H63.8783C64.547 23 65.074 23.2153 65.4593 23.646C65.6067 23.816 65.7313 24.0257 65.8333 24.275C66.0033 23.9577 66.1847 23.7027 66.3773 23.51C66.8873 23 67.471 22.745 68.1283 22.745C68.7857 22.745 69.3637 22.8923 69.8623 23.187C70.361 23.4703 70.7463 23.8613 71.0183 24.36C71.1883 24.0313 71.3697 23.765 71.5623 23.561C72.0837 23.017 72.6673 22.745 73.3133 22.745C73.914 22.745 74.4523 22.8697 74.9283 23.119C75.4157 23.3683 75.7897 23.7083 76.0503 24.139C76.3223 24.5697 76.4583 25.04 76.4583 25.55V30.99L77.4783 31.245V31.5H75.2683C74.2483 31.5 73.7383 30.99 73.7383 29.97V25.55C73.7383 24.8133 73.625 24.2637 73.3983 23.901C73.1717 23.527 72.9167 23.34 72.6333 23.34C72.3047 23.34 71.9703 23.5667 71.6303 24.02C71.4943 24.2353 71.3753 24.462 71.2733 24.7V30.99L72.2933 31.245V31.5H67.5333V31.245L68.5533 30.99V25.55C68.5533 24.8133 68.44 24.2637 68.2133 23.901C67.9867 23.527 67.7317 23.34 67.4483 23.34C67.1197 23.34 66.7853 23.5667 66.4453 24.02C66.3093 24.2353 66.1903 24.462 66.0883 24.7V30.99L67.1083 31.245V31.5H62.3483V31.245ZM82.3266 31.755C80.9213 31.755 79.8163 31.3583 79.0116 30.565C78.2183 29.7603 77.8216 28.6553 77.8216 27.25C77.8216 25.8447 78.2183 24.7453 79.0116 23.952C79.8163 23.1473 80.9213 22.745 82.3266 22.745C83.732 22.745 84.8313 23.1473 85.6246 23.952C86.4293 24.7453 86.8316 25.8447 86.8316 27.25C86.8316 28.6553 86.4293 29.7603 85.6246 30.565C84.8313 31.3583 83.732 31.755 82.3266 31.755ZM82.3266 31.415C82.78 31.415 83.1596 31.0977 83.4656 30.463C83.783 29.8283 83.9416 28.7573 83.9416 27.25C83.9416 25.7427 83.783 24.6717 83.4656 24.037C83.1596 23.4023 82.78 23.085 82.3266 23.085C81.8733 23.085 81.488 23.4023 81.1706 24.037C80.8646 24.6717 80.7116 25.7427 80.7116 27.25C80.7116 28.7573 80.8646 29.8283 81.1706 30.463C81.488 31.0977 81.8733 31.415 82.3266 31.415ZM91.6023 31.245L92.6223 30.99V23.51L91.6023 23.255V23H93.1323C93.8009 23 94.3279 23.2153 94.7133 23.646C94.8606 23.816 94.9853 24.0257 95.0873 24.275C95.2573 23.9577 95.4386 23.7027 95.6313 23.51C96.1413 23 96.7249 22.745 97.3823 22.745C98.0396 22.745 98.6176 22.8923 99.1163 23.187C99.6149 23.4703 100 23.8613 100.272 24.36C100.442 24.0313 100.624 23.765 100.816 23.561C101.338 23.017 101.921 22.745 102.567 22.745C103.168 22.745 103.706 22.8697 104.182 23.119C104.67 23.3683 105.044 23.7083 105.304 24.139C105.576 24.5697 105.712 25.04 105.712 25.55V30.99L106.732 31.245V31.5H104.522C103.502 31.5 102.992 30.99 102.992 29.97V25.55C102.992 24.8133 102.879 24.2637 102.652 23.901C102.426 23.527 102.171 23.34 101.887 23.34C101.559 23.34 101.224 23.5667 100.884 24.02C100.748 24.2353 100.629 24.462 100.527 24.7V30.99L101.547 31.245V31.5H96.7873V31.245L97.8073 30.99V25.55C97.8073 24.8133 97.6939 24.2637 97.4673 23.901C97.2406 23.527 96.9856 23.34 96.7023 23.34C96.3736 23.34 96.0393 23.5667 95.6993 24.02C95.5633 24.2353 95.4443 24.462 95.3423 24.7V30.99L96.3623 31.245V31.5H91.6023V31.245ZM111.666 31.755C110.215 31.755 109.087 31.3583 108.283 30.565C107.478 29.7603 107.076 28.6553 107.076 27.25C107.076 26.332 107.251 25.533 107.603 24.853C107.954 24.173 108.441 23.6517 109.065 23.289C109.699 22.9263 110.425 22.745 111.241 22.745C112.057 22.745 112.771 22.898 113.383 23.204C114.006 23.51 114.482 23.9237 114.811 24.445C115.151 24.955 115.321 25.5217 115.321 26.145C115.321 26.4283 115.292 26.672 115.236 26.876L115.151 27.165C114.663 27.267 114.136 27.352 113.57 27.42C112.38 27.59 111.178 27.675 109.966 27.675C109.966 28.9897 110.147 29.9303 110.51 30.497C110.872 31.0523 111.371 31.33 112.006 31.33C112.448 31.33 112.856 31.228 113.23 31.024C113.615 30.8087 113.915 30.531 114.131 30.191C114.357 29.8397 114.471 29.4827 114.471 29.12H114.896C114.896 29.5733 114.76 30.004 114.488 30.412C114.216 30.82 113.836 31.1487 113.349 31.398C112.861 31.636 112.3 31.755 111.666 31.755ZM109.966 27.25C110.691 27.25 111.28 27.2217 111.734 27.165C111.926 27.1537 112.13 27.1253 112.346 27.08C112.357 27.0233 112.385 26.8987 112.431 26.706C112.487 26.4227 112.516 26.1223 112.516 25.805C112.516 24.8643 112.391 24.1787 112.142 23.748C111.892 23.306 111.592 23.085 111.241 23.085C110.391 23.085 109.966 24.4733 109.966 27.25ZM119.988 31.755C119.354 31.755 118.781 31.6247 118.271 31.364C117.773 31.092 117.382 30.7407 117.098 30.31C116.815 29.8793 116.673 29.426 116.673 28.95V23.51L115.653 23.255V23H117.863C118.883 23 119.393 23.51 119.393 24.53V28.95C119.393 29.664 119.518 30.2137 119.767 30.599C120.028 30.973 120.328 31.16 120.668 31.16C121.088 31.16 121.467 30.9333 121.807 30.48C121.932 30.31 122.062 30.0833 122.198 29.8V23.51L121.178 23.255V23H125.938V23.255L124.918 23.51V31.585H124.748C123.921 31.585 123.292 31.3583 122.861 30.905C122.669 30.701 122.533 30.4743 122.453 30.225C122.295 30.5083 122.108 30.7633 121.892 30.99C121.382 31.5 120.748 31.755 119.988 31.755ZM134.96 31.755C133.509 31.755 132.381 31.3583 131.577 30.565C130.772 29.7603 130.37 28.6553 130.37 27.25C130.37 26.332 130.545 25.533 130.897 24.853C131.248 24.173 131.735 23.6517 132.359 23.289C132.993 22.9263 133.719 22.745 134.535 22.745C135.351 22.745 136.065 22.898 136.677 23.204C137.3 23.51 137.776 23.9237 138.105 24.445C138.445 24.955 138.615 25.5217 138.615 26.145C138.615 26.4283 138.586 26.672 138.53 26.876L138.445 27.165C137.957 27.267 137.43 27.352 136.864 27.42C135.674 27.59 134.472 27.675 133.26 27.675C133.26 28.9897 133.441 29.9303 133.804 30.497C134.166 31.0523 134.665 31.33 135.3 31.33C135.742 31.33 136.15 31.228 136.524 31.024C136.909 30.8087 137.209 30.531 137.425 30.191C137.651 29.8397 137.765 29.4827 137.765 29.12H138.19C138.19 29.5733 138.054 30.004 137.782 30.412C137.51 30.82 137.13 31.1487 136.643 31.398C136.155 31.636 135.594 31.755 134.96 31.755ZM133.26 27.25C133.985 27.25 134.574 27.2217 135.028 27.165C135.22 27.1537 135.424 27.1253 135.64 27.08C135.651 27.0233 135.679 26.8987 135.725 26.706C135.781 26.4227 135.81 26.1223 135.81 25.805C135.81 24.8643 135.685 24.1787 135.436 23.748C135.186 23.306 134.886 23.085 134.535 23.085C133.685 23.085 133.26 24.4733 133.26 27.25ZM147.622 31.755C146.817 31.755 146.064 31.5737 145.361 31.211C145.044 31.0523 144.777 30.8653 144.562 30.65C144.403 30.9107 144.205 31.143 143.967 31.347C143.763 31.4943 143.65 31.5737 143.627 31.585H143.202V28.355H143.882C144.052 28.9103 144.29 29.409 144.596 29.851C145.287 30.837 146.183 31.33 147.282 31.33C147.928 31.33 148.444 31.1373 148.829 30.752C149.214 30.3667 149.407 29.851 149.407 29.205C149.407 28.831 149.294 28.4967 149.067 28.202C148.852 27.9073 148.58 27.6467 148.251 27.42C147.922 27.1933 147.463 26.91 146.874 26.57C146.126 26.1507 145.52 25.771 145.055 25.431C144.59 25.091 144.194 24.666 143.865 24.156C143.536 23.6347 143.372 23.0227 143.372 22.32C143.372 21.7647 143.525 21.266 143.831 20.824C144.148 20.3707 144.619 20.0137 145.242 19.753C145.865 19.481 146.63 19.345 147.537 19.345C148.194 19.345 148.852 19.532 149.509 19.906C149.758 20.042 150.008 20.2233 150.257 20.45C150.45 20.1553 150.648 19.923 150.852 19.753C151.056 19.6057 151.169 19.5263 151.192 19.515H151.617V22.745H150.937C150.79 22.201 150.569 21.708 150.274 21.266C150.002 20.8353 149.662 20.4783 149.254 20.195C148.857 19.9117 148.398 19.77 147.877 19.77C147.435 19.77 147.055 19.9457 146.738 20.297C146.421 20.6483 146.262 21.096 146.262 21.64C146.262 22.0593 146.381 22.439 146.619 22.779C146.868 23.1077 147.169 23.3967 147.52 23.646C147.883 23.8953 148.37 24.1957 148.982 24.547C149.696 24.955 150.274 25.3177 150.716 25.635C151.158 25.9523 151.532 26.349 151.838 26.825C152.144 27.2897 152.297 27.828 152.297 28.44C152.297 29.052 152.121 29.613 151.77 30.123C151.419 30.6217 150.892 31.0183 150.189 31.313C149.486 31.6077 148.631 31.755 147.622 31.755ZM157.307 31.755C155.857 31.755 154.729 31.3583 153.924 30.565C153.12 29.7603 152.717 28.6553 152.717 27.25C152.717 26.332 152.893 25.533 153.244 24.853C153.596 24.173 154.083 23.6517 154.706 23.289C155.341 22.9263 156.066 22.745 156.882 22.745C157.698 22.745 158.412 22.898 159.024 23.204C159.648 23.51 160.124 23.9237 160.452 24.445C160.792 24.955 160.962 25.5217 160.962 26.145C160.962 26.4283 160.934 26.672 160.877 26.876L160.792 27.165C160.305 27.267 159.778 27.352 159.211 27.42C158.021 27.59 156.82 27.675 155.607 27.675C155.607 28.9897 155.789 29.9303 156.151 30.497C156.514 31.0523 157.013 31.33 157.647 31.33C158.089 31.33 158.497 31.228 158.871 31.024C159.257 30.8087 159.557 30.531 159.772 30.191C159.999 29.8397 160.112 29.4827 160.112 29.12H160.537C160.537 29.5733 160.401 30.004 160.129 30.412C159.857 30.82 159.478 31.1487 158.99 31.398C158.503 31.636 157.942 31.755 157.307 31.755ZM155.607 27.25C156.333 27.25 156.922 27.2217 157.375 27.165C157.568 27.1537 157.772 27.1253 157.987 27.08C157.999 27.0233 158.027 26.8987 158.072 26.706C158.129 26.4227 158.157 26.1223 158.157 25.805C158.157 24.8643 158.033 24.1787 157.783 23.748C157.534 23.306 157.234 23.085 156.882 23.085C156.032 23.085 155.607 24.4733 155.607 27.25ZM165.63 31.755C164.995 31.755 164.423 31.6247 163.913 31.364C163.414 31.092 163.023 30.7407 162.74 30.31C162.457 29.8793 162.315 29.426 162.315 28.95V23.51L161.295 23.255V23H163.505C164.525 23 165.035 23.51 165.035 24.53V28.95C165.035 29.664 165.16 30.2137 165.409 30.599C165.67 30.973 165.97 31.16 166.31 31.16C166.729 31.16 167.109 30.9333 167.449 30.48C167.574 30.31 167.704 30.0833 167.84 29.8V23.51L166.82 23.255V23H171.58V23.255L170.56 23.51V31.585H170.39C169.563 31.585 168.934 31.3583 168.503 30.905C168.31 30.701 168.174 30.4743 168.095 30.225C167.936 30.5083 167.749 30.7633 167.534 30.99C167.024 31.5 166.389 31.755 165.63 31.755Z" fill="#FCE1D0"/>
</svg>
