<svg width="157" height="191" viewBox="0 0 157 191" fill="none" xmlns="http://www.w3.org/2000/svg">
<path d="M117.826 54.9336V74.5918C117.826 90.8095 117.826 98.9183 112.789 103.956C107.751 108.993 99.6423 108.993 83.4246 108.993H73.5955C57.3779 108.993 49.2691 108.993 44.2319 103.956C39.1944 98.9183 39.1944 90.8095 39.1944 74.5918V54.9336H110.454C115.049 54.9336 117.344 54.9336 119.055 54.1476C120.123 53.6682 121.052 52.9239 121.753 51.9853C122.741 50.614 122.741 48.7809 122.741 45.1049C122.741 41.4286 122.741 39.5908 121.753 38.2246C121.104 37.3301 120.175 36.5831 119.055 36.0622C117.344 35.2759 115.049 35.2759 110.454 35.2759H40.2359M78.5103 29.6586C78.5103 24.6314 76.5133 19.8101 72.9582 16.2553C69.4036 12.7006 64.5822 10.7035 59.555 10.7035H57.8005C52.9549 10.7035 49.0234 14.6302 49.0234 19.4807C49.0234 23.6699 50.6876 27.6874 53.6495 30.6496C56.6118 33.6117 60.6292 35.2759 64.8184 35.2759H78.5103M78.5103 29.6586V35.2759M78.5103 29.6586C78.5103 24.6314 80.5073 19.8101 84.0619 16.2553C87.6166 12.7006 92.4379 10.7035 97.4652 10.7035H99.2196C104.066 10.7035 107.997 14.6302 107.997 19.4807C107.997 21.555 107.588 23.6089 106.795 25.5253C106.001 27.4416 104.837 29.1829 103.371 30.6496C101.904 32.1163 100.163 33.2798 98.2464 34.0735C96.3301 34.8673 94.2763 35.2759 92.2018 35.2759H78.5103" stroke="#FCE1D0" stroke-width="6.27588" stroke-linecap="round" stroke-linejoin="round"/>
<path d="M100.698 63.733L118.727 81.1438C119.861 82.2386 120.032 83.9 119.111 84.8547L119.111 84.8547C118.189 85.8093 116.522 85.6958 115.389 84.601L97.3592 67.1903C96.2255 66.0955 96.0539 64.4341 96.9758 63.4794C97.8977 62.5247 99.5641 62.6383 100.698 63.733Z" fill="#FCE1D0"/>
<path d="M99.7311 67.1558L56.6566 108.752C55.5229 109.847 53.8565 109.961 52.9346 109.006L52.9346 109.006C52.0127 108.051 52.1843 106.39 53.318 105.295L96.3925 63.6986C97.5262 62.6038 99.1926 62.4903 100.114 63.4449C101.036 64.3996 100.865 66.061 99.7311 67.1558Z" fill="#FCE1D0"/>
<path d="M65.6549 67.1356L42.6542 89.3471C41.5321 90.4307 39.875 90.5353 38.9531 89.5806L38.9531 89.5806C38.0312 88.6259 38.1935 86.9735 39.3156 85.8899L62.3163 63.6784C63.4384 62.5948 65.0954 62.4903 66.0174 63.4449C66.9393 64.3996 66.777 66.052 65.6549 67.1356Z" fill="#FCE1D0"/>
<path d="M103.254 108.938L62.8502 67.0977C61.7607 65.9696 61.6515 64.3076 62.6061 63.3857L62.6062 63.3857C63.5608 62.4638 65.218 62.6309 66.3074 63.7591L106.712 105.599C107.801 106.727 107.91 108.389 106.956 109.311C106.001 110.233 104.344 110.066 103.254 108.938Z" fill="#FCE1D0"/>
<path d="M39.2547 132.185V149.199L41.8226 150.162V150.644H35.7236V150.162L38.2917 149.199V129.136L36.3656 128.654V128.173H40.3782C41.491 128.173 42.3684 128.408 43.0105 128.879C43.6741 129.328 44.241 130.003 44.7117 130.901L51.7097 144.287L57.0705 130.901C57.4347 129.96 57.9269 129.275 58.5475 128.847C59.1681 128.397 60.1203 128.173 61.4044 128.173H64.775V128.654L62.8488 129.136V149.68L64.775 150.162V150.644H55.6262V150.162L57.5524 149.68V132.185L50.0085 150.964H49.0456L39.2547 132.185ZM66.3912 150.162L68.3174 149.68V135.556L66.3912 135.074V134.593H70.5644C72.4907 134.593 73.4536 135.556 73.4536 137.482V149.68L75.3798 150.162V150.644H66.3912V150.162ZM70.5644 132.667C69.9224 132.667 69.3872 132.453 68.9594 132.025C68.5313 131.597 68.3174 131.062 68.3174 130.42C68.3174 129.778 68.5313 129.243 68.9594 128.815C69.3872 128.387 69.9224 128.173 70.5644 128.173C71.2065 128.173 71.7416 128.387 72.1694 128.815C72.5976 129.243 72.8115 129.778 72.8115 130.42C72.8115 131.062 72.5976 131.597 72.1694 132.025C71.7416 132.453 71.2065 132.667 70.5644 132.667ZM76.0167 150.162L77.9425 149.68V135.556L76.0167 135.074V134.593H78.9058C80.1685 134.593 81.1636 135 81.8912 135.813C82.1695 136.134 82.4048 136.529 82.5973 137.001C82.9185 136.401 83.2608 135.92 83.6246 135.556C84.5875 134.593 85.6895 134.111 86.9308 134.111C88.1724 134.111 89.2637 134.39 90.2051 134.946C91.147 135.481 91.8745 136.219 92.3882 137.161C92.709 136.54 93.0517 136.037 93.4155 135.652C94.3999 134.625 95.5019 134.111 96.7217 134.111C97.856 134.111 98.8725 134.347 99.7714 134.818C100.691 135.288 101.398 135.93 101.89 136.744C102.404 137.557 102.661 138.445 102.661 139.408V149.68L104.586 150.162V150.644H100.414C98.4873 150.644 97.5244 149.68 97.5244 147.754V139.408C97.5244 138.017 97.3101 136.979 96.8823 136.294C96.4541 135.588 95.9727 135.235 95.4375 135.235C94.8169 135.235 94.1856 135.663 93.5439 136.519C93.2871 136.925 93.0621 137.354 92.8696 137.803V149.68L94.7959 150.162V150.644H85.8072V150.162L87.7334 149.68V139.408C87.7334 138.017 87.5196 136.979 87.0914 136.294C86.6636 135.588 86.1817 135.235 85.647 135.235C85.0264 135.235 84.395 135.663 83.753 136.519C83.4961 136.925 83.2715 137.354 83.0787 137.803V149.68L85.0049 150.162V150.644H76.0167V150.162ZM113.742 151.125C111.088 151.125 109.001 150.376 107.482 148.878C105.984 147.358 105.235 145.272 105.235 142.618C105.235 139.964 105.984 137.889 107.482 136.391C109.001 134.871 111.088 134.111 113.742 134.111C116.395 134.111 118.471 134.871 119.969 136.391C121.489 137.889 122.248 139.964 122.248 142.618C122.248 145.272 121.489 147.358 119.969 148.878C118.471 150.376 116.395 151.125 113.742 151.125ZM113.742 150.483C114.598 150.483 115.314 149.884 115.892 148.685C116.492 147.487 116.791 145.464 116.791 142.618C116.791 139.772 116.492 137.75 115.892 136.551C115.314 135.353 114.598 134.754 113.742 134.754C112.886 134.754 112.158 135.353 111.559 136.551C110.981 137.75 110.692 139.772 110.692 142.618C110.692 145.464 110.981 147.487 111.559 148.685C112.158 149.884 112.886 150.483 113.742 150.483ZM3.31409 176.918L5.24016 176.437V162.312L3.31409 161.831V161.349H6.20319C7.46583 161.349 8.46095 161.756 9.18858 162.569C9.4668 162.89 9.7022 163.286 9.89478 163.757C10.2158 163.157 10.5582 162.676 10.922 162.312C11.885 161.349 12.9872 160.868 14.2284 160.868C15.4696 160.868 16.5611 161.146 17.5027 161.702C18.4444 162.237 19.172 162.976 19.6856 163.917C20.0066 163.297 20.349 162.794 20.7128 162.408C21.6972 161.381 22.7994 160.868 24.0192 160.868C25.1535 160.868 26.17 161.103 27.0688 161.574C27.9891 162.045 28.6953 162.687 29.1875 163.5C29.7011 164.313 29.9579 165.201 29.9579 166.164V176.437L31.884 176.918V177.4H27.7108C25.7848 177.4 24.8218 176.437 24.8218 174.511V166.164C24.8218 164.774 24.6078 163.735 24.1797 163.05C23.7517 162.344 23.2702 161.991 22.7352 161.991C22.1146 161.991 21.4833 162.419 20.8412 163.276C20.5844 163.682 20.3597 164.11 20.1671 164.559V176.437L22.0932 176.918V177.4H13.1049V176.918L15.031 176.437V166.164C15.031 164.774 14.817 163.735 14.3889 163.05C13.9609 162.344 13.4794 161.991 12.9444 161.991C12.3238 161.991 11.6925 162.419 11.0504 163.276C10.7936 163.682 10.5689 164.11 10.3763 164.559V176.437L12.3024 176.918V177.4H3.31409V176.918ZM41.1996 177.881C38.4603 177.881 36.3309 177.132 34.8115 175.634C33.292 174.115 32.5323 172.028 32.5323 169.375C32.5323 167.641 32.864 166.132 33.5274 164.848C34.1908 163.564 35.1111 162.58 36.2881 161.895C37.4865 161.21 38.8562 160.868 40.3969 160.868C41.9379 160.868 43.286 161.156 44.4418 161.735C45.619 162.312 46.5175 163.093 47.1381 164.078C47.7802 165.041 48.1014 166.111 48.1014 167.288C48.1014 167.823 48.0477 168.283 47.9408 168.668L47.7802 169.214C46.8602 169.406 45.8651 169.567 44.7948 169.695C42.5477 170.017 40.2792 170.177 37.9895 170.177C37.9895 172.659 38.3318 174.436 39.0167 175.506C39.7015 176.554 40.643 177.079 41.8417 177.079C42.6762 177.079 43.4467 176.886 44.1527 176.501C44.8803 176.094 45.4476 175.57 45.8543 174.928C46.2821 174.265 46.4964 173.59 46.4964 172.906H47.2987C47.2987 173.762 47.0419 174.575 46.5282 175.345C46.0145 176.116 45.2977 176.736 44.3774 177.207C43.4574 177.657 42.3979 177.881 41.1996 177.881ZM37.9895 169.375C39.3591 169.375 40.472 169.321 41.328 169.214C41.6918 169.193 42.077 169.139 42.4837 169.053C42.5048 168.946 42.5585 168.711 42.644 168.347C42.7509 167.812 42.8046 167.245 42.8046 166.646C42.8046 164.87 42.5692 163.575 42.0985 162.762C41.6274 161.927 41.0604 161.51 40.3969 161.51C38.792 161.51 37.9895 164.131 37.9895 169.375ZM56.9151 177.881C55.7168 177.881 54.6362 177.635 53.6729 177.143C52.7315 176.629 51.9932 175.966 51.4581 175.153C50.9229 174.339 50.6554 173.483 50.6554 172.585V162.312L48.7295 161.831V161.349H52.9024C54.8287 161.349 55.7916 162.312 55.7916 164.238V172.585C55.7916 173.933 56.0269 174.971 56.498 175.698C56.9902 176.405 57.5572 176.758 58.1992 176.758C58.9912 176.758 59.708 176.33 60.3501 175.474C60.5854 175.153 60.8315 174.725 61.0884 174.19V162.312L59.1622 161.831V161.349H68.1508V161.831L66.2246 162.312V177.56H65.9033C64.3413 177.56 63.1533 177.132 62.3403 176.276C61.9765 175.891 61.7197 175.463 61.5698 174.992C61.2705 175.527 60.917 176.009 60.5107 176.437C59.5474 177.4 58.3491 177.881 56.9151 177.881ZM85.1854 177.881C82.4462 177.881 80.3168 177.132 78.7973 175.634C77.2778 174.115 76.518 172.028 76.518 169.375C76.518 167.641 76.85 166.132 77.5131 164.848C78.1767 163.564 79.0971 162.58 80.2739 161.895C81.4725 161.21 82.8421 160.868 84.3827 160.868C85.9237 160.868 87.2719 161.156 88.4276 161.735C89.6048 162.312 90.5037 163.093 91.1243 164.078C91.766 165.041 92.0872 166.111 92.0872 167.288C92.0872 167.823 92.0336 168.283 91.9266 168.668L91.766 169.214C90.846 169.406 89.8509 169.567 88.7806 169.695C86.5336 170.017 84.265 170.177 81.9754 170.177C81.9754 172.659 82.3178 174.436 83.0028 175.506C83.6874 176.554 84.6292 177.079 85.8275 177.079C86.662 177.079 87.4325 176.886 88.1386 176.501C88.8665 176.094 89.4335 175.57 89.8402 174.928C90.2679 174.265 90.4822 173.59 90.4822 172.906H91.2845C91.2845 173.762 91.0277 174.575 90.514 175.345C90.0008 176.116 89.2836 176.736 88.3636 177.207C87.4432 177.657 86.3837 177.881 85.1854 177.881ZM81.9754 169.375C83.3451 169.375 84.4579 169.321 85.3138 169.214C85.6776 169.193 86.0629 169.139 86.4696 169.053C86.491 168.946 86.5443 168.711 86.6302 168.347C86.7371 167.812 86.7904 167.245 86.7904 166.646C86.7904 164.87 86.5551 163.575 86.0843 162.762C85.6136 161.927 85.0463 161.51 84.3827 161.51C82.7777 161.51 81.9754 164.131 81.9754 169.375ZM109.096 177.881C107.576 177.881 106.153 177.539 104.826 176.854C104.227 176.554 103.724 176.201 103.317 175.795C103.018 176.287 102.643 176.726 102.194 177.111C101.809 177.389 101.595 177.539 101.552 177.56H100.749V171.461H102.034C102.354 172.51 102.804 173.451 103.382 174.286C104.687 176.148 106.378 177.079 108.454 177.079C109.674 177.079 110.647 176.715 111.375 175.987C112.102 175.26 112.466 174.286 112.466 173.066C112.466 172.36 112.252 171.729 111.824 171.172C111.418 170.616 110.904 170.124 110.284 169.695C109.663 169.268 108.796 168.733 107.683 168.09C106.271 167.298 105.126 166.582 104.248 165.94C103.371 165.298 102.622 164.495 102.001 163.532C101.381 162.548 101.07 161.392 101.07 160.065C101.07 159.017 101.359 158.075 101.937 157.24C102.537 156.384 103.425 155.71 104.602 155.218C105.779 154.704 107.223 154.447 108.935 154.447C110.177 154.447 111.418 154.801 112.659 155.507C113.13 155.764 113.6 156.106 114.071 156.534C114.435 155.978 114.809 155.539 115.195 155.218C115.58 154.94 115.794 154.79 115.837 154.769H116.639V160.868H115.355C115.077 159.841 114.66 158.909 114.103 158.075C113.59 157.262 112.948 156.588 112.178 156.052C111.428 155.518 110.561 155.25 109.577 155.25C108.743 155.25 108.026 155.582 107.427 156.245C106.827 156.908 106.528 157.754 106.528 158.781C106.528 159.573 106.752 160.29 107.202 160.932C107.673 161.552 108.24 162.098 108.903 162.569C109.588 163.04 110.508 163.607 111.664 164.271C113.012 165.041 114.103 165.726 114.938 166.325C115.773 166.924 116.479 167.673 117.057 168.572C117.635 169.449 117.924 170.466 117.924 171.622C117.924 172.777 117.592 173.837 116.929 174.799C116.265 175.741 115.27 176.49 113.943 177.046C112.616 177.603 111 177.881 109.096 177.881ZM127.385 177.881C124.645 177.881 122.516 177.132 120.996 175.634C119.477 174.115 118.717 172.028 118.717 169.375C118.717 167.641 119.049 166.132 119.712 164.848C120.376 163.564 121.296 162.58 122.473 161.895C123.671 161.21 125.041 160.868 126.582 160.868C128.123 160.868 129.471 161.156 130.627 161.735C131.804 162.312 132.702 163.093 133.323 164.078C133.965 165.041 134.286 166.111 134.286 167.288C134.286 167.823 134.233 168.283 134.126 168.668L133.965 169.214C133.045 169.406 132.05 169.567 130.98 169.695C128.733 170.017 126.464 170.177 124.174 170.177C124.174 172.659 124.517 174.436 125.202 175.506C125.887 176.554 126.828 177.079 128.027 177.079C128.861 177.079 129.632 176.886 130.338 176.501C131.065 176.094 131.633 175.57 132.039 174.928C132.467 174.265 132.681 173.59 132.681 172.906H133.484C133.484 173.762 133.227 174.575 132.713 175.345C132.2 176.116 131.483 176.736 130.562 177.207C129.642 177.657 128.583 177.881 127.385 177.881ZM124.174 169.375C125.544 169.375 126.657 169.321 127.513 169.214C127.877 169.193 128.262 169.139 128.668 169.053C128.69 168.946 128.743 168.711 128.829 168.347C128.936 167.812 128.99 167.245 128.99 166.646C128.99 164.87 128.754 163.575 128.283 162.762C127.812 161.927 127.245 161.51 126.582 161.51C124.977 161.51 124.174 164.131 124.174 169.375ZM143.1 177.881C141.902 177.881 140.821 177.635 139.858 177.143C138.916 176.629 138.178 175.966 137.643 175.153C137.108 174.339 136.84 173.483 136.84 172.585V162.312L134.915 161.831V161.349H139.087C141.014 161.349 141.977 162.312 141.977 164.238V172.585C141.977 173.933 142.212 174.971 142.683 175.698C143.175 176.405 143.742 176.758 144.384 176.758C145.176 176.758 145.893 176.33 146.535 175.474C146.77 175.153 147.017 174.725 147.273 174.19V162.312L145.347 161.831V161.349H154.335V161.831L152.41 162.312V177.56H152.088C150.526 177.56 149.338 177.132 148.525 176.276C148.162 175.891 147.905 175.463 147.755 174.992C147.455 175.527 147.102 176.009 146.695 176.437C145.732 177.4 144.534 177.881 143.1 177.881Z" fill="#FCE1D0"/>
</svg>
