<svg width="267" height="110" viewBox="0 0 267 110" fill="none" xmlns="http://www.w3.org/2000/svg">
<g clip-path="url(#clip0_67_6667)">
<path d="M90.1637 50.4917V68.5244C90.1637 83.4013 90.1637 90.8398 85.5428 95.4607C80.9219 100.082 72.877 106.62 58 106.62H50C35.123 106.62 27.2747 100.082 22.6538 95.4607C18.0329 90.8398 18.0329 83.4013 18.0329 68.5244V50.4917H83.4014C87.6165 50.4917 89.7219 50.4917 91.2907 49.7704C92.2711 49.3306 93.123 48.6479 93.7657 47.7868C94.6718 46.529 94.6718 44.8474 94.6718 41.4753C94.6718 38.1032 94.6718 36.4172 93.7657 35.1639C93.1706 34.3434 92.3186 33.6582 91.2907 33.1803C89.7219 32.459 87.6165 32.459 83.4014 32.459H18.9883M54.0983 27.3062C54.0983 22.6946 52.2663 18.2719 49.0055 15.011C45.7446 11.7501 41.3219 9.91815 36.7103 9.91815H35.1009C30.6558 9.91815 27.0493 13.5202 27.0493 17.9697C27.0493 21.8125 28.5758 25.4979 31.2931 28.2152C34.0103 30.9325 37.6957 32.459 41.5385 32.459H54.0983M54.0983 27.3062V32.459M54.0983 27.3062C54.0983 22.6946 55.9302 18.2719 59.1911 15.011C62.452 11.7501 66.8747 9.91815 71.4863 9.91815H73.0957C77.5408 9.91815 81.1473 13.5202 81.1473 17.9697C81.1473 19.8725 80.7725 21.7566 80.0444 23.5145C79.3162 25.2725 78.249 26.8697 76.9035 28.2152C75.5581 29.5606 73.9608 30.6279 72.2029 31.3561C70.4449 32.0842 68.5608 32.459 66.6581 32.459H54.0983" stroke="#FCE1D0" stroke-width="5.23529" stroke-linecap="round" stroke-linejoin="round"/>
</g>
<rect width="28.2269" height="5.23529" rx="2.61765" transform="matrix(-0.71934 -0.694658 -0.694658 0.71934 92.8729 76.353)" fill="#FCE1D0"/>
<rect width="60.1653" height="5.23529" rx="2.61765" transform="matrix(0.71934 -0.694658 -0.694658 -0.71934 32.4195 102.176)" fill="#FCE1D0"/>
<rect width="34.8679" height="5.23529" rx="2.61765" transform="matrix(0.71934 -0.694658 -0.694658 -0.71934 19.343 83.8596)" fill="#FCE1D0"/>
<rect width="58.8504" height="5.23529" rx="2.61765" transform="matrix(0.694658 0.71934 0.71934 -0.694658 37.5203 59.5092)" fill="#FCE1D0"/>
<path d="M117.882 47.6523V64.5007L120.425 65.4544V65.9312H114.385V65.4544L116.928 64.5007V44.6323L115.021 44.1555V43.6786H118.995C120.097 43.6786 120.965 43.9118 121.601 44.378C122.258 44.8231 122.82 45.4906 123.286 46.3807L130.216 59.6369L135.525 46.3807C135.885 45.4483 136.373 44.7701 136.987 44.3462C137.602 43.9012 138.545 43.6786 139.817 43.6786H143.155V44.1555L141.247 44.6323V64.9776L143.155 65.4544V65.9312H134.095V65.4544L136.002 64.9776V47.6523L128.531 66.2491H127.578L117.882 47.6523ZM144.755 65.4544L146.663 64.9776V50.9902L144.755 50.5134V50.0365H148.888C150.795 50.0365 151.749 50.9902 151.749 52.8976V64.9776L153.656 65.4544V65.9312H144.755V65.4544ZM148.888 48.1292C148.252 48.1292 147.722 47.9172 147.298 47.4934C146.874 47.0695 146.663 46.5397 146.663 45.9039C146.663 45.2681 146.874 44.7383 147.298 44.3144C147.722 43.8906 148.252 43.6786 148.888 43.6786C149.524 43.6786 150.053 43.8906 150.477 44.3144C150.901 44.7383 151.113 45.2681 151.113 45.9039C151.113 46.5397 150.901 47.0695 150.477 47.4934C150.053 47.9172 149.524 48.1292 148.888 48.1292ZM154.287 65.4544L156.194 64.9776V50.9902L154.287 50.5134V50.0365H157.148C158.398 50.0365 159.384 50.4392 160.104 51.2445C160.38 51.5624 160.613 51.9545 160.804 52.4207C161.122 51.8273 161.461 51.3505 161.821 50.9902C162.775 50.0365 163.866 49.5597 165.095 49.5597C166.325 49.5597 167.405 49.8352 168.338 50.3862C169.27 50.916 169.991 51.6472 170.5 52.5797C170.818 51.9651 171.157 51.4671 171.517 51.0856C172.492 50.0683 173.583 49.5597 174.791 49.5597C175.914 49.5597 176.921 49.7928 177.811 50.2591C178.722 50.7253 179.422 51.3611 179.909 52.1664C180.418 52.9718 180.672 53.8513 180.672 54.8049V64.9776L182.58 65.4544V65.9312H178.447C176.54 65.9312 175.586 64.9776 175.586 63.0702V54.8049C175.586 53.4274 175.374 52.3995 174.95 51.7214C174.526 51.022 174.049 50.6723 173.52 50.6723C172.905 50.6723 172.28 51.0962 171.644 51.9439C171.39 52.3466 171.167 52.7704 170.976 53.2155V64.9776L172.884 65.4544V65.9312H163.983V65.4544L165.89 64.9776V54.8049C165.89 53.4274 165.678 52.3995 165.254 51.7214C164.831 51.022 164.354 50.6723 163.824 50.6723C163.209 50.6723 162.584 51.0962 161.948 51.9439C161.694 52.3466 161.471 52.7704 161.281 53.2155V64.9776L163.188 65.4544V65.9312H154.287V65.4544ZM191.646 66.4081C189.018 66.4081 186.952 65.6663 185.447 64.1828C183.963 62.6781 183.222 60.6118 183.222 57.9839C183.222 55.356 183.963 53.3002 185.447 51.8167C186.952 50.312 189.018 49.5597 191.646 49.5597C194.274 49.5597 196.329 50.312 197.813 51.8167C199.318 53.3002 200.07 55.356 200.07 57.9839C200.07 60.6118 199.318 62.6781 197.813 64.1828C196.329 65.6663 194.274 66.4081 191.646 66.4081ZM191.646 65.7723C192.494 65.7723 193.203 65.1789 193.776 63.9921C194.369 62.8053 194.666 60.8025 194.666 57.9839C194.666 55.1652 194.369 53.1625 193.776 51.9757C193.203 50.7889 192.494 50.1955 191.646 50.1955C190.798 50.1955 190.078 50.7889 189.484 51.9757C188.912 53.1625 188.626 55.1652 188.626 57.9839C188.626 60.8025 188.912 62.8053 189.484 63.9921C190.078 65.1789 190.798 65.7723 191.646 65.7723ZM114.703 91.4544L116.61 90.9776V76.9902L114.703 76.5134V76.0365H117.564C118.814 76.0365 119.8 76.4392 120.52 77.2445C120.796 77.5624 121.029 77.9545 121.22 78.4207C121.538 77.8273 121.877 77.3505 122.237 76.9902C123.191 76.0365 124.282 75.5597 125.511 75.5597C126.741 75.5597 127.821 75.8352 128.754 76.3862C129.686 76.916 130.407 77.6472 130.916 78.5797C131.233 77.9651 131.573 77.4671 131.933 77.0856C132.908 76.0683 133.999 75.5597 135.207 75.5597C136.33 75.5597 137.337 75.7928 138.227 76.2591C139.138 76.7253 139.838 77.3611 140.325 78.1664C140.834 78.9718 141.088 79.8513 141.088 80.8049V90.9776L142.996 91.4544V91.9312H138.863C136.956 91.9312 136.002 90.9776 136.002 89.0702V80.8049C136.002 79.4274 135.79 78.3995 135.366 77.7214C134.942 77.022 134.465 76.6723 133.936 76.6723C133.321 76.6723 132.696 77.0962 132.06 77.9439C131.806 78.3466 131.583 78.7704 131.392 79.2155V90.9776L133.3 91.4544V91.9312H124.399V91.4544L126.306 90.9776V80.8049C126.306 79.4274 126.094 78.3995 125.67 77.7214C125.246 77.022 124.77 76.6723 124.24 76.6723C123.625 76.6723 123 77.0962 122.364 77.9439C122.11 78.3466 121.887 78.7704 121.697 79.2155V90.9776L123.604 91.4544V91.9312H114.703V91.4544ZM152.221 92.4081C149.508 92.4081 147.399 91.6663 145.895 90.1828C144.39 88.6781 143.638 86.6118 143.638 83.9839C143.638 82.2673 143.966 80.7732 144.623 79.5016C145.28 78.23 146.191 77.2551 147.357 76.577C148.544 75.8988 149.9 75.5597 151.426 75.5597C152.952 75.5597 154.287 75.8458 155.431 76.418C156.597 76.9902 157.487 77.7638 158.102 78.7386C158.738 79.6923 159.055 80.752 159.055 81.9176C159.055 82.4474 159.002 82.903 158.896 83.2845L158.738 83.8249C157.826 84.0157 156.841 84.1746 155.781 84.3018C153.556 84.6197 151.309 84.7786 149.042 84.7786C149.042 87.237 149.381 88.996 150.059 90.0557C150.737 91.0941 151.67 91.6133 152.856 91.6133C153.683 91.6133 154.446 91.4226 155.145 91.0411C155.866 90.6385 156.428 90.1192 156.83 89.4835C157.254 88.8265 157.466 88.1589 157.466 87.4807H158.261C158.261 88.3284 158.006 89.1338 157.498 89.8967C156.989 90.6597 156.279 91.2743 155.368 91.7405C154.457 92.1856 153.408 92.4081 152.221 92.4081ZM149.042 83.9839C150.398 83.9839 151.5 83.9309 152.348 83.8249C152.708 83.8037 153.09 83.7508 153.492 83.666C153.513 83.56 153.566 83.3269 153.651 82.9666C153.757 82.4368 153.81 81.8752 153.81 81.2818C153.81 79.5228 153.577 78.2406 153.111 77.4353C152.645 76.6087 152.083 76.1955 151.426 76.1955C149.836 76.1955 149.042 78.7916 149.042 83.9839ZM167.784 92.4081C166.597 92.4081 165.527 92.1644 164.573 91.6769C163.641 91.1683 162.909 90.5113 162.38 89.706C161.85 88.9007 161.585 88.0529 161.585 87.1628V76.9902L159.678 76.5134V76.0365H163.81C165.718 76.0365 166.671 76.9902 166.671 78.8976V87.1628C166.671 88.498 166.904 89.5258 167.371 90.2464C167.858 90.9458 168.42 91.2955 169.055 91.2955C169.84 91.2955 170.55 90.8716 171.185 90.0239C171.418 89.706 171.662 89.2821 171.916 88.7523V76.9902L170.009 76.5134V76.0365H178.91V76.5134L177.003 76.9902V92.0902H176.685C175.138 92.0902 173.962 91.6663 173.156 90.8186C172.796 90.4371 172.542 90.0133 172.393 89.547C172.097 90.0769 171.747 90.5537 171.344 90.9776C170.391 91.9312 169.204 92.4081 167.784 92.4081ZM195.78 92.4081C193.067 92.4081 190.958 91.6663 189.454 90.1828C187.949 88.6781 187.197 86.6118 187.197 83.9839C187.197 82.2673 187.525 80.7732 188.182 79.5016C188.839 78.23 189.75 77.2551 190.916 76.577C192.103 75.8988 193.459 75.5597 194.985 75.5597C196.511 75.5597 197.846 75.8458 198.99 76.418C200.156 76.9902 201.046 77.7638 201.661 78.7386C202.297 79.6923 202.614 80.752 202.614 81.9176C202.614 82.4474 202.561 82.903 202.455 83.2845L202.297 83.8249C201.385 84.0157 200.4 84.1746 199.34 84.3018C197.115 84.6197 194.868 84.7786 192.601 84.7786C192.601 87.237 192.94 88.996 193.618 90.0557C194.296 91.0941 195.229 91.6133 196.415 91.6133C197.242 91.6133 198.005 91.4226 198.704 91.0411C199.425 90.6385 199.986 90.1192 200.389 89.4835C200.813 88.8265 201.025 88.1589 201.025 87.4807H201.82C201.82 88.3284 201.565 89.1338 201.057 89.8967C200.548 90.6597 199.838 91.2743 198.927 91.7405C198.016 92.1856 196.966 92.4081 195.78 92.4081ZM192.601 83.9839C193.957 83.9839 195.059 83.9309 195.907 83.8249C196.267 83.8037 196.649 83.7508 197.051 83.666C197.072 83.56 197.125 83.3269 197.21 82.9666C197.316 82.4368 197.369 81.8752 197.369 81.2818C197.369 79.5228 197.136 78.2406 196.67 77.4353C196.204 76.6087 195.642 76.1955 194.985 76.1955C193.395 76.1955 192.601 78.7916 192.601 83.9839ZM219.458 92.4081C217.953 92.4081 216.544 92.069 215.23 91.3908C214.636 91.0941 214.138 90.7444 213.736 90.3418C213.439 90.8292 213.068 91.2637 212.623 91.6451C212.242 91.9206 212.03 92.069 211.987 92.0902H211.193V86.0502H212.464C212.782 87.0887 213.227 88.0211 213.799 88.8477C215.092 90.6915 216.766 91.6133 218.822 91.6133C220.03 91.6133 220.994 91.2531 221.715 90.5325C222.435 89.8119 222.796 88.8477 222.796 87.6397C222.796 86.9403 222.584 86.3151 222.16 85.7641C221.757 85.2131 221.249 84.7256 220.634 84.3018C220.019 83.8779 219.161 83.3481 218.059 82.7123C216.66 81.9282 215.527 81.2182 214.658 80.5824C213.789 79.9466 213.047 79.1519 212.432 78.1982C211.818 77.2233 211.51 76.0789 211.51 74.765C211.51 73.7265 211.797 72.794 212.369 71.9675C212.962 71.1198 213.842 70.4522 215.007 69.9647C216.173 69.4561 217.603 69.2018 219.299 69.2018C220.528 69.2018 221.757 69.5515 222.986 70.2509C223.453 70.5052 223.919 70.8443 224.385 71.2681C224.745 70.7171 225.116 70.2826 225.498 69.9647C225.879 69.6892 226.091 69.5409 226.134 69.5197H226.928V75.5597H225.657C225.381 74.5424 224.968 73.6205 224.417 72.794C223.908 71.9887 223.273 71.3211 222.51 70.7913C221.768 70.2614 220.91 69.9965 219.935 69.9965C219.108 69.9965 218.398 70.325 217.805 70.982C217.211 71.639 216.915 72.4761 216.915 73.4934C216.915 74.2775 217.137 74.9875 217.582 75.6233C218.048 76.2379 218.61 76.7783 219.267 77.2445C219.945 77.7108 220.857 78.2724 222.001 78.9294C223.336 79.6923 224.417 80.3705 225.244 80.9639C226.07 81.5573 226.769 82.299 227.342 83.1892C227.914 84.0581 228.2 85.0647 228.2 86.2091C228.2 87.3536 227.871 88.4026 227.214 89.3563C226.557 90.2888 225.572 91.0305 224.258 91.5816C222.944 92.1326 221.344 92.4081 219.458 92.4081ZM237.569 92.4081C234.856 92.4081 232.748 91.6663 231.243 90.1828C229.738 88.6781 228.986 86.6118 228.986 83.9839C228.986 82.2673 229.314 80.7732 229.971 79.5016C230.628 78.23 231.54 77.2551 232.705 76.577C233.892 75.8988 235.248 75.5597 236.774 75.5597C238.3 75.5597 239.635 75.8458 240.78 76.418C241.945 76.9902 242.836 77.7638 243.45 78.7386C244.086 79.6923 244.404 80.752 244.404 81.9176C244.404 82.4474 244.351 82.903 244.245 83.2845L244.086 83.8249C243.175 84.0157 242.189 84.1746 241.13 84.3018C238.904 84.6197 236.658 84.7786 234.39 84.7786C234.39 87.237 234.729 88.996 235.407 90.0557C236.086 91.0941 237.018 91.6133 238.205 91.6133C239.031 91.6133 239.794 91.4226 240.494 91.0411C241.214 90.6385 241.776 90.1192 242.179 89.4835C242.602 88.8265 242.814 88.1589 242.814 87.4807H243.609C243.609 88.3284 243.355 89.1338 242.846 89.8967C242.338 90.6597 241.628 91.2743 240.716 91.7405C239.805 92.1856 238.756 92.4081 237.569 92.4081ZM234.39 83.9839C235.747 83.9839 236.849 83.9309 237.696 83.8249C238.057 83.8037 238.438 83.7508 238.841 83.666C238.862 83.56 238.915 83.3269 239 82.9666C239.106 82.4368 239.159 81.8752 239.159 81.2818C239.159 79.5228 238.925 78.2406 238.459 77.4353C237.993 76.6087 237.431 76.1955 236.774 76.1955C235.185 76.1955 234.39 78.7916 234.39 83.9839ZM253.132 92.4081C251.945 92.4081 250.875 92.1644 249.922 91.6769C248.989 91.1683 248.258 90.5113 247.728 89.706C247.198 88.9007 246.933 88.0529 246.933 87.1628V76.9902L245.026 76.5134V76.0365H249.159C251.066 76.0365 252.02 76.9902 252.02 78.8976V87.1628C252.02 88.498 252.253 89.5258 252.719 90.2464C253.206 90.9458 253.768 91.2955 254.404 91.2955C255.188 91.2955 255.898 90.8716 256.534 90.0239C256.767 89.706 257.011 89.2821 257.265 88.7523V76.9902L255.358 76.5134V76.0365H264.259V76.5134L262.351 76.9902V92.0902H262.033C260.486 92.0902 259.31 91.6663 258.505 90.8186C258.144 90.4371 257.89 90.0133 257.742 89.547C257.445 90.0769 257.095 90.5537 256.693 90.9776C255.739 91.9312 254.552 92.4081 253.132 92.4081Z" fill="#FCE1D0"/>
<defs>
<clipPath id="clip0_67_6667">
<rect width="108.196" height="108.196" fill="white" transform="translate(0.00012207 0.901855)"/>
</clipPath>
</defs>
</svg>
