<svg width="165" height="68" viewBox="0 0 165 68" fill="none" xmlns="http://www.w3.org/2000/svg">
<path d="M55.7187 31.214V42.3578C55.7187 51.5514 55.7187 56.1483 52.8631 59.0039C50.0075 61.8594 45.4107 61.8594 36.2171 61.8594H30.6452C21.4516 61.8594 16.8547 61.8594 13.9992 59.0039C11.1436 56.1483 11.1436 51.5514 11.1436 42.3578V31.214H51.5398C54.1447 31.214 55.4457 31.214 56.4152 30.7683C57.0211 30.4965 57.5475 30.0746 57.9447 29.5425C58.5047 28.7652 58.5047 27.726 58.5047 25.6421C58.5047 23.5582 58.5047 22.5163 57.9447 21.7418C57.577 21.2348 57.0504 20.8113 56.4152 20.516C55.4457 20.0702 54.1447 20.0702 51.5398 20.0702H11.734M33.4311 16.8859C33.4311 14.036 32.299 11.3029 30.2839 9.28776C28.2687 7.2726 25.5356 6.1405 22.6857 6.1405H21.6912C18.9442 6.1405 16.7155 8.36647 16.7155 11.1162C16.7155 13.491 17.6588 15.7685 19.338 17.4477C21.0172 19.1269 23.2947 20.0702 25.6695 20.0702H33.4311M33.4311 16.8859V20.0702M33.4311 16.8859C33.4311 14.036 34.5632 11.3029 36.5784 9.28776C38.5935 7.2726 41.3267 6.1405 44.1765 6.1405H45.1711C47.9181 6.1405 50.1468 8.36647 50.1468 11.1162C50.1468 12.2921 49.9152 13.4564 49.4652 14.5428C49.0153 15.6291 48.3557 16.6162 47.5243 17.4477C46.6928 18.2791 45.7057 18.9387 44.6194 19.3887C43.533 19.8386 42.3687 20.0702 41.1928 20.0702H33.4311" stroke="#FCE1D0" stroke-width="3.23529" stroke-linecap="round" stroke-linejoin="round"/>
<rect width="17.4436" height="3.23529" rx="1.61765" transform="matrix(-0.71934 -0.694658 -0.694658 0.71934 57.3945 47.1957)" fill="#FCE1D0"/>
<rect width="37.1808" height="3.23529" rx="1.61765" transform="matrix(0.71934 -0.694658 -0.694658 -0.71934 20.0352 63.1538)" fill="#FCE1D0"/>
<rect width="21.5476" height="3.23529" rx="1.61765" transform="matrix(0.71934 -0.694658 -0.694658 -0.71934 11.9541 51.8346)" fill="#FCE1D0"/>
<rect width="36.3682" height="3.23529" rx="1.61765" transform="matrix(0.694658 0.71934 0.71934 -0.694658 23.1875 36.7867)" fill="#FCE1D0"/>
<path d="M72.848 29.302V39.714L74.4196 40.3033V40.598H70.687V40.3033L72.2586 39.714V27.4357L71.0799 27.1411V26.8464H73.5356C74.2166 26.8464 74.7536 26.9905 75.1465 27.2786C75.5525 27.5536 75.8995 27.9662 76.1877 28.5162L80.4703 36.7083L83.751 28.5162C83.9737 27.94 84.2749 27.5209 84.6547 27.2589C85.0345 26.9839 85.6173 26.8464 86.4031 26.8464H88.4659V27.1411L87.2872 27.4357V40.0086L88.4659 40.3033V40.598H82.867V40.3033L84.0457 40.0086V29.302L79.4291 40.7944H78.8397L72.848 29.302ZM89.455 40.3033L90.6337 40.0086V31.3648L89.455 31.0701V30.7754H92.0089C93.1876 30.7754 93.777 31.3648 93.777 32.5435V40.0086L94.9557 40.3033V40.598H89.455V40.3033ZM92.0089 29.5967C91.616 29.5967 91.2886 29.4657 91.0266 29.2038C90.7647 28.9419 90.6337 28.6145 90.6337 28.2215C90.6337 27.8286 90.7647 27.5012 91.0266 27.2393C91.2886 26.9774 91.616 26.8464 92.0089 26.8464C92.4018 26.8464 92.7292 26.9774 92.9912 27.2393C93.2531 27.5012 93.3841 27.8286 93.3841 28.2215C93.3841 28.6145 93.2531 28.9419 92.9912 29.2038C92.7292 29.4657 92.4018 29.5967 92.0089 29.5967ZM95.3455 40.3033L96.5242 40.0086V31.3648L95.3455 31.0701V30.7754H97.1136C97.8863 30.7754 98.4953 31.0243 98.9406 31.5219C99.1108 31.7184 99.2549 31.9607 99.3728 32.2488C99.5692 31.8821 99.7788 31.5874 100.001 31.3648C100.591 30.7754 101.265 30.4807 102.025 30.4807C102.784 30.4807 103.452 30.651 104.029 30.9915C104.605 31.3189 105.05 31.7708 105.365 32.347C105.561 31.9672 105.771 31.6594 105.993 31.4237C106.596 30.7951 107.27 30.4807 108.017 30.4807C108.711 30.4807 109.333 30.6248 109.883 30.9129C110.446 31.2011 110.878 31.594 111.18 32.0916C111.494 32.5893 111.651 33.1328 111.651 33.7222V40.0086L112.83 40.3033V40.598H110.276C109.097 40.598 108.508 40.0086 108.508 38.8299V33.7222C108.508 32.8709 108.377 32.2357 108.115 31.8166C107.853 31.3844 107.558 31.1683 107.231 31.1683C106.851 31.1683 106.465 31.4303 106.072 31.9541C105.915 32.203 105.777 32.4649 105.659 32.7399V40.0086L106.838 40.3033V40.598H101.337V40.3033L102.516 40.0086V33.7222C102.516 32.8709 102.385 32.2357 102.123 31.8166C101.861 31.3844 101.566 31.1683 101.239 31.1683C100.859 31.1683 100.473 31.4303 100.08 31.9541C99.9228 32.203 99.7853 32.4649 99.6674 32.7399V40.0086L100.846 40.3033V40.598H95.3455V40.3033ZM118.432 40.8927C116.808 40.8927 115.531 40.4343 114.602 39.5175C113.685 38.5876 113.226 37.3107 113.226 35.6867C113.226 34.0627 113.685 32.7923 114.602 31.8755C115.531 30.9457 116.808 30.4807 118.432 30.4807C120.056 30.4807 121.327 30.9457 122.244 31.8755C123.173 32.7923 123.638 34.0627 123.638 35.6867C123.638 37.3107 123.173 38.5876 122.244 39.5175C121.327 40.4343 120.056 40.8927 118.432 40.8927ZM118.432 40.4998C118.956 40.4998 119.395 40.1331 119.749 39.3996C120.115 38.6662 120.299 37.4286 120.299 35.6867C120.299 33.9448 120.115 32.7072 119.749 31.9738C119.395 31.2404 118.956 30.8736 118.432 30.8736C117.909 30.8736 117.463 31.2404 117.097 31.9738C116.743 32.7072 116.566 33.9448 116.566 35.6867C116.566 37.4286 116.743 38.6662 117.097 39.3996C117.463 40.1331 117.909 40.4998 118.432 40.4998ZM70.8835 56.3033L72.0622 56.0086V47.3648L70.8835 47.0701V46.7754H72.6515C73.4242 46.7754 74.0332 47.0243 74.4785 47.5219C74.6488 47.7184 74.7928 47.9607 74.9107 48.2488C75.1072 47.8821 75.3167 47.5874 75.5394 47.3648C76.1287 46.7754 76.8032 46.4807 77.5628 46.4807C78.3224 46.4807 78.9904 46.651 79.5666 46.9915C80.1429 47.3189 80.5882 47.7708 80.9025 48.347C81.0989 47.9672 81.3085 47.6594 81.5311 47.4237C82.1336 46.7951 82.8081 46.4807 83.5546 46.4807C84.2487 46.4807 84.8708 46.6248 85.4209 46.9129C85.984 47.2011 86.4162 47.594 86.7175 48.0916C87.0318 48.5893 87.1889 49.1328 87.1889 49.7222V56.0086L88.3676 56.3033V56.598H85.8138C84.6351 56.598 84.0457 56.0086 84.0457 54.8299V49.7222C84.0457 48.8709 83.9147 48.2357 83.6528 47.8166C83.3909 47.3844 83.0962 47.1683 82.7688 47.1683C82.389 47.1683 82.0026 47.4303 81.6097 47.9541C81.4526 48.203 81.315 48.4649 81.1972 48.7399V56.0086L82.3759 56.3033V56.598H76.8752V56.3033L78.0539 56.0086V49.7222C78.0539 48.8709 77.923 48.2357 77.661 47.8166C77.3991 47.3844 77.1044 47.1683 76.777 47.1683C76.3972 47.1683 76.0108 47.4303 75.6179 47.9541C75.4608 48.203 75.3233 48.4649 75.2054 48.7399V56.0086L76.3841 56.3033V56.598H70.8835V56.3033ZM94.0686 56.8927C92.3922 56.8927 91.0891 56.4343 90.1592 55.5175C89.2293 54.5876 88.7644 53.3107 88.7644 51.6867C88.7644 50.6259 88.9674 49.7025 89.3734 48.9167C89.7794 48.1309 90.3425 47.5285 91.0629 47.1094C91.7963 46.6903 92.6345 46.4807 93.5774 46.4807C94.5204 46.4807 95.3455 46.6575 96.0527 47.0112C96.7731 47.3648 97.3231 47.8428 97.7029 48.4453C98.0958 49.0346 98.2923 49.6894 98.2923 50.4098C98.2923 50.7372 98.2595 51.0188 98.1941 51.2545L98.0958 51.5885C97.5327 51.7063 96.9237 51.8046 96.2688 51.8832C94.8937 52.0796 93.5054 52.1778 92.1041 52.1778C92.1041 53.6971 92.3136 54.7841 92.7327 55.4389C93.1518 56.0807 93.7281 56.4015 94.4615 56.4015C94.9723 56.4015 95.4437 56.2837 95.8759 56.0479C96.3212 55.7991 96.6683 55.4782 96.9171 55.0853C97.1791 54.6793 97.31 54.2668 97.31 53.8477H97.8012C97.8012 54.3715 97.644 54.8692 97.3297 55.3407C97.0153 55.8122 96.5766 56.192 96.0134 56.4801C95.4503 56.7552 94.802 56.8927 94.0686 56.8927ZM92.1041 51.6867C92.9423 51.6867 93.6233 51.654 94.1472 51.5885C94.3698 51.5754 94.6055 51.5426 94.8544 51.4903C94.8675 51.4248 94.9002 51.2807 94.9526 51.0581C95.0181 50.7306 95.0508 50.3836 95.0508 50.0169C95.0508 48.9298 94.9068 48.1375 94.6186 47.6398C94.3305 47.129 93.9834 46.8736 93.5774 46.8736C92.5952 46.8736 92.1041 48.478 92.1041 51.6867ZM103.686 56.8927C102.953 56.8927 102.291 56.7421 101.702 56.4408C101.126 56.1265 100.674 55.7205 100.347 55.2228C100.019 54.7252 99.8555 54.2013 99.8555 53.6512V47.3648L98.6767 47.0701V46.7754H101.231C102.409 46.7754 102.999 47.3648 102.999 48.5435V53.6512C102.999 54.4763 103.143 55.1115 103.431 55.5568C103.732 55.989 104.079 56.2051 104.472 56.2051C104.957 56.2051 105.395 55.9432 105.788 55.4193C105.932 55.2228 106.083 54.9609 106.24 54.6335V47.3648L105.061 47.0701V46.7754H110.562V47.0701L109.383 47.3648V56.6962H109.187C108.231 56.6962 107.504 56.4343 107.006 55.9104C106.784 55.6747 106.626 55.4127 106.535 55.1246C106.351 55.452 106.135 55.7467 105.887 56.0086C105.297 56.598 104.564 56.8927 103.686 56.8927ZM120.987 56.8927C119.311 56.8927 118.008 56.4343 117.078 55.5175C116.148 54.5876 115.683 53.3107 115.683 51.6867C115.683 50.6259 115.886 49.7025 116.292 48.9167C116.698 48.1309 117.261 47.5285 117.981 47.1094C118.715 46.6903 119.553 46.4807 120.496 46.4807C121.439 46.4807 122.264 46.6575 122.971 47.0112C123.692 47.3648 124.242 47.8428 124.621 48.4453C125.014 49.0346 125.211 49.6894 125.211 50.4098C125.211 50.7372 125.178 51.0188 125.113 51.2545L125.014 51.5885C124.451 51.7063 123.842 51.8046 123.187 51.8832C121.812 52.0796 120.424 52.1778 119.023 52.1778C119.023 53.6971 119.232 54.7841 119.651 55.4389C120.07 56.0807 120.647 56.4015 121.38 56.4015C121.891 56.4015 122.362 56.2837 122.794 56.0479C123.24 55.7991 123.587 55.4782 123.836 55.0853C124.098 54.6793 124.228 54.2668 124.228 53.8477H124.72C124.72 54.3715 124.562 54.8692 124.248 55.3407C123.934 55.8122 123.495 56.192 122.932 56.4801C122.369 56.7552 121.72 56.8927 120.987 56.8927ZM119.023 51.6867C119.861 51.6867 120.542 51.654 121.066 51.5885C121.288 51.5754 121.524 51.5426 121.773 51.4903C121.786 51.4248 121.819 51.2807 121.871 51.0581C121.937 50.7306 121.969 50.3836 121.969 50.0169C121.969 48.9298 121.825 48.1375 121.537 47.6398C121.249 47.129 120.902 46.8736 120.496 46.8736C119.514 46.8736 119.023 48.478 119.023 51.6867ZM135.62 56.8927C134.69 56.8927 133.819 56.6831 133.007 56.264C132.64 56.0807 132.332 55.8646 132.083 55.6157C131.9 55.917 131.671 56.1854 131.396 56.4212C131.16 56.5914 131.029 56.6831 131.003 56.6962H130.512V52.9636H131.298C131.494 53.6054 131.769 54.1816 132.123 54.6924C132.922 55.8318 133.956 56.4015 135.227 56.4015C135.973 56.4015 136.569 56.1789 137.014 55.7336C137.46 55.2883 137.682 54.6924 137.682 53.9459C137.682 53.5137 137.551 53.1273 137.289 52.7868C137.041 52.4463 136.726 52.1451 136.346 51.8832C135.967 51.6212 135.436 51.2938 134.755 50.9009C133.891 50.4163 133.19 49.9776 132.653 49.5847C132.116 49.1918 131.658 48.7006 131.278 48.1113C130.898 47.5088 130.708 46.8016 130.708 45.9896C130.708 45.3479 130.885 44.7716 131.239 44.2608C131.605 43.737 132.149 43.3244 132.869 43.0232C133.59 42.7089 134.474 42.5517 135.521 42.5517C136.281 42.5517 137.041 42.7678 137.8 43.2C138.088 43.3572 138.376 43.5667 138.665 43.8286C138.887 43.4881 139.116 43.2196 139.352 43.0232C139.588 42.8529 139.719 42.7613 139.745 42.7482H140.236V46.4807H139.45C139.28 45.8521 139.025 45.2824 138.684 44.7716C138.37 44.2739 137.977 43.8614 137.506 43.534C137.047 43.2065 136.517 43.0428 135.914 43.0428C135.404 43.0428 134.965 43.2458 134.598 43.6518C134.231 44.0578 134.048 44.5752 134.048 45.2038C134.048 45.6884 134.186 46.1271 134.461 46.52C134.749 46.8998 135.096 47.2338 135.502 47.5219C135.921 47.8101 136.484 48.1571 137.191 48.5631C138.016 49.0346 138.684 49.4537 139.195 49.8204C139.706 50.1871 140.138 50.6455 140.492 51.1956C140.845 51.7325 141.022 52.3546 141.022 53.0619C141.022 53.7691 140.819 54.4174 140.413 55.0067C140.007 55.583 139.398 56.0414 138.586 56.3819C137.774 56.7224 136.785 56.8927 135.62 56.8927ZM146.812 56.8927C145.136 56.8927 143.832 56.4343 142.903 55.5175C141.973 54.5876 141.508 53.3107 141.508 51.6867C141.508 50.6259 141.711 49.7025 142.117 48.9167C142.523 48.1309 143.086 47.5285 143.806 47.1094C144.54 46.6903 145.378 46.4807 146.321 46.4807C147.264 46.4807 148.089 46.6575 148.796 47.0112C149.516 47.3648 150.067 47.8428 150.446 48.4453C150.839 49.0346 151.036 49.6894 151.036 50.4098C151.036 50.7372 151.003 51.0188 150.937 51.2545L150.839 51.5885C150.276 51.7063 149.667 51.8046 149.012 51.8832C147.637 52.0796 146.249 52.1778 144.847 52.1778C144.847 53.6971 145.057 54.7841 145.476 55.4389C145.895 56.0807 146.471 56.4015 147.205 56.4015C147.716 56.4015 148.187 56.2837 148.619 56.0479C149.065 55.7991 149.412 55.4782 149.661 55.0853C149.922 54.6793 150.053 54.2668 150.053 53.8477H150.545C150.545 54.3715 150.387 54.8692 150.073 55.3407C149.759 55.8122 149.32 56.192 148.757 56.4801C148.194 56.7552 147.545 56.8927 146.812 56.8927ZM144.847 51.6867C145.686 51.6867 146.367 51.654 146.891 51.5885C147.113 51.5754 147.349 51.5426 147.598 51.4903C147.611 51.4248 147.644 51.2807 147.696 51.0581C147.761 50.7306 147.794 50.3836 147.794 50.0169C147.794 48.9298 147.65 48.1375 147.362 47.6398C147.074 47.129 146.727 46.8736 146.321 46.8736C145.339 46.8736 144.847 48.478 144.847 51.6867ZM156.43 56.8927C155.696 56.8927 155.035 56.7421 154.445 56.4408C153.869 56.1265 153.417 55.7205 153.09 55.2228C152.763 54.7252 152.599 54.2013 152.599 53.6512V47.3648L151.42 47.0701V46.7754H153.974C155.153 46.7754 155.742 47.3648 155.742 48.5435V53.6512C155.742 54.4763 155.886 55.1115 156.174 55.5568C156.475 55.989 156.823 56.2051 157.215 56.2051C157.7 56.2051 158.139 55.9432 158.532 55.4193C158.676 55.2228 158.826 54.9609 158.984 54.6335V47.3648L157.805 47.0701V46.7754H163.305V47.0701L162.127 47.3648V56.6962H161.93C160.974 56.6962 160.247 56.4343 159.75 55.9104C159.527 55.6747 159.37 55.4127 159.278 55.1246C159.095 55.452 158.879 55.7467 158.63 56.0086C158.041 56.598 157.307 56.8927 156.43 56.8927Z" fill="#FCE1D0"/>
</svg>
